<svg width="129" height="46" viewBox="0 0 129 46" fill="none" xmlns="http://www.w3.org/2000/svg">
<g opacity="0.5" filter="url(#filter0_d_2144_59)">
<rect x="8" y="6" width="113" height="30" rx="15" fill="url(#paint0_linear_2144_59)" shape-rendering="crispEdges"/>
<rect x="8.5" y="6.5" width="112" height="29" rx="14.5" stroke="#BFD0DB" shape-rendering="crispEdges"/>
</g>
<path d="M9.2962 20.2896C8.90381 20.6782 8.90077 21.3114 9.28941 21.7038L15.6227 28.0982C16.0114 28.4906 16.6445 28.4937 17.0369 28.105C17.4293 27.7164 17.4324 27.0832 17.0437 26.6908L11.4141 21.0069L17.0981 15.3772C17.4904 14.9886 17.4935 14.3554 17.1048 13.963C16.7162 13.5707 16.083 13.5676 15.6906 13.9563L9.2962 20.2896ZM22.9998 21.0625L23.0046 20.0625L10.0047 20.0001L9.99991 21.0001L9.9951 22.0001L22.995 22.0625L22.9998 21.0625Z" fill="#244F85"/>
<path d="M119.707 21.7071C120.098 21.3166 120.098 20.6834 119.707 20.2929L113.343 13.9289C112.953 13.5384 112.319 13.5384 111.929 13.9289C111.538 14.3195 111.538 14.9526 111.929 15.3431L117.586 21L111.929 26.6569C111.538 27.0474 111.538 27.6805 111.929 28.0711C112.319 28.4616 112.953 28.4616 113.343 28.0711L119.707 21.7071ZM106 21V22L119 22V21V20L106 20V21Z" fill="#244F85"/>
<path d="M33.2056 28.2092C32.1846 28.2092 31.3052 27.991 30.5675 27.5547C29.8343 27.1139 29.2675 26.4954 28.8672 25.6992C28.4714 24.8986 28.2735 23.9607 28.2735 22.8857C28.2735 21.8241 28.4714 20.8885 28.8672 20.0788C29.2675 19.2692 29.8253 18.6372 30.5405 18.1829C31.2602 17.7286 32.1013 17.5014 33.0639 17.5014C33.6487 17.5014 34.2155 17.5981 34.7642 17.7915C35.313 17.985 35.8055 18.2886 36.2419 18.7024C36.6782 19.1162 37.0223 19.6538 37.2742 20.315C37.5261 20.9717 37.652 21.7701 37.652 22.7102V23.4254H29.4137V21.9141H35.6751C35.6751 21.3833 35.5671 20.9132 35.3512 20.5039C35.1353 20.0901 34.8317 19.764 34.4404 19.5256C34.0535 19.2872 33.5992 19.168 33.0774 19.168C32.5107 19.168 32.0159 19.3074 31.5931 19.5863C31.1747 19.8607 30.8509 20.2205 30.6215 20.6658C30.3966 21.1067 30.2841 21.5857 30.2841 22.103V23.2837C30.2841 23.9764 30.4056 24.5657 30.6485 25.0515C30.8959 25.5373 31.24 25.9084 31.6808 26.1648C32.1216 26.4167 32.6366 26.5426 33.2259 26.5426C33.6082 26.5426 33.9568 26.4886 34.2717 26.3807C34.5865 26.2682 34.8587 26.1018 35.0881 25.8814C35.3175 25.661 35.4929 25.3888 35.6144 25.065L37.5238 25.4091C37.3709 25.9714 37.0965 26.4639 36.7007 26.8867C36.3093 27.305 35.8168 27.6312 35.223 27.8651C34.6338 28.0945 33.9613 28.2092 33.2056 28.2092ZM42.2878 21.8466V28H40.2704V17.6364H42.2068V19.3232H42.335C42.5734 18.7744 42.9468 18.3336 43.455 18.0007C43.9678 17.6679 44.6133 17.5014 45.3915 17.5014C46.0977 17.5014 46.7162 17.6499 47.2469 17.9467C47.7777 18.2391 48.1893 18.6754 48.4817 19.2557C48.774 19.8359 48.9202 20.5534 48.9202 21.408V28H46.9028V21.6509C46.9028 20.8997 46.7072 20.3127 46.3158 19.8899C45.9245 19.4626 45.387 19.2489 44.7033 19.2489C44.2355 19.2489 43.8194 19.3501 43.455 19.5526C43.0952 19.755 42.8096 20.0518 42.5981 20.4432C42.3912 20.83 42.2878 21.2978 42.2878 21.8466ZM68.0853 13.5341L63.6321 30.0781H61.8307L66.2838 13.5341H68.0853ZM82.8512 24.4847L82.8377 22.022H83.1885L87.3178 17.6364H89.7333L85.0237 22.6293H84.7066L82.8512 24.4847ZM80.9957 28V14.1818H83.0131V28H80.9957ZM87.5404 28L83.8295 23.0746L85.2194 21.6644L90.0166 28H87.5404ZM95.8905 28.2092C94.9189 28.2092 94.071 27.9865 93.3468 27.5412C92.6226 27.0959 92.0604 26.4729 91.66 25.6722C91.2597 24.8716 91.0596 23.936 91.0596 22.8654C91.0596 21.7904 91.2597 20.8503 91.66 20.0451C92.0604 19.2399 92.6226 18.6147 93.3468 18.1694C94.071 17.7241 94.9189 17.5014 95.8905 17.5014C96.8621 17.5014 97.71 17.7241 98.4342 18.1694C99.1584 18.6147 99.7207 19.2399 100.121 20.0451C100.521 20.8503 100.721 21.7904 100.721 22.8654C100.721 23.936 100.521 24.8716 100.121 25.6722C99.7207 26.4729 99.1584 27.0959 98.4342 27.5412C97.71 27.9865 96.8621 28.2092 95.8905 28.2092ZM95.8973 26.5156C96.527 26.5156 97.0488 26.3492 97.4626 26.0163C97.8764 25.6835 98.1823 25.2404 98.3802 24.6871C98.5826 24.1339 98.6838 23.5244 98.6838 22.8587C98.6838 22.1974 98.5826 21.5902 98.3802 21.0369C98.1823 20.4792 97.8764 20.0316 97.4626 19.6942C97.0488 19.3569 96.527 19.1882 95.8973 19.1882C95.263 19.1882 94.7368 19.3569 94.3184 19.6942C93.9046 20.0316 93.5965 20.4792 93.3941 21.0369C93.1962 21.5902 93.0972 22.1974 93.0972 22.8587C93.0972 23.5244 93.1962 24.1339 93.3941 24.6871C93.5965 25.2404 93.9046 25.6835 94.3184 26.0163C94.7368 26.3492 95.263 26.5156 95.8973 26.5156Z" fill="url(#paint1_linear_2144_59)"/>
<defs>
<filter id="filter0_d_2144_59" x="0" y="0" width="129" height="46" filterUnits="userSpaceOnUse" color-interpolation-filters="sRGB">
<feFlood flood-opacity="0" result="BackgroundImageFix"/>
<feColorMatrix in="SourceAlpha" type="matrix" values="0 0 0 0 0 0 0 0 0 0 0 0 0 0 0 0 0 0 127 0" result="hardAlpha"/>
<feOffset dy="2"/>
<feGaussianBlur stdDeviation="4"/>
<feComposite in2="hardAlpha" operator="out"/>
<feColorMatrix type="matrix" values="0 0 0 0 0 0 0 0 0 0 0 0 0 0 0 0 0 0 0.15 0"/>
<feBlend mode="normal" in2="BackgroundImageFix" result="effect1_dropShadow_2144_59"/>
<feBlend mode="normal" in="SourceGraphic" in2="effect1_dropShadow_2144_59" result="shape"/>
</filter>
<linearGradient id="paint0_linear_2144_59" x1="64.5" y1="6" x2="64.5" y2="36" gradientUnits="userSpaceOnUse">
<stop stop-color="white" stop-opacity="0.01"/>
<stop offset="1" stop-color="white"/>
</linearGradient>
<linearGradient id="paint1_linear_2144_59" x1="64.5" y1="14" x2="64.5" y2="28" gradientUnits="userSpaceOnUse">
<stop stop-color="white" stop-opacity="0.01"/>
<stop offset="1" stop-color="white"/>
</linearGradient>
</defs>
</svg>
