<svg width="144" height="17" viewBox="0 0 144 17" fill="none" xmlns="http://www.w3.org/2000/svg">
<path d="M4.85395 0.707999C5.66995 0.707999 6.38995 0.864 7.01395 1.176C7.64995 1.476 8.14795 1.896 8.50795 2.436C8.86795 2.976 9.04795 3.606 9.04795 4.326C9.04795 5.034 8.86795 5.664 8.50795 6.216C8.14795 6.756 7.64995 7.176 7.01395 7.476C6.38995 7.776 5.66995 7.926 4.85395 7.926C4.04995 7.926 3.32995 7.776 2.69395 7.476C2.05795 7.176 1.55395 6.756 1.18195 6.216C0.82195 5.664 0.64195 5.034 0.64195 4.326C0.64195 3.606 0.82195 2.976 1.18195 2.436C1.55395 1.896 2.05795 1.476 2.69395 1.176C3.32995 0.864 4.04995 0.707999 4.85395 0.707999ZM4.85395 1.95C4.32595 1.95 3.85195 2.052 3.43195 2.256C3.02395 2.448 2.69995 2.724 2.45995 3.084C2.21995 3.444 2.09995 3.858 2.09995 4.326C2.09995 4.794 2.21995 5.208 2.45995 5.568C2.69995 5.916 3.02395 6.192 3.43195 6.396C3.85195 6.6 4.32595 6.702 4.85395 6.702C5.38195 6.702 5.84995 6.6 6.25795 6.396C6.67795 6.192 7.00795 5.916 7.24795 5.568C7.48795 5.208 7.60795 4.794 7.60795 4.326C7.60795 3.858 7.48795 3.444 7.24795 3.084C7.00795 2.724 6.67795 2.448 6.25795 2.256C5.84995 2.052 5.38195 1.95 4.85395 1.95ZM12.126 0.114H13.62V8.448H12.126V0.114ZM3.08995 9.258H13.62V13.2H4.58395V15.648H3.14395V12.084H12.144V10.446H3.08995V9.258ZM3.14395 14.982H14.178V16.188H3.14395V14.982ZM29.0265 0.114H30.5385V16.404H29.0265V0.114ZM21.7185 3.984H22.9245V5.388C22.9245 6.252 22.8105 7.092 22.5825 7.908C22.3545 8.712 22.0305 9.462 21.6105 10.158C21.2025 10.854 20.7165 11.466 20.1525 11.994C19.6005 12.522 18.9945 12.942 18.3345 13.254L17.5065 12.102C18.1065 11.826 18.6585 11.454 19.1625 10.986C19.6785 10.518 20.1225 9.99 20.4945 9.402C20.8785 8.802 21.1785 8.16 21.3945 7.476C21.6105 6.792 21.7185 6.096 21.7185 5.388V3.984ZM21.9885 3.984H23.1945V5.388C23.1945 6.06 23.3025 6.726 23.5185 7.386C23.7345 8.034 24.0345 8.646 24.4185 9.222C24.8025 9.786 25.2525 10.29 25.7685 10.734C26.2845 11.178 26.8485 11.538 27.4605 11.814L26.6325 12.966C25.9725 12.666 25.3605 12.264 24.7965 11.76C24.2325 11.244 23.7405 10.656 23.3205 9.996C22.9005 9.324 22.5705 8.598 22.3305 7.818C22.1025 7.038 21.9885 6.228 21.9885 5.388V3.984ZM17.9385 2.94H26.9025V4.146H17.9385V2.94ZM21.7005 0.419999H23.1945V3.606H21.7005V0.419999ZM45.2611 0.131999H46.7551V12.336H45.2611V0.131999ZM46.2871 5.478H49.1491V6.72H46.2871V5.478ZM34.1551 2.112H43.7671V3.318H34.1551V2.112ZM38.9611 4.2C39.7291 4.2 40.4071 4.332 40.9951 4.596C41.5831 4.848 42.0391 5.202 42.3631 5.658C42.6871 6.102 42.8491 6.63 42.8491 7.242C42.8491 7.854 42.6871 8.388 42.3631 8.844C42.0391 9.288 41.5831 9.636 40.9951 9.888C40.4071 10.14 39.7291 10.266 38.9611 10.266C38.1931 10.266 37.5151 10.14 36.9271 9.888C36.3391 9.636 35.8771 9.288 35.5411 8.844C35.2171 8.388 35.0551 7.854 35.0551 7.242C35.0551 6.63 35.2171 6.102 35.5411 5.658C35.8771 5.202 36.3391 4.848 36.9271 4.596C37.5151 4.332 38.1931 4.2 38.9611 4.2ZM38.9611 5.37C38.2291 5.37 37.6351 5.544 37.1791 5.892C36.7231 6.228 36.4951 6.678 36.4951 7.242C36.4951 7.806 36.7231 8.256 37.1791 8.592C37.6351 8.928 38.2291 9.096 38.9611 9.096C39.7051 9.096 40.2991 8.928 40.7431 8.592C41.1991 8.256 41.4271 7.806 41.4271 7.242C41.4271 6.678 41.1991 6.228 40.7431 5.892C40.2991 5.544 39.7051 5.37 38.9611 5.37ZM38.2231 0.131999H39.7171V2.724H38.2231V0.131999ZM36.6211 14.82H47.4751V16.044H36.6211V14.82ZM36.6211 11.364H38.0971V15.324H36.6211V11.364ZM68.5094 0.114H69.9494V16.404H68.5094V0.114ZM65.7914 6.738H68.9234V7.98H65.7914V6.738ZM64.8194 0.473999H66.2234V15.558H64.8194V0.473999ZM56.9534 2.076H58.4474V11.472H56.9534V2.076ZM56.9534 10.878H57.9794C58.8314 10.878 59.7254 10.848 60.6614 10.788C61.5974 10.716 62.5934 10.572 63.6494 10.356L63.8294 11.67C62.7254 11.886 61.6934 12.03 60.7334 12.102C59.7734 12.162 58.8554 12.192 57.9794 12.192H56.9534V10.878ZM76.698 5.64H78.192V8.7H76.698V5.64ZM82.674 5.64H84.15V8.7H82.674V5.64ZM73.08 8.16H87.786V9.366H73.08V8.16ZM80.424 10.608C82.164 10.608 83.526 10.854 84.51 11.346C85.494 11.838 85.986 12.546 85.986 13.47C85.986 14.406 85.494 15.12 84.51 15.612C83.526 16.116 82.164 16.368 80.424 16.368C78.684 16.368 77.316 16.116 76.32 15.612C75.336 15.12 74.844 14.406 74.844 13.47C74.844 12.546 75.336 11.838 76.32 11.346C77.316 10.854 78.684 10.608 80.424 10.608ZM80.424 11.76C79.572 11.76 78.84 11.826 78.228 11.958C77.628 12.09 77.166 12.288 76.842 12.552C76.518 12.804 76.356 13.11 76.356 13.47C76.356 13.854 76.518 14.178 76.842 14.442C77.166 14.694 77.628 14.886 78.228 15.018C78.84 15.15 79.572 15.216 80.424 15.216C81.276 15.216 82.002 15.15 82.602 15.018C83.214 14.886 83.682 14.694 84.006 14.442C84.33 14.178 84.492 13.854 84.492 13.47C84.492 13.11 84.33 12.804 84.006 12.552C83.682 12.288 83.214 12.09 82.602 11.958C82.002 11.826 81.276 11.76 80.424 11.76ZM80.424 0.419999C81.6 0.419999 82.614 0.539999 83.466 0.78C84.33 1.02 84.99 1.368 85.446 1.824C85.914 2.268 86.148 2.808 86.148 3.444C86.148 4.068 85.914 4.608 85.446 5.064C84.99 5.52 84.33 5.868 83.466 6.108C82.614 6.336 81.6 6.45 80.424 6.45C79.248 6.45 78.228 6.336 77.364 6.108C76.512 5.868 75.852 5.52 75.384 5.064C74.928 4.608 74.7 4.068 74.7 3.444C74.7 2.808 74.928 2.268 75.384 1.824C75.852 1.368 76.512 1.02 77.364 0.78C78.228 0.539999 79.248 0.419999 80.424 0.419999ZM80.424 1.59C79.572 1.59 78.828 1.662 78.192 1.806C77.568 1.95 77.082 2.16 76.734 2.436C76.398 2.712 76.23 3.048 76.23 3.444C76.23 3.828 76.398 4.164 76.734 4.452C77.082 4.728 77.568 4.938 78.192 5.082C78.828 5.226 79.572 5.298 80.424 5.298C81.3 5.298 82.05 5.226 82.674 5.082C83.298 4.938 83.778 4.728 84.114 4.452C84.45 4.164 84.618 3.828 84.618 3.444C84.618 3.048 84.45 2.712 84.114 2.436C83.778 2.16 83.298 1.95 82.674 1.806C82.05 1.662 81.3 1.59 80.424 1.59ZM101.825 0.114H103.319V16.422H101.825V0.114ZM94.7326 1.374C95.5366 1.374 96.2446 1.608 96.8566 2.076C97.4806 2.532 97.9666 3.186 98.3146 4.038C98.6746 4.89 98.8546 5.892 98.8546 7.044C98.8546 8.196 98.6746 9.198 98.3146 10.05C97.9666 10.902 97.4806 11.562 96.8566 12.03C96.2446 12.498 95.5366 12.732 94.7326 12.732C93.9286 12.732 93.2146 12.498 92.5906 12.03C91.9666 11.562 91.4746 10.902 91.1146 10.05C90.7666 9.198 90.5926 8.196 90.5926 7.044C90.5926 5.892 90.7666 4.89 91.1146 4.038C91.4746 3.186 91.9666 2.532 92.5906 2.076C93.2146 1.608 93.9286 1.374 94.7326 1.374ZM94.7326 2.706C94.1926 2.706 93.7186 2.886 93.3106 3.246C92.9146 3.594 92.6026 4.098 92.3746 4.758C92.1466 5.406 92.0326 6.168 92.0326 7.044C92.0326 7.92 92.1466 8.688 92.3746 9.348C92.6026 9.996 92.9146 10.5 93.3106 10.86C93.7186 11.22 94.1926 11.4 94.7326 11.4C95.2606 11.4 95.7226 11.22 96.1186 10.86C96.5266 10.5 96.8446 9.996 97.0726 9.348C97.3006 8.688 97.4146 7.92 97.4146 7.044C97.4146 6.168 97.3006 5.406 97.0726 4.758C96.8446 4.098 96.5266 3.594 96.1186 3.246C95.7226 2.886 95.2606 2.706 94.7326 2.706ZM113.895 9.672H115.299V11.688H118.143V9.672H119.529V16.188H113.895V9.672ZM115.299 12.822V15.018H118.143V12.822H115.299ZM122.679 9.564H123.849V10.932C123.849 11.664 123.723 12.384 123.471 13.092C123.219 13.788 122.841 14.418 122.337 14.982C121.845 15.546 121.227 15.99 120.483 16.314L119.727 15.18C120.375 14.904 120.921 14.538 121.365 14.082C121.809 13.626 122.139 13.122 122.355 12.57C122.571 12.018 122.679 11.472 122.679 10.932V9.564ZM123.003 9.564H124.155V10.932C124.155 11.508 124.263 12.078 124.479 12.642C124.707 13.194 125.043 13.692 125.487 14.136C125.931 14.58 126.477 14.928 127.125 15.18L126.351 16.314C125.595 16.002 124.971 15.57 124.479 15.018C123.987 14.466 123.615 13.836 123.363 13.128C123.123 12.42 123.003 11.688 123.003 10.932V9.564ZM120.213 3.93H124.587V5.172H120.213V3.93ZM116.487 0.833999C117.291 0.833999 118.005 0.995999 118.629 1.32C119.265 1.632 119.763 2.07 120.123 2.634C120.483 3.186 120.663 3.834 120.663 4.578C120.663 5.31 120.483 5.964 120.123 6.54C119.763 7.104 119.265 7.548 118.629 7.872C118.005 8.184 117.291 8.34 116.487 8.34C115.671 8.34 114.945 8.184 114.309 7.872C113.685 7.548 113.193 7.104 112.833 6.54C112.473 5.964 112.293 5.31 112.293 4.578C112.293 3.834 112.473 3.186 112.833 2.634C113.193 2.07 113.685 1.632 114.309 1.32C114.945 0.995999 115.671 0.833999 116.487 0.833999ZM116.487 2.076C115.947 2.076 115.467 2.184 115.047 2.4C114.639 2.604 114.315 2.898 114.075 3.282C113.835 3.654 113.715 4.086 113.715 4.578C113.715 5.07 113.835 5.508 114.075 5.892C114.315 6.264 114.639 6.558 115.047 6.774C115.467 6.99 115.947 7.098 116.487 7.098C117.015 7.098 117.483 6.99 117.891 6.774C118.311 6.558 118.641 6.264 118.881 5.892C119.121 5.508 119.241 5.07 119.241 4.578C119.241 4.086 119.121 3.654 118.881 3.282C118.641 2.898 118.311 2.604 117.891 2.4C117.483 2.184 117.015 2.076 116.487 2.076ZM123.939 0.114H125.433V8.736H123.939V0.114ZM136.303 0.473999C137.479 0.473999 138.493 0.599999 139.345 0.852C140.209 1.092 140.869 1.44 141.325 1.896C141.793 2.352 142.027 2.91 142.027 3.57C142.027 4.206 141.793 4.758 141.325 5.226C140.869 5.682 140.209 6.03 139.345 6.27C138.493 6.51 137.479 6.63 136.303 6.63C135.139 6.63 134.125 6.51 133.261 6.27C132.409 6.03 131.749 5.682 131.281 5.226C130.813 4.758 130.579 4.206 130.579 3.57C130.579 2.91 130.813 2.352 131.281 1.896C131.749 1.44 132.409 1.092 133.261 0.852C134.125 0.599999 135.139 0.473999 136.303 0.473999ZM136.303 1.662C135.451 1.662 134.707 1.74 134.071 1.896C133.447 2.04 132.961 2.256 132.613 2.544C132.277 2.82 132.109 3.162 132.109 3.57C132.109 3.954 132.277 4.29 132.613 4.578C132.961 4.854 133.447 5.07 134.071 5.226C134.707 5.37 135.451 5.442 136.303 5.442C137.167 5.442 137.911 5.37 138.535 5.226C139.171 5.07 139.657 4.854 139.993 4.578C140.329 4.29 140.497 3.954 140.497 3.57C140.497 3.162 140.329 2.82 139.993 2.544C139.657 2.256 139.171 2.04 138.535 1.896C137.911 1.74 137.167 1.662 136.303 1.662ZM130.759 10.824H141.865V16.188H130.759V10.824ZM140.407 12.03H132.217V14.964H140.407V12.03ZM128.959 8.016H143.665V9.24H128.959V8.016Z" fill="#1D3557"/>
</svg>
