<svg width="36" height="36" viewBox="0 0 36 36" fill="none" xmlns="http://www.w3.org/2000/svg">
<g opacity="0.7" filter="url(#filter0_ddiiii_2062_963)">
<circle cx="18" cy="16" r="10" fill="#F9F9F9"/>
<circle cx="18" cy="16" r="10" fill="white" fill-opacity="0.01"/>
<circle cx="18" cy="16" r="9.5" stroke="#DBE4EC"/>
<circle cx="18" cy="16" r="9.5" stroke="white" stroke-opacity="0.01"/>
</g>
<path d="M15.4025 11.2727V20H14.3457V12.3807H14.2946L12.1639 13.7955V12.7216L14.3457 11.2727H15.4025ZM20.8191 20.1193C20.177 20.1193 19.6301 19.9446 19.1784 19.5952C18.7267 19.2429 18.3816 18.733 18.1429 18.0653C17.9043 17.3949 17.785 16.5852 17.785 15.6364C17.785 14.6932 17.9043 13.8878 18.1429 13.2202C18.3844 12.5497 18.731 12.0384 19.1827 11.6861C19.6372 11.331 20.1827 11.1534 20.8191 11.1534C21.4554 11.1534 21.9995 11.331 22.4512 11.6861C22.9057 12.0384 23.2523 12.5497 23.4909 13.2202C23.7324 13.8878 23.8532 14.6932 23.8532 15.6364C23.8532 16.5852 23.7338 17.3949 23.4952 18.0653C23.2566 18.733 22.9114 19.2429 22.4597 19.5952C22.008 19.9446 21.4611 20.1193 20.8191 20.1193ZM20.8191 19.1818C21.4554 19.1818 21.9497 18.875 22.302 18.2614C22.6543 17.6477 22.8304 16.7727 22.8304 15.6364C22.8304 14.8807 22.7495 14.2372 22.5875 13.706C22.4284 13.1747 22.1983 12.7699 21.8972 12.4915C21.5989 12.2131 21.2395 12.0739 20.8191 12.0739C20.1884 12.0739 19.6955 12.3849 19.3404 13.0071C18.9853 13.6264 18.8077 14.5028 18.8077 15.6364C18.8077 16.392 18.8872 17.0341 19.0463 17.5625C19.2054 18.0909 19.4341 18.4929 19.7324 18.7685C20.0336 19.044 20.3958 19.1818 20.8191 19.1818Z" fill="black"/>
<defs>
<filter id="filter0_ddiiii_2062_963" x="0" y="0" width="36" height="36" filterUnits="userSpaceOnUse" color-interpolation-filters="sRGB">
<feFlood flood-opacity="0" result="BackgroundImageFix"/>
<feColorMatrix in="SourceAlpha" type="matrix" values="0 0 0 0 0 0 0 0 0 0 0 0 0 0 0 0 0 0 127 0" result="hardAlpha"/>
<feOffset dy="2"/>
<feGaussianBlur stdDeviation="4"/>
<feComposite in2="hardAlpha" operator="out"/>
<feColorMatrix type="matrix" values="0 0 0 0 0 0 0 0 0 0 0 0 0 0 0 0 0 0 0.15 0"/>
<feBlend mode="normal" in2="BackgroundImageFix" result="effect1_dropShadow_2062_963"/>
<feColorMatrix in="SourceAlpha" type="matrix" values="0 0 0 0 0 0 0 0 0 0 0 0 0 0 0 0 0 0 127 0" result="hardAlpha"/>
<feOffset dy="8"/>
<feGaussianBlur stdDeviation="1"/>
<feComposite in2="hardAlpha" operator="out"/>
<feColorMatrix type="matrix" values="0 0 0 0 0 0 0 0 0 0 0 0 0 0 0 0 0 0 0.15 0"/>
<feBlend mode="normal" in2="effect1_dropShadow_2062_963" result="effect2_dropShadow_2062_963"/>
<feBlend mode="normal" in="SourceGraphic" in2="effect2_dropShadow_2062_963" result="shape"/>
<feColorMatrix in="SourceAlpha" type="matrix" values="0 0 0 0 0 0 0 0 0 0 0 0 0 0 0 0 0 0 127 0" result="hardAlpha"/>
<feOffset dy="5"/>
<feGaussianBlur stdDeviation="2"/>
<feComposite in2="hardAlpha" operator="arithmetic" k2="-1" k3="1"/>
<feColorMatrix type="matrix" values="0 0 0 0 0 0 0 0 0 0 0 0 0 0 0 0 0 0 0.15 0"/>
<feBlend mode="normal" in2="shape" result="effect3_innerShadow_2062_963"/>
<feColorMatrix in="SourceAlpha" type="matrix" values="0 0 0 0 0 0 0 0 0 0 0 0 0 0 0 0 0 0 127 0" result="hardAlpha"/>
<feOffset dy="4"/>
<feGaussianBlur stdDeviation="2.5"/>
<feComposite in2="hardAlpha" operator="arithmetic" k2="-1" k3="1"/>
<feColorMatrix type="matrix" values="0 0 0 0 0 0 0 0 0 0 0 0 0 0 0 0 0 0 0.25 0"/>
<feBlend mode="normal" in2="effect3_innerShadow_2062_963" result="effect4_innerShadow_2062_963"/>
<feColorMatrix in="SourceAlpha" type="matrix" values="0 0 0 0 0 0 0 0 0 0 0 0 0 0 0 0 0 0 127 0" result="hardAlpha"/>
<feOffset dy="4"/>
<feGaussianBlur stdDeviation="2"/>
<feComposite in2="hardAlpha" operator="arithmetic" k2="-1" k3="1"/>
<feColorMatrix type="matrix" values="0 0 0 0 0 0 0 0 0 0 0 0 0 0 0 0 0 0 0.25 0"/>
<feBlend mode="normal" in2="effect4_innerShadow_2062_963" result="effect5_innerShadow_2062_963"/>
<feColorMatrix in="SourceAlpha" type="matrix" values="0 0 0 0 0 0 0 0 0 0 0 0 0 0 0 0 0 0 127 0" result="hardAlpha"/>
<feMorphology radius="8" operator="erode" in="SourceAlpha" result="effect6_innerShadow_2062_963"/>
<feOffset dx="-3" dy="-3"/>
<feGaussianBlur stdDeviation="4"/>
<feComposite in2="hardAlpha" operator="arithmetic" k2="-1" k3="1"/>
<feColorMatrix type="matrix" values="0 0 0 0 1 0 0 0 0 1 0 0 0 0 1 0 0 0 0.4 0"/>
<feBlend mode="normal" in2="effect5_innerShadow_2062_963" result="effect6_innerShadow_2062_963"/>
</filter>
</defs>
</svg>
