<svg width="48" height="52" viewBox="0 0 48 52" fill="none" xmlns="http://www.w3.org/2000/svg">
<g style="mix-blend-mode:hard-light" opacity="0.5" filter="url(#filter0_ddddiiii_2062_966)">
<circle cx="24" cy="22" r="16" fill="#5087D0"/>
<circle cx="24" cy="22" r="16" fill="#FCFFFF" fill-opacity="0.01"/>
<circle cx="24" cy="22" r="15.5" stroke="#6CA5DD"/>
<circle cx="24" cy="22" r="15.5" stroke="#F8F8F8" stroke-opacity="0.0115"/>
</g>
<path d="M18.8779 14.821C18.0342 14.821 17.2821 14.9659 16.6215 15.2557C15.9653 15.5455 15.4433 15.9482 15.0555 16.4638C14.672 16.9837 14.4632 17.5866 14.4291 18.2727H16.0399C16.074 17.8509 16.2188 17.4865 16.4745 17.1797C16.7302 16.8771 17.0647 16.6428 17.4781 16.4766C17.8914 16.3104 18.3495 16.2273 18.8524 16.2273C19.4149 16.2273 19.9135 16.3253 20.3481 16.5213C20.7828 16.7173 21.1237 16.9901 21.3708 17.3395C21.618 17.6889 21.7416 18.0938 21.7416 18.554C21.7416 19.0355 21.6223 19.4595 21.3836 19.826C21.145 20.1967 20.7956 20.4865 20.3353 20.6953C19.8751 20.9041 19.3126 21.0085 18.6478 21.0085H17.5995V22.4148H18.6478C19.1677 22.4148 19.6237 22.5085 20.0157 22.696C20.412 22.8835 20.721 23.1477 20.9426 23.4886C21.1684 23.8295 21.2813 24.2301 21.2813 24.6903C21.2813 25.1335 21.1833 25.5192 20.9873 25.8473C20.7913 26.1754 20.5143 26.4311 20.1563 26.6143C19.8027 26.7976 19.385 26.8892 18.9035 26.8892C18.4518 26.8892 18.0257 26.8061 17.6251 26.6399C17.2288 26.478 16.9049 26.2415 16.6535 25.9304C16.4021 25.6236 16.2657 25.2528 16.2444 24.8182H14.7103C14.7359 25.5043 14.9426 26.1051 15.3304 26.6207C15.7181 27.1406 16.2252 27.5455 16.8517 27.8352C17.4823 28.125 18.1748 28.2699 18.9291 28.2699C19.7387 28.2699 20.4333 28.1058 21.0129 27.7777C21.5924 27.4538 22.0377 27.0256 22.3488 26.4929C22.6599 25.9602 22.8154 25.3849 22.8154 24.767C22.8154 24.0298 22.6215 23.4013 22.2338 22.8814C21.8502 22.3615 21.3282 22.0014 20.6677 21.8011V21.6989C21.4944 21.5625 22.14 21.2109 22.6045 20.6442C23.069 20.0817 23.3012 19.3849 23.3012 18.554C23.3012 17.8423 23.1073 17.2031 22.7196 16.6364C22.336 16.0739 21.8119 15.6307 21.1471 15.3068C20.4823 14.983 19.726 14.821 18.8779 14.821ZM30.2755 14.821C29.3124 14.821 28.4921 15.0831 27.8145 15.6072C27.137 16.1357 26.6192 16.9006 26.2613 17.902C25.9033 18.9077 25.7243 20.1222 25.7243 21.5455C25.7243 22.9602 25.9033 24.1683 26.2613 25.1697C26.6235 26.1754 27.1434 26.9425 27.8209 27.4709C28.5027 28.0036 29.3209 28.2699 30.2755 28.2699C31.23 28.2699 32.0461 28.0036 32.7236 27.4709C33.4054 26.9425 33.9253 26.1754 34.2833 25.1697C34.6455 24.1683 34.8266 22.9602 34.8266 21.5455C34.8266 20.1222 34.6476 18.9077 34.2897 17.902C33.9317 16.9006 33.414 16.1357 32.7364 15.6072C32.0588 15.0831 31.2385 14.821 30.2755 14.821ZM30.2755 16.2273C31.23 16.2273 31.9715 16.6875 32.4999 17.608C33.0283 18.5284 33.2925 19.8409 33.2925 21.5455C33.2925 22.679 33.1711 23.6442 32.9282 24.4411C32.6895 25.2379 32.3444 25.8452 31.8927 26.2628C31.4452 26.6804 30.9062 26.8892 30.2755 26.8892C29.3294 26.8892 28.5901 26.4226 28.0574 25.4893C27.5248 24.5604 27.2584 23.2457 27.2584 21.5455C27.2584 20.4119 27.3777 19.4489 27.6164 18.6562C27.855 17.8636 28.1981 17.2607 28.6455 16.8473C29.0972 16.4339 29.6405 16.2273 30.2755 16.2273Z" fill="black"/>
<defs>
<filter id="filter0_ddddiiii_2062_966" x="0" y="0" width="48" height="52" filterUnits="userSpaceOnUse" color-interpolation-filters="sRGB">
<feFlood flood-opacity="0" result="BackgroundImageFix"/>
<feColorMatrix in="SourceAlpha" type="matrix" values="0 0 0 0 0 0 0 0 0 0 0 0 0 0 0 0 0 0 127 0" result="hardAlpha"/>
<feOffset dy="2"/>
<feGaussianBlur stdDeviation="4"/>
<feComposite in2="hardAlpha" operator="out"/>
<feColorMatrix type="matrix" values="0 0 0 0 0 0 0 0 0 0 0 0 0 0 0 0 0 0 0.15 0"/>
<feBlend mode="normal" in2="BackgroundImageFix" result="effect1_dropShadow_2062_966"/>
<feColorMatrix in="SourceAlpha" type="matrix" values="0 0 0 0 0 0 0 0 0 0 0 0 0 0 0 0 0 0 127 0" result="hardAlpha"/>
<feOffset dy="8"/>
<feGaussianBlur stdDeviation="1"/>
<feComposite in2="hardAlpha" operator="out"/>
<feColorMatrix type="matrix" values="0 0 0 0 0 0 0 0 0 0 0 0 0 0 0 0 0 0 0.15 0"/>
<feBlend mode="normal" in2="effect1_dropShadow_2062_966" result="effect2_dropShadow_2062_966"/>
<feColorMatrix in="SourceAlpha" type="matrix" values="0 0 0 0 0 0 0 0 0 0 0 0 0 0 0 0 0 0 127 0" result="hardAlpha"/>
<feOffset dy="10"/>
<feGaussianBlur stdDeviation="2"/>
<feComposite in2="hardAlpha" operator="out"/>
<feColorMatrix type="matrix" values="0 0 0 0 0 0 0 0 0 0 0 0 0 0 0 0 0 0 0.25 0"/>
<feBlend mode="normal" in2="effect2_dropShadow_2062_966" result="effect3_dropShadow_2062_966"/>
<feColorMatrix in="SourceAlpha" type="matrix" values="0 0 0 0 0 0 0 0 0 0 0 0 0 0 0 0 0 0 127 0" result="hardAlpha"/>
<feOffset dy="4"/>
<feGaussianBlur stdDeviation="2"/>
<feComposite in2="hardAlpha" operator="out"/>
<feColorMatrix type="matrix" values="0 0 0 0 0 0 0 0 0 0 0 0 0 0 0 0 0 0 0.25 0"/>
<feBlend mode="normal" in2="effect3_dropShadow_2062_966" result="effect4_dropShadow_2062_966"/>
<feBlend mode="normal" in="SourceGraphic" in2="effect4_dropShadow_2062_966" result="shape"/>
<feColorMatrix in="SourceAlpha" type="matrix" values="0 0 0 0 0 0 0 0 0 0 0 0 0 0 0 0 0 0 127 0" result="hardAlpha"/>
<feOffset dy="5"/>
<feGaussianBlur stdDeviation="2.5"/>
<feComposite in2="hardAlpha" operator="arithmetic" k2="-1" k3="1"/>
<feColorMatrix type="matrix" values="0 0 0 0 0 0 0 0 0 0 0 0 0 0 0 0 0 0 0.25 0"/>
<feBlend mode="normal" in2="shape" result="effect5_innerShadow_2062_966"/>
<feColorMatrix in="SourceAlpha" type="matrix" values="0 0 0 0 0 0 0 0 0 0 0 0 0 0 0 0 0 0 127 0" result="hardAlpha"/>
<feOffset dy="5"/>
<feGaussianBlur stdDeviation="2.5"/>
<feComposite in2="hardAlpha" operator="arithmetic" k2="-1" k3="1"/>
<feColorMatrix type="matrix" values="0 0 0 0 0 0 0 0 0 0 0 0 0 0 0 0 0 0 0.25 0"/>
<feBlend mode="normal" in2="effect5_innerShadow_2062_966" result="effect6_innerShadow_2062_966"/>
<feColorMatrix in="SourceAlpha" type="matrix" values="0 0 0 0 0 0 0 0 0 0 0 0 0 0 0 0 0 0 127 0" result="hardAlpha"/>
<feOffset dy="5"/>
<feGaussianBlur stdDeviation="2"/>
<feComposite in2="hardAlpha" operator="arithmetic" k2="-1" k3="1"/>
<feColorMatrix type="matrix" values="0 0 0 0 0 0 0 0 0 0 0 0 0 0 0 0 0 0 0.25 0"/>
<feBlend mode="normal" in2="effect6_innerShadow_2062_966" result="effect7_innerShadow_2062_966"/>
<feColorMatrix in="SourceAlpha" type="matrix" values="0 0 0 0 0 0 0 0 0 0 0 0 0 0 0 0 0 0 127 0" result="hardAlpha"/>
<feOffset dx="-3" dy="-3"/>
<feGaussianBlur stdDeviation="4"/>
<feComposite in2="hardAlpha" operator="arithmetic" k2="-1" k3="1"/>
<feColorMatrix type="matrix" values="0 0 0 0 1 0 0 0 0 1 0 0 0 0 1 0 0 0 0.4 0"/>
<feBlend mode="normal" in2="effect7_innerShadow_2062_966" result="effect8_innerShadow_2062_966"/>
</filter>
</defs>
</svg>
