<svg width="98" height="38" viewBox="0 0 98 38" fill="none" xmlns="http://www.w3.org/2000/svg">
<g filter="url(#filter0_di_2062_1003)">
<path d="M19 0.5H79C87.0081 0.5 93.5 6.99187 93.5 15C93.5 23.0081 87.0081 29.5 79 29.5H19C10.9919 29.5 4.5 23.0081 4.5 15C4.5 6.99187 10.9919 0.5 19 0.5Z" fill="#DCE6F1" fill-opacity="0.4" stroke="#BFD0DB"/>
<mask id="path-2-outside-1_2062_1003" maskUnits="userSpaceOnUse" x="24" y="8" width="51" height="15" fill="black">
<rect fill="white" x="24" y="8" width="51" height="15"/>
<path d="M25.5628 21V9.36364H32.7787V10.875H27.3185V14.4205H32.2616V15.9261H27.3185V21H25.5628ZM39.863 17.3807V12.2727H41.5675V21H39.897V19.4886H39.8061C39.6054 19.9545 39.2834 20.3428 38.8402 20.6534C38.4008 20.9602 37.8535 21.1136 37.1982 21.1136C36.6376 21.1136 36.1414 20.9905 35.7095 20.7443C35.2815 20.4943 34.9444 20.125 34.6982 19.6364C34.4558 19.1477 34.3345 18.5436 34.3345 17.8239V12.2727H36.0334V17.6193C36.0334 18.214 36.1982 18.6875 36.5277 19.0398C36.8573 19.392 37.2853 19.5682 37.8118 19.5682C38.13 19.5682 38.4463 19.4886 38.7607 19.3295C39.0789 19.1705 39.3421 18.9299 39.5505 18.608C39.7626 18.286 39.8667 17.8769 39.863 17.3807ZM48.004 12.2727V13.6364H43.237V12.2727H48.004ZM44.5154 10.1818H46.2143V18.4375C46.2143 18.767 46.2635 19.0152 46.362 19.1818C46.4605 19.3447 46.5874 19.4564 46.7427 19.517C46.9018 19.5739 47.0741 19.6023 47.2597 19.6023C47.3961 19.6023 47.5154 19.5928 47.6177 19.5739C47.7199 19.5549 47.7995 19.5398 47.8563 19.5284L48.1631 20.9318C48.0646 20.9697 47.9245 21.0076 47.7427 21.0455C47.5609 21.0871 47.3336 21.1098 47.0609 21.1136C46.6139 21.1212 46.1972 21.0417 45.8109 20.875C45.4245 20.7083 45.112 20.4508 44.8734 20.1023C44.6347 19.7538 44.5154 19.3163 44.5154 18.7898V10.1818ZM55.4917 17.3807V12.2727H57.1962V21H55.5258V19.4886H55.4349C55.2341 19.9545 54.9122 20.3428 54.469 20.6534C54.0296 20.9602 53.4822 21.1136 52.8269 21.1136C52.2663 21.1136 51.7701 20.9905 51.3383 20.7443C50.9103 20.4943 50.5731 20.125 50.3269 19.6364C50.0845 19.1477 49.9633 18.5436 49.9633 17.8239V12.2727H51.6622V17.6193C51.6622 18.214 51.8269 18.6875 52.1565 19.0398C52.486 19.392 52.9141 19.5682 53.4406 19.5682C53.7587 19.5682 54.075 19.4886 54.3894 19.3295C54.7076 19.1705 54.9709 18.9299 55.1792 18.608C55.3913 18.286 55.4955 17.8769 55.4917 17.3807ZM59.5589 21V12.2727H61.201V13.6591H61.2919C61.451 13.1894 61.7313 12.8201 62.1328 12.5511C62.5381 12.2784 62.9964 12.142 63.5078 12.142C63.6138 12.142 63.7388 12.1458 63.8828 12.1534C64.0305 12.161 64.146 12.1705 64.2294 12.1818V13.8068C64.1612 13.7879 64.04 13.767 63.8657 13.7443C63.6915 13.7178 63.5173 13.7045 63.343 13.7045C62.9415 13.7045 62.5835 13.7898 62.2691 13.9602C61.9585 14.1269 61.7123 14.3598 61.5305 14.6591C61.3487 14.9545 61.2578 15.2917 61.2578 15.6705V21H59.5589ZM69.2284 21.1761C68.3686 21.1761 67.628 20.9924 67.0068 20.625C66.3894 20.2538 65.9121 19.733 65.575 19.0625C65.2417 18.3883 65.075 17.5985 65.075 16.6932C65.075 15.7992 65.2417 15.0114 65.575 14.3295C65.9121 13.6477 66.3818 13.1155 66.9841 12.733C67.5902 12.3504 68.2985 12.1591 69.1091 12.1591C69.6015 12.1591 70.0788 12.2405 70.5409 12.4034C71.003 12.5663 71.4178 12.822 71.7852 13.1705C72.1527 13.5189 72.4424 13.9716 72.6545 14.5284C72.8667 15.0814 72.9727 15.7538 72.9727 16.5455V17.1477H66.0352V15.875H71.308C71.308 15.428 71.217 15.0322 71.0352 14.6875C70.8534 14.339 70.5977 14.0644 70.2682 13.8636C69.9424 13.6629 69.5598 13.5625 69.1205 13.5625C68.6432 13.5625 68.2265 13.6799 67.8705 13.9148C67.5182 14.1458 67.2455 14.4489 67.0523 14.8239C66.8629 15.1951 66.7682 15.5985 66.7682 16.0341V17.0284C66.7682 17.6117 66.8705 18.108 67.075 18.517C67.2833 18.9261 67.5731 19.2386 67.9443 19.4545C68.3155 19.6667 68.7492 19.7727 69.2455 19.7727C69.5674 19.7727 69.861 19.7273 70.1261 19.6364C70.3913 19.5417 70.6205 19.4015 70.8136 19.2159C71.0068 19.0303 71.1545 18.8011 71.2568 18.5284L72.8648 18.8182C72.736 19.2917 72.5049 19.7064 72.1716 20.0625C71.842 20.4148 71.4273 20.6894 70.9273 20.8864C70.4311 21.0795 69.8648 21.1761 69.2284 21.1761Z"/>
</mask>
<path d="M25.5628 21V9.36364H32.7787V10.875H27.3185V14.4205H32.2616V15.9261H27.3185V21H25.5628ZM39.863 17.3807V12.2727H41.5675V21H39.897V19.4886H39.8061C39.6054 19.9545 39.2834 20.3428 38.8402 20.6534C38.4008 20.9602 37.8535 21.1136 37.1982 21.1136C36.6376 21.1136 36.1414 20.9905 35.7095 20.7443C35.2815 20.4943 34.9444 20.125 34.6982 19.6364C34.4558 19.1477 34.3345 18.5436 34.3345 17.8239V12.2727H36.0334V17.6193C36.0334 18.214 36.1982 18.6875 36.5277 19.0398C36.8573 19.392 37.2853 19.5682 37.8118 19.5682C38.13 19.5682 38.4463 19.4886 38.7607 19.3295C39.0789 19.1705 39.3421 18.9299 39.5505 18.608C39.7626 18.286 39.8667 17.8769 39.863 17.3807ZM48.004 12.2727V13.6364H43.237V12.2727H48.004ZM44.5154 10.1818H46.2143V18.4375C46.2143 18.767 46.2635 19.0152 46.362 19.1818C46.4605 19.3447 46.5874 19.4564 46.7427 19.517C46.9018 19.5739 47.0741 19.6023 47.2597 19.6023C47.3961 19.6023 47.5154 19.5928 47.6177 19.5739C47.7199 19.5549 47.7995 19.5398 47.8563 19.5284L48.1631 20.9318C48.0646 20.9697 47.9245 21.0076 47.7427 21.0455C47.5609 21.0871 47.3336 21.1098 47.0609 21.1136C46.6139 21.1212 46.1972 21.0417 45.8109 20.875C45.4245 20.7083 45.112 20.4508 44.8734 20.1023C44.6347 19.7538 44.5154 19.3163 44.5154 18.7898V10.1818ZM55.4917 17.3807V12.2727H57.1962V21H55.5258V19.4886H55.4349C55.2341 19.9545 54.9122 20.3428 54.469 20.6534C54.0296 20.9602 53.4822 21.1136 52.8269 21.1136C52.2663 21.1136 51.7701 20.9905 51.3383 20.7443C50.9103 20.4943 50.5731 20.125 50.3269 19.6364C50.0845 19.1477 49.9633 18.5436 49.9633 17.8239V12.2727H51.6622V17.6193C51.6622 18.214 51.8269 18.6875 52.1565 19.0398C52.486 19.392 52.9141 19.5682 53.4406 19.5682C53.7587 19.5682 54.075 19.4886 54.3894 19.3295C54.7076 19.1705 54.9709 18.9299 55.1792 18.608C55.3913 18.286 55.4955 17.8769 55.4917 17.3807ZM59.5589 21V12.2727H61.201V13.6591H61.2919C61.451 13.1894 61.7313 12.8201 62.1328 12.5511C62.5381 12.2784 62.9964 12.142 63.5078 12.142C63.6138 12.142 63.7388 12.1458 63.8828 12.1534C64.0305 12.161 64.146 12.1705 64.2294 12.1818V13.8068C64.1612 13.7879 64.04 13.767 63.8657 13.7443C63.6915 13.7178 63.5173 13.7045 63.343 13.7045C62.9415 13.7045 62.5835 13.7898 62.2691 13.9602C61.9585 14.1269 61.7123 14.3598 61.5305 14.6591C61.3487 14.9545 61.2578 15.2917 61.2578 15.6705V21H59.5589ZM69.2284 21.1761C68.3686 21.1761 67.628 20.9924 67.0068 20.625C66.3894 20.2538 65.9121 19.733 65.575 19.0625C65.2417 18.3883 65.075 17.5985 65.075 16.6932C65.075 15.7992 65.2417 15.0114 65.575 14.3295C65.9121 13.6477 66.3818 13.1155 66.9841 12.733C67.5902 12.3504 68.2985 12.1591 69.1091 12.1591C69.6015 12.1591 70.0788 12.2405 70.5409 12.4034C71.003 12.5663 71.4178 12.822 71.7852 13.1705C72.1527 13.5189 72.4424 13.9716 72.6545 14.5284C72.8667 15.0814 72.9727 15.7538 72.9727 16.5455V17.1477H66.0352V15.875H71.308C71.308 15.428 71.217 15.0322 71.0352 14.6875C70.8534 14.339 70.5977 14.0644 70.2682 13.8636C69.9424 13.6629 69.5598 13.5625 69.1205 13.5625C68.6432 13.5625 68.2265 13.6799 67.8705 13.9148C67.5182 14.1458 67.2455 14.4489 67.0523 14.8239C66.8629 15.1951 66.7682 15.5985 66.7682 16.0341V17.0284C66.7682 17.6117 66.8705 18.108 67.075 18.517C67.2833 18.9261 67.5731 19.2386 67.9443 19.4545C68.3155 19.6667 68.7492 19.7727 69.2455 19.7727C69.5674 19.7727 69.861 19.7273 70.1261 19.6364C70.3913 19.5417 70.6205 19.4015 70.8136 19.2159C71.0068 19.0303 71.1545 18.8011 71.2568 18.5284L72.8648 18.8182C72.736 19.2917 72.5049 19.7064 72.1716 20.0625C71.842 20.4148 71.4273 20.6894 70.9273 20.8864C70.4311 21.0795 69.8648 21.1761 69.2284 21.1761Z" fill="#244F85"/>
<path d="M25.5628 21H24.5628V22H25.5628V21ZM25.5628 9.36364V8.36364H24.5628V9.36364H25.5628ZM32.7787 9.36364H33.7787V8.36364H32.7787V9.36364ZM32.7787 10.875V11.875H33.7787V10.875H32.7787ZM27.3185 10.875V9.875H26.3185V10.875H27.3185ZM27.3185 14.4205H26.3185V15.4205H27.3185V14.4205ZM32.2616 14.4205H33.2616V13.4205H32.2616V14.4205ZM32.2616 15.9261V16.9261H33.2616V15.9261H32.2616ZM27.3185 15.9261V14.9261H26.3185V15.9261H27.3185ZM27.3185 21V22H28.3185V21H27.3185ZM25.5628 21H26.5628V9.36364H25.5628H24.5628V21H25.5628ZM25.5628 9.36364V10.3636H32.7787V9.36364V8.36364H25.5628V9.36364ZM32.7787 9.36364H31.7787V10.875H32.7787H33.7787V9.36364H32.7787ZM32.7787 10.875V9.875H27.3185V10.875V11.875H32.7787V10.875ZM27.3185 10.875H26.3185V14.4205H27.3185H28.3185V10.875H27.3185ZM27.3185 14.4205V15.4205H32.2616V14.4205V13.4205H27.3185V14.4205ZM32.2616 14.4205H31.2616V15.9261H32.2616H33.2616V14.4205H32.2616ZM32.2616 15.9261V14.9261H27.3185V15.9261V16.9261H32.2616V15.9261ZM27.3185 15.9261H26.3185V21H27.3185H28.3185V15.9261H27.3185ZM27.3185 21V20H25.5628V21V22H27.3185V21ZM39.863 17.3807H38.8629L38.863 17.3883L39.863 17.3807ZM39.863 12.2727V11.2727H38.863V12.2727H39.863ZM41.5675 12.2727H42.5675V11.2727H41.5675V12.2727ZM41.5675 21V22H42.5675V21H41.5675ZM39.897 21H38.897V22H39.897V21ZM39.897 19.4886H40.897V18.4886H39.897V19.4886ZM39.8061 19.4886V18.4886H39.1481L38.8878 19.0929L39.8061 19.4886ZM38.8402 20.6534L39.4127 21.4733L39.4142 21.4723L38.8402 20.6534ZM35.7095 20.7443L35.2052 21.6079L35.2142 21.613L35.7095 20.7443ZM34.6982 19.6364L33.8024 20.0808L33.8051 20.0863L34.6982 19.6364ZM34.3345 12.2727V11.2727H33.3345V12.2727H34.3345ZM36.0334 12.2727H37.0334V11.2727H36.0334V12.2727ZM36.5277 19.0398L37.258 18.3566V18.3566L36.5277 19.0398ZM38.7607 19.3295L38.3135 18.4351L38.3092 18.4373L38.7607 19.3295ZM39.5505 18.608L38.7154 18.0578L38.7109 18.0647L39.5505 18.608ZM39.863 17.3807H40.863V12.2727H39.863H38.863V17.3807H39.863ZM39.863 12.2727V13.2727H41.5675V12.2727V11.2727H39.863V12.2727ZM41.5675 12.2727H40.5675V21H41.5675H42.5675V12.2727H41.5675ZM41.5675 21V20H39.897V21V22H41.5675V21ZM39.897 21H40.897V19.4886H39.897H38.897V21H39.897ZM39.897 19.4886V18.4886H39.8061V19.4886V20.4886H39.897V19.4886ZM39.8061 19.4886L38.8878 19.0929C38.7653 19.3771 38.5682 19.6229 38.2663 19.8345L38.8402 20.6534L39.4142 21.4723C39.9986 21.0627 40.4454 20.532 40.7245 19.8844L39.8061 19.4886ZM38.8402 20.6534L38.2677 19.8335C38.0305 19.9991 37.695 20.1136 37.1982 20.1136V21.1136V22.1136C38.012 22.1136 38.7711 21.9213 39.4127 21.4733L38.8402 20.6534ZM37.1982 21.1136V20.1136C36.7887 20.1136 36.4673 20.0252 36.2049 19.8756L35.7095 20.7443L35.2142 21.613C35.8154 21.9558 36.4865 22.1136 37.1982 22.1136V21.1136ZM35.7095 20.7443L36.2139 19.8808C35.9697 19.7382 35.7599 19.5211 35.5912 19.1864L34.6982 19.6364L33.8051 20.0863C34.1289 20.7289 34.5933 21.2504 35.2052 21.6078L35.7095 20.7443ZM34.6982 19.6364L35.594 19.1919C35.4384 18.8783 35.3345 18.4366 35.3345 17.8239H34.3345H33.3345C33.3345 18.6505 33.4731 19.4172 33.8024 20.0808L34.6982 19.6364ZM34.3345 17.8239H35.3345V12.2727H34.3345H33.3345V17.8239H34.3345ZM34.3345 12.2727V13.2727H36.0334V12.2727V11.2727H34.3345V12.2727ZM36.0334 12.2727H35.0334V17.6193H36.0334H37.0334V12.2727H36.0334ZM36.0334 17.6193H35.0334C35.0334 18.4057 35.2564 19.1446 35.7975 19.7229L36.5277 19.0398L37.258 18.3566C37.1399 18.2304 37.0334 18.0224 37.0334 17.6193H36.0334ZM36.5277 19.0398L35.7975 19.7229C36.3345 20.297 37.0367 20.5682 37.8118 20.5682V19.5682V18.5682C37.5339 18.5682 37.38 18.4871 37.258 18.3566L36.5277 19.0398ZM37.8118 19.5682V20.5682C38.3031 20.5682 38.7731 20.444 39.2122 20.2218L38.7607 19.3295L38.3092 18.4373C38.1195 18.5333 37.9569 18.5682 37.8118 18.5682V19.5682ZM38.7607 19.3295L39.2079 20.224C39.6983 19.9788 40.0925 19.6111 40.39 19.1512L39.5505 18.608L38.7109 18.0647C38.5918 18.2488 38.4594 18.3621 38.3135 18.4351L38.7607 19.3295ZM39.5505 18.608L40.3855 19.1581C40.7341 18.6291 40.8678 18.011 40.8629 17.373L39.863 17.3807L38.863 17.3883C38.8657 17.7428 38.7911 17.9429 38.7154 18.0578L39.5505 18.608ZM48.004 12.2727H49.004V11.2727H48.004V12.2727ZM48.004 13.6364V14.6364H49.004V13.6364H48.004ZM43.237 13.6364H42.237V14.6364H43.237V13.6364ZM43.237 12.2727V11.2727H42.237V12.2727H43.237ZM44.5154 10.1818V9.18182H43.5154V10.1818H44.5154ZM46.2143 10.1818H47.2143V9.18182H46.2143V10.1818ZM46.362 19.1818L45.501 19.6906L45.5063 19.6992L46.362 19.1818ZM46.7427 19.517L46.3791 20.4486L46.3927 20.4539L46.4063 20.4588L46.7427 19.517ZM47.6177 19.5739L47.7998 20.5571V20.5571L47.6177 19.5739ZM47.8563 19.5284L48.8332 19.3148L48.6234 18.3552L47.6602 18.5478L47.8563 19.5284ZM48.1631 20.9318L48.5221 21.8652L49.3234 21.557L49.14 20.7182L48.1631 20.9318ZM47.7427 21.0455L47.5387 20.0665L47.529 20.0685L47.5193 20.0707L47.7427 21.0455ZM47.0609 21.1136L47.047 20.1137L47.0439 20.1138L47.0609 21.1136ZM45.8109 20.875L45.4148 21.7932L45.8109 20.875ZM44.8734 20.1023L44.0483 20.6673L44.8734 20.1023ZM48.004 12.2727H47.004V13.6364H48.004H49.004V12.2727H48.004ZM48.004 13.6364V12.6364H43.237V13.6364V14.6364H48.004V13.6364ZM43.237 13.6364H44.237V12.2727H43.237H42.237V13.6364H43.237ZM43.237 12.2727V13.2727H48.004V12.2727V11.2727H43.237V12.2727ZM44.5154 10.1818V11.1818H46.2143V10.1818V9.18182H44.5154V10.1818ZM46.2143 10.1818H45.2143V18.4375H46.2143H47.2143V10.1818H46.2143ZM46.2143 18.4375H45.2143C45.2143 18.8353 45.2682 19.2964 45.5011 19.6905L46.362 19.1818L47.2229 18.6731C47.2456 18.7116 47.2411 18.7215 47.2321 18.6761C47.2233 18.632 47.2143 18.5554 47.2143 18.4375H46.2143ZM46.362 19.1818L45.5063 19.6992C45.7018 20.0226 45.9901 20.2968 46.3791 20.4486L46.7427 19.517L47.1062 18.5855C47.1391 18.5983 47.1689 18.617 47.1919 18.6373C47.2138 18.6566 47.2208 18.6695 47.2177 18.6644L46.362 19.1818ZM46.7427 19.517L46.4063 20.4588C46.6835 20.5578 46.9708 20.6023 47.2597 20.6023V19.6023V18.6023C47.1775 18.6023 47.12 18.5899 47.079 18.5753L46.7427 19.517ZM47.2597 19.6023V20.6023C47.4395 20.6023 47.6223 20.59 47.7998 20.5571L47.6177 19.5739L47.4356 18.5906C47.4085 18.5956 47.3527 18.6023 47.2597 18.6023V19.6023ZM47.6177 19.5739L47.7998 20.5571C47.9037 20.5379 47.9887 20.5217 48.0524 20.509L47.8563 19.5284L47.6602 18.5478C47.6103 18.5578 47.5362 18.5719 47.4356 18.5906L47.6177 19.5739ZM47.8563 19.5284L46.8794 19.742L47.1862 21.1454L48.1631 20.9318L49.14 20.7182L48.8332 19.3148L47.8563 19.5284ZM48.1631 20.9318L47.8041 19.9985C47.78 20.0077 47.701 20.0327 47.5387 20.0665L47.7427 21.0455L47.9466 22.0244C48.148 21.9825 48.3492 21.9317 48.5221 21.8652L48.1631 20.9318ZM47.7427 21.0455L47.5193 20.0707C47.4298 20.0912 47.2784 20.1105 47.047 20.1137L47.0609 21.1136L47.0747 22.1135C47.3888 22.1092 47.6919 22.083 47.966 22.0202L47.7427 21.0455ZM47.0609 21.1136L47.0439 20.1138C46.7298 20.1191 46.4549 20.0638 46.2069 19.9568L45.8109 20.875L45.4148 21.7932C45.9395 22.0196 46.4979 22.1233 47.0778 22.1135L47.0609 21.1136ZM45.8109 20.875L46.2069 19.9568C45.9948 19.8653 45.8307 19.7305 45.6984 19.5373L44.8734 20.1023L44.0483 20.6673C44.3932 21.171 44.8542 21.5514 45.4148 21.7932L45.8109 20.875ZM44.8734 20.1023L45.6984 19.5373C45.5991 19.3921 45.5154 19.1646 45.5154 18.7898H44.5154H43.5154C43.5154 19.4679 43.6704 20.1154 44.0483 20.6673L44.8734 20.1023ZM44.5154 18.7898H45.5154V10.1818H44.5154H43.5154V18.7898H44.5154ZM55.4917 17.3807H54.4917L54.4917 17.3883L55.4917 17.3807ZM55.4917 12.2727V11.2727H54.4917V12.2727H55.4917ZM57.1963 12.2727H58.1963V11.2727H57.1963V12.2727ZM57.1963 21V22H58.1963V21H57.1963ZM55.5258 21H54.5258V22H55.5258V21ZM55.5258 19.4886H56.5258V18.4886H55.5258V19.4886ZM55.4349 19.4886V18.4886H54.7769L54.5165 19.0929L55.4349 19.4886ZM54.469 20.6534L55.0415 21.4733L55.0429 21.4723L54.469 20.6534ZM51.3383 20.7443L50.8339 21.6079L50.843 21.613L51.3383 20.7443ZM50.3269 19.6364L49.4311 20.0808L49.4339 20.0863L50.3269 19.6364ZM49.9633 12.2727V11.2727H48.9633V12.2727H49.9633ZM51.6622 12.2727H52.6622V11.2727H51.6622V12.2727ZM52.1565 19.0398L52.8867 18.3566V18.3566L52.1565 19.0398ZM54.3894 19.3295L53.9422 18.4351L53.9379 18.4373L54.3894 19.3295ZM55.1792 18.608L54.3441 18.0578L54.3396 18.0647L55.1792 18.608ZM55.4917 17.3807H56.4917V12.2727H55.4917H54.4917V17.3807H55.4917ZM55.4917 12.2727V13.2727H57.1963V12.2727V11.2727H55.4917V12.2727ZM57.1963 12.2727H56.1963V21H57.1963H58.1963V12.2727H57.1963ZM57.1963 21V20H55.5258V21V22H57.1963V21ZM55.5258 21H56.5258V19.4886H55.5258H54.5258V21H55.5258ZM55.5258 19.4886V18.4886H55.4349V19.4886V20.4886H55.5258V19.4886ZM55.4349 19.4886L54.5165 19.0929C54.3941 19.3771 54.197 19.6229 53.895 19.8345L54.469 20.6534L55.0429 21.4723C55.6273 21.0627 56.0742 20.532 56.3533 19.8844L55.4349 19.4886ZM54.469 20.6534L53.8965 19.8335C53.6593 19.9991 53.3237 20.1136 52.8269 20.1136V21.1136V22.1136C53.6408 22.1136 54.3999 21.9213 55.0415 21.4733L54.469 20.6534ZM52.8269 21.1136V20.1136C52.4174 20.1136 52.096 20.0252 51.8336 19.8756L51.3383 20.7443L50.843 21.613C51.4442 21.9558 52.1152 22.1136 52.8269 22.1136V21.1136ZM51.3383 20.7443L51.8426 19.8808C51.5985 19.7382 51.3886 19.5211 51.22 19.1864L50.3269 19.6364L49.4339 20.0863C49.7577 20.7289 50.222 21.2504 50.8339 21.6078L51.3383 20.7443ZM50.3269 19.6364L51.2227 19.1919C51.0671 18.8783 50.9633 18.4366 50.9633 17.8239H49.9633H48.9633C48.9633 18.6505 49.1019 19.4172 49.4311 20.0808L50.3269 19.6364ZM49.9633 17.8239H50.9633V12.2727H49.9633H48.9633V17.8239H49.9633ZM49.9633 12.2727V13.2727H51.6622V12.2727V11.2727H49.9633V12.2727ZM51.6622 12.2727H50.6622V17.6193H51.6622H52.6622V12.2727H51.6622ZM51.6622 17.6193H50.6622C50.6622 18.4057 50.8852 19.1446 51.4262 19.7229L52.1565 19.0398L52.8867 18.3566C52.7687 18.2304 52.6622 18.0224 52.6622 17.6193H51.6622ZM52.1565 19.0398L51.4262 19.7229C51.9633 20.297 52.6654 20.5682 53.4406 20.5682V19.5682V18.5682C53.1627 18.5682 53.0088 18.4871 52.8867 18.3566L52.1565 19.0398ZM53.4406 19.5682V20.5682C53.9319 20.5682 54.4018 20.444 54.8409 20.2218L54.3894 19.3295L53.9379 18.4373C53.7482 18.5333 53.5856 18.5682 53.4406 18.5682V19.5682ZM54.3894 19.3295L54.8366 20.224C55.3271 19.9788 55.7212 19.6111 56.0188 19.1512L55.1792 18.608L54.3396 18.0647C54.2205 18.2488 54.0882 18.3621 53.9422 18.4351L54.3894 19.3295ZM55.1792 18.608L56.0143 19.1581C56.3628 18.6291 56.4965 18.011 56.4917 17.373L55.4917 17.3807L54.4917 17.3883C54.4944 17.7428 54.4198 17.9429 54.3441 18.0578L55.1792 18.608ZM59.5589 21H58.5589V22H59.5589V21ZM59.5589 12.2727V11.2727H58.5589V12.2727H59.5589ZM61.201 12.2727H62.201V11.2727H61.201V12.2727ZM61.201 13.6591H60.201V14.6591H61.201V13.6591ZM61.2919 13.6591V14.6591H62.009L62.239 13.9799L61.2919 13.6591ZM62.1328 12.5511L62.6893 13.382L62.6911 13.3808L62.1328 12.5511ZM63.8828 12.1534L63.8302 13.152L63.8316 13.1521L63.8828 12.1534ZM64.2294 12.1818H65.2294V11.3089L64.3645 11.191L64.2294 12.1818ZM64.2294 13.8068L63.9617 14.7703L65.2294 15.1225V13.8068H64.2294ZM63.8657 13.7443L63.7153 14.7329L63.7258 14.7345L63.7364 14.7359L63.8657 13.7443ZM62.2691 13.9602L62.742 14.8414L62.7458 14.8393L62.2691 13.9602ZM61.5305 14.6591L62.3822 15.1832L62.3851 15.1784L61.5305 14.6591ZM61.2578 21V22H62.2578V21H61.2578ZM59.5589 21H60.5589V12.2727H59.5589H58.5589V21H59.5589ZM59.5589 12.2727V13.2727H61.201V12.2727V11.2727H59.5589V12.2727ZM61.201 12.2727H60.201V13.6591H61.201H62.201V12.2727H61.201ZM61.201 13.6591V14.6591H61.2919V13.6591V12.6591H61.201V13.6591ZM61.2919 13.6591L62.239 13.9799C62.3295 13.7127 62.4756 13.5251 62.6893 13.382L62.1328 12.5511L61.5763 11.7203C60.9869 12.1151 60.5724 12.6661 60.3447 13.3383L61.2919 13.6591ZM62.1328 12.5511L62.6911 13.3808C62.9234 13.2245 63.1855 13.142 63.5078 13.142V12.142V11.142C62.8074 11.142 62.1528 11.3324 61.5745 11.7215L62.1328 12.5511ZM63.5078 12.142V13.142C63.5914 13.142 63.6981 13.1451 63.8302 13.152L63.8828 12.1534L63.9353 11.1548C63.7796 11.1466 63.6363 11.142 63.5078 11.142V12.142ZM63.8828 12.1534L63.8316 13.1521C63.9688 13.1591 64.052 13.1669 64.0943 13.1726L64.2294 12.1818L64.3645 11.191C64.2401 11.174 64.0922 11.1628 63.934 11.1547L63.8828 12.1534ZM64.2294 12.1818H63.2294V13.8068H64.2294H65.2294V12.1818H64.2294ZM64.2294 13.8068L64.497 12.8433C64.3529 12.8033 64.1676 12.7752 63.9951 12.7527L63.8657 13.7443L63.7364 14.7359C63.8153 14.7462 63.8749 14.7551 63.9179 14.7625C63.9657 14.7708 63.9751 14.7741 63.9617 14.7703L64.2294 13.8068ZM63.8657 13.7443L64.0162 12.7557C63.7927 12.7217 63.5682 12.7045 63.343 12.7045V13.7045V14.7045C63.4663 14.7045 63.5903 14.7139 63.7153 14.7329L63.8657 13.7443ZM63.343 13.7045V12.7045C62.7958 12.7045 62.2705 12.822 61.7925 13.0811L62.2691 13.9602L62.7458 14.8393C62.8966 14.7576 63.0872 14.7045 63.343 14.7045V13.7045ZM62.2691 13.9602L61.7963 13.0791C61.3296 13.3295 60.951 13.687 60.6759 14.1398L61.5305 14.6591L62.3851 15.1784C62.4736 15.0327 62.5875 14.9243 62.742 14.8414L62.2691 13.9602ZM61.5305 14.6591L60.6789 14.135C60.3912 14.6024 60.2578 15.1242 60.2578 15.6705H61.2578H62.2578C62.2578 15.4591 62.3062 15.3067 62.3822 15.1832L61.5305 14.6591ZM61.2578 15.6705H60.2578V21H61.2578H62.2578V15.6705H61.2578ZM61.2578 21V20H59.5589V21V22H61.2578V21ZM67.0068 20.625L66.4915 21.4821L66.4977 21.4857L67.0068 20.625ZM65.575 19.0625L64.6785 19.5057L64.6816 19.5117L65.575 19.0625ZM65.575 14.3295L64.6786 13.8863L64.6766 13.8903L65.575 14.3295ZM66.9841 12.733L66.4503 11.8873L66.4479 11.8889L66.9841 12.733ZM70.5409 12.4034L70.8733 11.4603V11.4603L70.5409 12.4034ZM71.7852 13.1705L71.0971 13.896V13.896L71.7852 13.1705ZM72.6545 14.5284L71.7201 14.8844L71.7209 14.8865L72.6545 14.5284ZM72.9727 17.1477V18.1477H73.9727V17.1477H72.9727ZM66.0352 17.1477H65.0352V18.1477H66.0352V17.1477ZM66.0352 15.875V14.875H65.0352V15.875H66.0352ZM71.308 15.875V16.875H72.308V15.875H71.308ZM71.0352 14.6875L70.1486 15.1501L70.1507 15.154L71.0352 14.6875ZM70.2682 13.8636L69.7435 14.715L69.7479 14.7176L70.2682 13.8636ZM67.8705 13.9148L68.4189 14.751L68.4211 14.7495L67.8705 13.9148ZM67.0523 14.8239L66.1633 14.3659L66.1615 14.3694L67.0523 14.8239ZM67.075 18.517L66.1805 18.9643L66.1839 18.9708L67.075 18.517ZM67.9443 19.4545L67.4415 20.319L67.4482 20.3228L67.9443 19.4545ZM70.1261 19.6364L70.4505 20.5824L70.4625 20.5781L70.1261 19.6364ZM70.8136 19.2159L70.1208 18.4948V18.4948L70.8136 19.2159ZM71.2568 18.5284L71.4342 17.5443L70.6133 17.3963L70.3205 18.1773L71.2568 18.5284ZM72.8648 18.8182L73.8297 19.0806L74.1161 18.0276L73.0421 17.834L72.8648 18.8182ZM72.1716 20.0625L71.4416 19.3791L71.4413 19.3793L72.1716 20.0625ZM70.9273 20.8864L71.2901 21.8182L71.2938 21.8168L70.9273 20.8864ZM69.2284 21.1761V20.1761C68.5132 20.1761 67.9558 20.0245 67.5159 19.7643L67.0068 20.625L66.4977 21.4857C67.3003 21.9604 68.2239 22.1761 69.2284 22.1761V21.1761ZM67.0068 20.625L67.5221 19.768C67.0737 19.4984 66.7243 19.1222 66.4684 18.6133L65.575 19.0625L64.6816 19.5117C65.0999 20.3437 65.7051 21.0092 66.4916 21.482L67.0068 20.625ZM65.575 19.0625L66.4714 18.6193C66.2187 18.1082 66.075 17.4757 66.075 16.6932H65.075H64.075C64.075 17.7213 64.2646 18.6684 64.6786 19.5057L65.575 19.0625ZM65.075 16.6932H66.075C66.075 15.9246 66.2178 15.2915 66.4734 14.7688L65.575 14.3295L64.6766 13.8903C64.2655 14.7312 64.075 15.6739 64.075 16.6932H65.075ZM65.575 14.3295L66.4714 14.7728C66.733 14.2438 67.0828 13.855 67.5203 13.5771L66.9841 12.733L66.4479 11.8889C65.6809 12.3761 65.0913 13.0517 64.6786 13.8863L65.575 14.3295ZM66.9841 12.733L67.5179 13.5786C67.9439 13.3096 68.462 13.1591 69.1091 13.1591V12.1591V11.1591C68.135 11.1591 67.2364 11.3911 66.4503 11.8873L66.9841 12.733ZM69.1091 12.1591V13.1591C69.4889 13.1591 69.8537 13.2215 70.2085 13.3465L70.5409 12.4034L70.8733 11.4603C70.3039 11.2596 69.7142 11.1591 69.1091 11.1591V12.1591ZM70.5409 12.4034L70.2085 13.3465C70.5336 13.4611 70.8281 13.6409 71.0971 13.896L71.7852 13.1705L72.4734 12.4449C72.0075 12.003 71.4725 11.6715 70.8733 11.4603L70.5409 12.4034ZM71.7852 13.1705L71.0971 13.896C71.3381 14.1246 71.5519 14.4431 71.7201 14.8844L72.6545 14.5284L73.589 14.1724C73.3329 13.5001 72.9672 12.9132 72.4734 12.4449L71.7852 13.1705ZM72.6545 14.5284L71.7209 14.8865C71.8771 15.2939 71.9727 15.8375 71.9727 16.5455H72.9727H73.9727C73.9727 15.6701 73.8562 14.869 73.5882 14.1703L72.6545 14.5284ZM72.9727 16.5455H71.9727V17.1477H72.9727H73.9727V16.5455H72.9727ZM72.9727 17.1477V16.1477H66.0352V17.1477V18.1477H72.9727V17.1477ZM66.0352 17.1477H67.0352V15.875H66.0352H65.0352V17.1477H66.0352ZM66.0352 15.875V16.875H71.308V15.875V14.875H66.0352V15.875ZM71.308 15.875H72.308C72.308 15.2895 72.1879 14.7293 71.9197 14.221L71.0352 14.6875L70.1507 15.154C70.2462 15.3351 70.308 15.5666 70.308 15.875H71.308ZM71.0352 14.6875L71.9218 14.2249C71.6574 13.7182 71.2765 13.3069 70.7884 13.0096L70.2682 13.8636L69.7479 14.7176C69.919 14.8219 70.0494 14.9598 70.1486 15.1501L71.0352 14.6875ZM70.2682 13.8636L70.7928 13.0123C70.2871 12.7006 69.7171 12.5625 69.1205 12.5625V13.5625V14.5625C69.4026 14.5625 69.5978 14.6251 69.7435 14.715L70.2682 13.8636ZM69.1205 13.5625V12.5625C68.4715 12.5625 67.8583 12.7248 67.3199 13.08L67.8705 13.9148L68.4211 14.7495C68.5947 14.635 68.8148 14.5625 69.1205 14.5625V13.5625ZM67.8705 13.9148L67.322 13.0786C66.8253 13.4044 66.4354 13.8378 66.1633 14.3659L67.0523 14.8239L67.9412 15.2818C68.0555 15.0599 68.2111 14.8873 68.4189 14.7509L67.8705 13.9148ZM67.0523 14.8239L66.1615 14.3694C65.897 14.8878 65.7682 15.4479 65.7682 16.0341H66.7682H67.7682C67.7682 15.7491 67.8287 15.5024 67.943 15.2783L67.0523 14.8239ZM66.7682 16.0341H65.7682V17.0284H66.7682H67.7682V16.0341H66.7682ZM66.7682 17.0284H65.7682C65.7682 17.7255 65.8902 18.3834 66.1806 18.9643L67.075 18.517L67.9694 18.0698C67.8507 17.8325 67.7682 17.498 67.7682 17.0284H66.7682ZM67.075 18.517L66.1839 18.9708C66.4732 19.5389 66.8925 19.9996 67.4415 20.319L67.9443 19.4545L68.4471 18.5901C68.2537 18.4777 68.0935 18.3133 67.9661 18.0632L67.075 18.517ZM67.9443 19.4545L67.4482 20.3228C67.9933 20.6343 68.6035 20.7727 69.2455 20.7727V19.7727V18.7727C68.895 18.7727 68.6378 18.6991 68.4405 18.5863L67.9443 19.4545ZM69.2455 19.7727V20.7727C69.6617 20.7727 70.0667 20.7139 70.4505 20.5823L70.1261 19.6364L69.8018 18.6904C69.6553 18.7407 69.4732 18.7727 69.2455 18.7727V19.7727ZM70.1261 19.6364L70.4625 20.5781C70.8538 20.4384 71.2062 20.2255 71.5065 19.937L70.8136 19.2159L70.1208 18.4948C70.0347 18.5775 69.9288 18.645 69.7898 18.6946L70.1261 19.6364ZM70.8136 19.2159L71.5065 19.937C71.8166 19.639 72.043 19.2798 72.1931 18.8795L71.2568 18.5284L70.3205 18.1773C70.2661 18.3224 70.197 18.4216 70.1208 18.4948L70.8136 19.2159ZM71.2568 18.5284L71.0795 19.5126L72.6874 19.8023L72.8648 18.8182L73.0421 17.834L71.4342 17.5443L71.2568 18.5284ZM72.8648 18.8182L71.8998 18.5557C71.8136 18.8728 71.6627 19.1428 71.4416 19.3791L72.1716 20.0625L72.9016 20.7459C73.3471 20.2701 73.6584 19.7105 73.8297 19.0806L72.8648 18.8182ZM72.1716 20.0625L71.4413 19.3793C71.2242 19.6114 70.9385 19.8071 70.5607 19.956L70.9273 20.8864L71.2938 21.8168C71.916 21.5717 72.4599 21.2181 72.9019 20.7457L72.1716 20.0625ZM70.9273 20.8864L70.5645 19.9545C70.2041 20.0948 69.7643 20.1761 69.2284 20.1761V21.1761V22.1761C69.9652 22.1761 70.658 22.0643 71.2901 21.8182L70.9273 20.8864Z" fill="#BFD0DB" mask="url(#path-2-outside-1_2062_1003)"/>
</g>
<defs>
<filter id="filter0_di_2062_1003" x="0" y="0" width="98" height="38" filterUnits="userSpaceOnUse" color-interpolation-filters="sRGB">
<feFlood flood-opacity="0" result="BackgroundImageFix"/>
<feColorMatrix in="SourceAlpha" type="matrix" values="0 0 0 0 0 0 0 0 0 0 0 0 0 0 0 0 0 0 127 0" result="hardAlpha"/>
<feOffset dy="4"/>
<feGaussianBlur stdDeviation="2"/>
<feComposite in2="hardAlpha" operator="out"/>
<feColorMatrix type="matrix" values="0 0 0 0 0 0 0 0 0 0 0 0 0 0 0 0 0 0 0.25 0"/>
<feBlend mode="normal" in2="BackgroundImageFix" result="effect1_dropShadow_2062_1003"/>
<feBlend mode="normal" in="SourceGraphic" in2="effect1_dropShadow_2062_1003" result="shape"/>
<feColorMatrix in="SourceAlpha" type="matrix" values="0 0 0 0 0 0 0 0 0 0 0 0 0 0 0 0 0 0 127 0" result="hardAlpha"/>
<feOffset dy="1"/>
<feGaussianBlur stdDeviation="2"/>
<feComposite in2="hardAlpha" operator="arithmetic" k2="-1" k3="1"/>
<feColorMatrix type="matrix" values="0 0 0 0 0 0 0 0 0 0 0 0 0 0 0 0 0 0 0.25 0"/>
<feBlend mode="normal" in2="shape" result="effect2_innerShadow_2062_1003"/>
</filter>
</defs>
</svg>
