<svg width="240" height="110" viewBox="0 0 240 110" fill="none" xmlns="http://www.w3.org/2000/svg">
<g filter="url(#filter0_dddi_2093_45)">
<g opacity="0.5" filter="url(#filter1_d_2093_45)">
<rect x="40" y="40" width="160" height="30" rx="15" fill="url(#paint0_linear_2093_45)" shape-rendering="crispEdges"/>
<rect x="40.5" y="40.5" width="159" height="29" rx="14.5" stroke="#BFD0DB" shape-rendering="crispEdges"/>
</g>
<path d="M196.061 56.0607C196.646 55.4749 196.646 54.5251 196.061 53.9393L186.515 44.3934C185.929 43.8076 184.979 43.8076 184.393 44.3934C183.808 44.9792 183.808 45.9289 184.393 46.5147L192.879 55L184.393 63.4853C183.808 64.0711 183.808 65.0208 184.393 65.6066C184.979 66.1924 185.929 66.1924 186.515 65.6066L196.061 56.0607ZM174 55V56.5L195 56.5V55V53.5L174 53.5V55Z" fill="#244F85"/>
<path d="M47.3779 50.2727V59H46.0612V50.2727H47.3779ZM56.5796 50.2727V59H55.3693L50.9333 52.5994H50.8523V59H49.5355V50.2727H50.7543L55.1946 56.6818H55.2756V50.2727H56.5796ZM63.5003 52.5653C63.4549 52.1619 63.2674 51.8494 62.9378 51.6278C62.6083 51.4034 62.1935 51.2912 61.6935 51.2912C61.3355 51.2912 61.0259 51.348 60.7645 51.4616C60.5032 51.5724 60.3 51.7259 60.1551 51.9219C60.0131 52.1151 59.9421 52.3352 59.9421 52.5824C59.9421 52.7898 59.9904 52.9687 60.087 53.1193C60.1864 53.2699 60.3157 53.3963 60.4747 53.4986C60.6367 53.598 60.81 53.6818 60.9946 53.75C61.1793 53.8153 61.3568 53.8693 61.5273 53.9119L62.3796 54.1335C62.658 54.2017 62.9435 54.294 63.2361 54.4105C63.5287 54.527 63.8 54.6804 64.05 54.8707C64.3 55.0611 64.5017 55.2969 64.6551 55.5781C64.8114 55.8594 64.8895 56.196 64.8895 56.5881C64.8895 57.0824 64.7617 57.5213 64.506 57.9048C64.2532 58.2884 63.8853 58.5909 63.4023 58.8125C62.9222 59.0341 62.3412 59.1449 61.6594 59.1449C61.006 59.1449 60.4407 59.0412 59.9634 58.8338C59.4861 58.6264 59.1125 58.3324 58.8426 57.9517C58.5728 57.5682 58.4236 57.1136 58.3952 56.5881H59.7162C59.7418 56.9034 59.8441 57.1662 60.023 57.3764C60.2049 57.5838 60.4364 57.7386 60.7176 57.8409C61.0017 57.9403 61.3128 57.9901 61.6509 57.9901C62.023 57.9901 62.354 57.9318 62.6438 57.8153C62.9364 57.696 63.1665 57.5312 63.3341 57.321C63.5017 57.108 63.5855 56.8594 63.5855 56.5753C63.5855 56.3168 63.5117 56.1051 63.3639 55.9403C63.2191 55.7756 63.0216 55.6392 62.7716 55.5312C62.5245 55.4233 62.2446 55.3281 61.9321 55.2457L60.9009 54.9645C60.202 54.7741 59.648 54.4943 59.2389 54.125C58.8327 53.7557 58.6296 53.267 58.6296 52.6591C58.6296 52.1562 58.7659 51.7173 59.0387 51.3423C59.3114 50.9673 59.6807 50.6761 60.1466 50.4688C60.6125 50.2585 61.1381 50.1534 61.7233 50.1534C62.3142 50.1534 62.8355 50.2571 63.2872 50.4645C63.7418 50.6719 64.0997 50.9574 64.3611 51.321C64.6225 51.6818 64.7588 52.0966 64.7702 52.5653H63.5003ZM68.0198 50.2727V59H66.703V50.2727H68.0198ZM76.0837 53.0298C76.0013 52.7713 75.8905 52.5398 75.7513 52.3352C75.6149 52.1278 75.4515 51.9517 75.2612 51.8068C75.0709 51.6591 74.8535 51.5469 74.6092 51.4702C74.3677 51.3935 74.1021 51.3551 73.8123 51.3551C73.3209 51.3551 72.8777 51.4815 72.4828 51.7344C72.0879 51.9872 71.7754 52.358 71.5453 52.8466C71.318 53.3324 71.2044 53.9276 71.2044 54.6321C71.2044 55.3395 71.3194 55.9375 71.5496 56.4261C71.7797 56.9148 72.095 57.2855 72.4956 57.5384C72.8962 57.7912 73.3521 57.9176 73.8635 57.9176C74.3379 57.9176 74.7513 57.821 75.1035 57.6278C75.4587 57.4347 75.7328 57.1619 75.926 56.8097C76.122 56.4545 76.22 56.0369 76.22 55.5568L76.5609 55.6207H74.0638V54.5341H77.4942V55.527C77.4942 56.2599 77.3379 56.8963 77.0254 57.4361C76.7158 57.973 76.2868 58.3878 75.7385 58.6804C75.193 58.973 74.568 59.1193 73.8635 59.1193C73.0737 59.1193 72.3805 58.9375 71.7839 58.5739C71.1902 58.2102 70.7271 57.6946 70.3947 57.027C70.0623 56.3565 69.8962 55.5611 69.8962 54.6406C69.8962 53.9446 69.9927 53.3196 70.1859 52.7656C70.3791 52.2116 70.6504 51.7415 70.9998 51.3551C71.3521 50.9659 71.7655 50.669 72.2399 50.4645C72.7172 50.2571 73.2385 50.1534 73.8038 50.1534C74.2754 50.1534 74.7143 50.223 75.1206 50.3622C75.5297 50.5014 75.8933 50.6989 76.2115 50.9545C76.5325 51.2102 76.7981 51.5142 77.0084 51.8665C77.2186 52.2159 77.3606 52.6037 77.4345 53.0298H76.0837ZM79.4057 59V50.2727H80.7224V54.0653H85.0733V50.2727H86.3943V59H85.0733V55.1946H80.7224V59H79.4057ZM88.1215 51.4062V50.2727H94.8758V51.4062H92.1528V59H90.8403V51.4062H88.1215ZM105.636 50.2727H106.957V56.0128C106.957 56.6236 106.814 57.1648 106.527 57.6364C106.24 58.1051 105.837 58.4744 105.317 58.7443C104.797 59.0114 104.187 59.1449 103.489 59.1449C102.793 59.1449 102.185 59.0114 101.665 58.7443C101.145 58.4744 100.741 58.1051 100.455 57.6364C100.168 57.1648 100.024 56.6236 100.024 56.0128V50.2727H101.341V55.9062C101.341 56.3011 101.428 56.652 101.601 56.9588C101.777 57.2656 102.026 57.5071 102.347 57.6832C102.668 57.8565 103.048 57.9432 103.489 57.9432C103.932 57.9432 104.314 57.8565 104.635 57.6832C104.959 57.5071 105.206 57.2656 105.376 56.9588C105.55 56.652 105.636 56.3011 105.636 55.9062V50.2727ZM116.156 50.2727V59H114.946L110.51 52.5994H110.429V59H109.112V50.2727H110.331L114.771 56.6818H114.852V50.2727H116.156ZM118.317 59V50.2727H119.633V57.8665H123.588V59H118.317ZM132.571 54.6364C132.571 55.5682 132.401 56.3693 132.06 57.0398C131.719 57.7074 131.252 58.2216 130.658 58.5824C130.067 58.9403 129.395 59.1193 128.642 59.1193C127.887 59.1193 127.212 58.9403 126.618 58.5824C126.027 58.2216 125.561 57.706 125.22 57.0355C124.879 56.3651 124.709 55.5653 124.709 54.6364C124.709 53.7045 124.879 52.9048 125.22 52.2372C125.561 51.5668 126.027 51.0526 126.618 50.6946C127.212 50.3338 127.887 50.1534 128.642 50.1534C129.395 50.1534 130.067 50.3338 130.658 50.6946C131.252 51.0526 131.719 51.5668 132.06 52.2372C132.401 52.9048 132.571 53.7045 132.571 54.6364ZM131.267 54.6364C131.267 53.9261 131.152 53.3281 130.922 52.8423C130.695 52.3537 130.382 51.9844 129.985 51.7344C129.59 51.4815 129.142 51.3551 128.642 51.3551C128.139 51.3551 127.69 51.4815 127.296 51.7344C126.901 51.9844 126.588 52.3537 126.358 52.8423C126.131 53.3281 126.017 53.9261 126.017 54.6364C126.017 55.3466 126.131 55.946 126.358 56.4347C126.588 56.9205 126.901 57.2898 127.296 57.5426C127.69 57.7926 128.139 57.9176 128.642 57.9176C129.142 57.9176 129.59 57.7926 129.985 57.5426C130.382 57.2898 130.695 56.9205 130.922 56.4347C131.152 55.946 131.267 55.3466 131.267 54.6364ZM141.701 53.1108H140.372C140.321 52.8267 140.226 52.5767 140.086 52.3608C139.947 52.1449 139.777 51.9616 139.575 51.8111C139.373 51.6605 139.147 51.5469 138.897 51.4702C138.65 51.3935 138.388 51.3551 138.109 51.3551C137.606 51.3551 137.156 51.4815 136.758 51.7344C136.363 51.9872 136.051 52.358 135.821 52.8466C135.593 53.3352 135.48 53.9318 135.48 54.6364C135.48 55.3466 135.593 55.946 135.821 56.4347C136.051 56.9233 136.365 57.2926 136.763 57.5426C137.16 57.7926 137.608 57.9176 138.105 57.9176C138.38 57.9176 138.642 57.8807 138.889 57.8068C139.139 57.7301 139.365 57.6179 139.567 57.4702C139.768 57.3224 139.939 57.142 140.078 56.929C140.22 56.7131 140.318 56.4659 140.372 56.1875L141.701 56.1918C141.63 56.6207 141.493 57.0156 141.288 57.3764C141.086 57.7344 140.826 58.044 140.508 58.3054C140.193 58.5639 139.832 58.7642 139.426 58.9062C139.02 59.0483 138.576 59.1193 138.096 59.1193C137.341 59.1193 136.667 58.9403 136.076 58.5824C135.486 58.2216 135.02 57.706 134.679 57.0355C134.341 56.3651 134.172 55.5653 134.172 54.6364C134.172 53.7045 134.342 52.9048 134.683 52.2372C135.024 51.5668 135.49 51.0526 136.081 50.6946C136.672 50.3338 137.343 50.1534 138.096 50.1534C138.559 50.1534 138.991 50.2202 139.392 50.3537C139.795 50.4844 140.157 50.6776 140.478 50.9332C140.799 51.1861 141.065 51.4957 141.275 51.8622C141.486 52.2259 141.628 52.642 141.701 53.1108ZM143.517 59V50.2727H144.834V54.4403H144.94L148.601 50.2727H150.259L146.739 54.2017L150.271 59H148.686L145.865 55.1009L144.834 56.2855V59H143.517ZM151.726 59V50.2727H157.197V51.4062H153.043V54.0653H156.912V55.1946H153.043V57.8665H157.249V59H151.726ZM162.022 59H159.196V50.2727H162.111C162.966 50.2727 163.701 50.4474 164.314 50.7969C164.928 51.1435 165.398 51.642 165.725 52.2926C166.054 52.9403 166.219 53.7173 166.219 54.6236C166.219 55.5327 166.053 56.3139 165.72 56.9673C165.391 57.6207 164.914 58.1236 164.289 58.4759C163.664 58.8253 162.908 59 162.022 59ZM160.513 57.8494H161.949C162.614 57.8494 163.166 57.7244 163.607 57.4744C164.047 57.2216 164.377 56.8565 164.595 56.3793C164.814 55.8991 164.924 55.3139 164.924 54.6236C164.924 53.9389 164.814 53.358 164.595 52.8807C164.38 52.4034 164.057 52.0412 163.628 51.794C163.199 51.5469 162.666 51.4233 162.03 51.4233H160.513V57.8494Z" fill="url(#paint1_linear_2093_45)"/>
</g>
<defs>
<filter id="filter0_dddi_2093_45" x="0" y="0" width="240" height="110" filterUnits="userSpaceOnUse" color-interpolation-filters="sRGB">
<feFlood flood-opacity="0" result="BackgroundImageFix"/>
<feColorMatrix in="SourceAlpha" type="matrix" values="0 0 0 0 0 0 0 0 0 0 0 0 0 0 0 0 0 0 127 0" result="hardAlpha"/>
<feOffset dy="8"/>
<feGaussianBlur stdDeviation="2"/>
<feComposite in2="hardAlpha" operator="out"/>
<feColorMatrix type="matrix" values="0 0 0 0 0 0 0 0 0 0 0 0 0 0 0 0 0 0 0.25 0"/>
<feBlend mode="normal" in2="BackgroundImageFix" result="effect1_dropShadow_2093_45"/>
<feColorMatrix in="SourceAlpha" type="matrix" values="0 0 0 0 0 0 0 0 0 0 0 0 0 0 0 0 0 0 127 0" result="hardAlpha"/>
<feOffset dy="2"/>
<feGaussianBlur stdDeviation="4"/>
<feComposite in2="hardAlpha" operator="out"/>
<feColorMatrix type="matrix" values="0 0 0 0 0 0 0 0 0 0 0 0 0 0 0 0 0 0 0.15 0"/>
<feBlend mode="normal" in2="effect1_dropShadow_2093_45" result="effect2_dropShadow_2093_45"/>
<feColorMatrix in="SourceAlpha" type="matrix" values="0 0 0 0 0 0 0 0 0 0 0 0 0 0 0 0 0 0 127 0" result="hardAlpha"/>
<feOffset/>
<feGaussianBlur stdDeviation="20"/>
<feComposite in2="hardAlpha" operator="out"/>
<feColorMatrix type="matrix" values="0 0 0 0 1 0 0 0 0 1 0 0 0 0 1 0 0 0 0.4 0"/>
<feBlend mode="normal" in2="effect2_dropShadow_2093_45" result="effect3_dropShadow_2093_45"/>
<feBlend mode="normal" in="SourceGraphic" in2="effect3_dropShadow_2093_45" result="shape"/>
<feColorMatrix in="SourceAlpha" type="matrix" values="0 0 0 0 0 0 0 0 0 0 0 0 0 0 0 0 0 0 127 0" result="hardAlpha"/>
<feOffset dy="1"/>
<feGaussianBlur stdDeviation="2"/>
<feComposite in2="hardAlpha" operator="arithmetic" k2="-1" k3="1"/>
<feColorMatrix type="matrix" values="0 0 0 0 0 0 0 0 0 0 0 0 0 0 0 0 0 0 0.25 0"/>
<feBlend mode="normal" in2="shape" result="effect4_innerShadow_2093_45"/>
</filter>
<filter id="filter1_d_2093_45" x="32" y="34" width="176" height="46" filterUnits="userSpaceOnUse" color-interpolation-filters="sRGB">
<feFlood flood-opacity="0" result="BackgroundImageFix"/>
<feColorMatrix in="SourceAlpha" type="matrix" values="0 0 0 0 0 0 0 0 0 0 0 0 0 0 0 0 0 0 127 0" result="hardAlpha"/>
<feOffset dy="2"/>
<feGaussianBlur stdDeviation="4"/>
<feComposite in2="hardAlpha" operator="out"/>
<feColorMatrix type="matrix" values="0 0 0 0 0 0 0 0 0 0 0 0 0 0 0 0 0 0 0.15 0"/>
<feBlend mode="normal" in2="BackgroundImageFix" result="effect1_dropShadow_2093_45"/>
<feBlend mode="normal" in="SourceGraphic" in2="effect1_dropShadow_2093_45" result="shape"/>
</filter>
<linearGradient id="paint0_linear_2093_45" x1="120" y1="40" x2="120" y2="70" gradientUnits="userSpaceOnUse">
<stop stop-color="white" stop-opacity="0.01"/>
<stop offset="1" stop-color="white"/>
</linearGradient>
<linearGradient id="paint1_linear_2093_45" x1="106" y1="48" x2="106" y2="62" gradientUnits="userSpaceOnUse">
<stop stop-color="white" stop-opacity="0.01"/>
<stop offset="1" stop-color="white"/>
</linearGradient>
</defs>
</svg>
