<svg width="211" height="41" viewBox="0 0 211 41" fill="none" xmlns="http://www.w3.org/2000/svg">
<g filter="url(#filter0_d_2062_1013)">
<path d="M20.5 6.5H190.5C197.127 6.5 202.5 11.8726 202.5 18.5C202.5 25.1274 197.127 30.5 190.5 30.5H20.5C13.8726 30.5 8.5 25.1274 8.5 18.5C8.5 11.8726 13.8726 6.5 20.5 6.5Z" stroke="#BFD0DB"/>
<path d="M28.2106 11.9091V25H26.3952L19.7411 15.3991H19.6196V25H17.6445V11.9091H19.4726L26.1331 21.5227H26.2546V11.9091H28.2106ZM35.434 25.1982C34.5136 25.1982 33.7103 24.9872 33.0242 24.5653C32.3381 24.1435 31.8055 23.5533 31.4262 22.7947C31.0469 22.0362 30.8573 21.1499 30.8573 20.1357C30.8573 19.1172 31.0469 18.2266 31.4262 17.4638C31.8055 16.701 32.3381 16.1087 33.0242 15.6868C33.7103 15.2649 34.5136 15.054 35.434 15.054C36.3545 15.054 37.1577 15.2649 37.8438 15.6868C38.5299 16.1087 39.0626 16.701 39.4418 17.4638C39.8211 18.2266 40.0107 19.1172 40.0107 20.1357C40.0107 21.1499 39.8211 22.0362 39.4418 22.7947C39.0626 23.5533 38.5299 24.1435 37.8438 24.5653C37.1577 24.9872 36.3545 25.1982 35.434 25.1982ZM35.4404 23.5938C36.037 23.5938 36.5313 23.4361 36.9234 23.1207C37.3154 22.8054 37.6052 22.3857 37.7927 21.8615C37.9844 21.3374 38.0803 20.7599 38.0803 20.1293C38.0803 19.5028 37.9844 18.9276 37.7927 18.4034C37.6052 17.875 37.3154 17.451 36.9234 17.1314C36.5313 16.8118 36.037 16.652 35.4404 16.652C34.8396 16.652 34.341 16.8118 33.9447 17.1314C33.5526 17.451 33.2607 17.875 33.069 18.4034C32.8815 18.9276 32.7877 19.5028 32.7877 20.1293C32.7877 20.7599 32.8815 21.3374 33.069 21.8615C33.2607 22.3857 33.5526 22.8054 33.9447 23.1207C34.341 23.4361 34.8396 23.5938 35.4404 23.5938ZM47.6277 25V15.1818H49.4622V16.7798H49.5837C49.7882 16.2386 50.1228 15.8168 50.5873 15.5142C51.0517 15.2074 51.6078 15.054 52.2556 15.054C52.9118 15.054 53.4615 15.2074 53.9047 15.5142C54.3522 15.821 54.6824 16.2429 54.8955 16.7798H54.9978C55.2321 16.2557 55.605 15.8381 56.1164 15.527C56.6277 15.2116 57.2371 15.054 57.9445 15.054C58.8351 15.054 59.5617 15.3331 60.1242 15.8913C60.6909 16.4496 60.9743 17.2912 60.9743 18.4162V25H59.0631V18.5952C59.0631 17.9304 58.882 17.4489 58.5198 17.1506C58.1576 16.8523 57.725 16.7031 57.2222 16.7031C56.6 16.7031 56.1164 16.8949 55.7712 17.2784C55.426 17.6577 55.2534 18.1456 55.2534 18.7422V25H53.3486V18.4737C53.3486 17.9411 53.1824 17.5128 52.85 17.1889C52.5176 16.8651 52.0851 16.7031 51.5524 16.7031C51.1902 16.7031 50.8557 16.799 50.5489 16.9908C50.2463 17.1783 50.0013 17.4403 49.8138 17.777C49.6306 18.1136 49.539 18.5036 49.539 18.9467V25H47.6277ZM66.7532 25.2173C66.131 25.2173 65.5685 25.1023 65.0657 24.8722C64.5628 24.6378 64.1644 24.299 63.8704 23.8558C63.5806 23.4126 63.4357 22.8693 63.4357 22.2259C63.4357 21.6719 63.5422 21.2159 63.7553 20.858C63.9684 20.5 64.256 20.2166 64.6182 20.0078C64.9805 19.799 65.3853 19.6413 65.8327 19.5348C66.2802 19.4283 66.7361 19.3473 67.2006 19.2919C67.7887 19.2237 68.266 19.1683 68.6324 19.1257C68.9989 19.0788 69.2653 19.0043 69.4314 18.902C69.5976 18.7997 69.6807 18.6335 69.6807 18.4034V18.3587C69.6807 17.8004 69.5231 17.3679 69.2077 17.0611C68.8966 16.7543 68.4322 16.6009 67.8143 16.6009C67.1708 16.6009 66.6637 16.7436 66.293 17.0291C65.9265 17.3104 65.6729 17.6236 65.5323 17.9688L63.7361 17.5597C63.9492 16.9631 64.2603 16.4815 64.6694 16.1151C65.0827 15.7443 65.5579 15.4759 66.0948 15.3097C66.6317 15.1392 67.1964 15.054 67.7887 15.054C68.1807 15.054 68.5962 15.1009 69.0351 15.1946C69.4783 15.2841 69.8917 15.4503 70.2752 15.6932C70.663 15.9361 70.9805 16.2834 71.2276 16.7351C71.4748 17.1825 71.5983 17.7642 71.5983 18.4801V25H69.7319V23.6577H69.6552C69.5316 23.9048 69.3462 24.1477 69.0991 24.3864C68.8519 24.625 68.5344 24.8232 68.1466 24.9808C67.7589 25.1385 67.2944 25.2173 66.7532 25.2173ZM67.1687 23.6832C67.6971 23.6832 68.1488 23.5788 68.5238 23.37C68.903 23.1612 69.1907 22.8885 69.3867 22.5518C69.587 22.2109 69.6871 21.8466 69.6871 21.4588V20.1932C69.6189 20.2614 69.4868 20.3253 69.2908 20.3849C69.0991 20.4403 68.8796 20.4893 68.6324 20.532C68.3853 20.5703 68.1445 20.6065 67.9101 20.6406C67.6758 20.6705 67.4797 20.696 67.3221 20.7173C66.9513 20.7642 66.6126 20.843 66.3057 20.9538C66.0032 21.0646 65.7603 21.2244 65.577 21.4332C65.3981 21.6378 65.3086 21.9105 65.3086 22.2514C65.3086 22.7244 65.4833 23.0824 65.8327 23.3253C66.1822 23.5639 66.6275 23.6832 67.1687 23.6832ZM79.0871 15.1818V16.7159H73.7242V15.1818H79.0871ZM75.1624 12.8295H77.0736V22.1172C77.0736 22.4879 77.129 22.767 77.2398 22.9545C77.3506 23.1378 77.4933 23.2635 77.668 23.3317C77.847 23.3956 78.0409 23.4276 78.2497 23.4276C78.4031 23.4276 78.5374 23.4169 78.6524 23.3956C78.7675 23.3743 78.857 23.3572 78.9209 23.3445L79.2661 24.9233C79.1553 24.9659 78.9976 25.0085 78.793 25.0511C78.5885 25.098 78.3328 25.1236 78.026 25.1278C77.5232 25.1364 77.0544 25.0469 76.6197 24.8594C76.1851 24.6719 75.8335 24.3821 75.5651 23.9901C75.2966 23.598 75.1624 23.1058 75.1624 22.5135V12.8295ZM85.5914 25.1982C84.6411 25.1982 83.823 24.983 83.1369 24.5526C82.4551 24.1179 81.9309 23.5192 81.5644 22.7564C81.198 21.9936 81.0147 21.12 81.0147 20.1357C81.0147 19.1385 81.2022 18.2585 81.5772 17.4957C81.9522 16.7287 82.4806 16.13 83.1625 15.6996C83.8443 15.2692 84.6475 15.054 85.5723 15.054C86.318 15.054 86.9828 15.1925 87.5666 15.4695C88.1504 15.7422 88.6213 16.1257 88.9792 16.62C89.3414 17.1143 89.5566 17.6918 89.6248 18.3523H87.7647C87.6625 17.892 87.4281 17.4957 87.0616 17.1634C86.6994 16.831 86.2136 16.6648 85.6042 16.6648C85.0715 16.6648 84.6049 16.8054 84.2044 17.0866C83.808 17.3636 83.4991 17.7599 83.2775 18.2756C83.0559 18.7869 82.9451 19.392 82.9451 20.0909C82.9451 20.8068 83.0538 21.4247 83.2711 21.9446C83.4884 22.4645 83.7953 22.8672 84.1916 23.1527C84.5921 23.4382 85.063 23.581 85.6042 23.581C85.9664 23.581 86.2946 23.5149 86.5886 23.3828C86.8869 23.2464 87.1362 23.0526 87.3365 22.8011C87.541 22.5497 87.6838 22.2472 87.7647 21.8935H89.6248C89.5566 22.5284 89.35 23.0952 89.0048 23.5938C88.6596 24.0923 88.1973 24.4844 87.6177 24.7699C87.0424 25.0554 86.367 25.1982 85.5914 25.1982ZM93.9399 19.1705V25H92.0287V11.9091H93.9143V16.7798H94.0358C94.2659 16.2514 94.6174 15.8317 95.0905 15.5206C95.5635 15.2095 96.1814 15.054 96.9442 15.054C97.6174 15.054 98.2055 15.1925 98.7084 15.4695C99.2155 15.7464 99.6075 16.1598 99.8845 16.7095C100.166 17.255 100.306 17.9368 100.306 18.755V25H98.3951V18.9851C98.3951 18.2649 98.2098 17.7067 97.839 17.3104C97.4683 16.9098 96.9527 16.7095 96.2922 16.7095C95.8405 16.7095 95.4356 16.8054 95.0777 16.9972C94.724 17.1889 94.4449 17.4702 94.2403 17.8409C94.04 18.2074 93.9399 18.6506 93.9399 19.1705ZM103.217 25V15.1818H105.128V25H103.217ZM104.182 13.6669C103.85 13.6669 103.564 13.5561 103.325 13.3345C103.091 13.1087 102.974 12.8402 102.974 12.5291C102.974 12.2138 103.091 11.9453 103.325 11.7237C103.564 11.4979 103.85 11.3849 104.182 11.3849C104.514 11.3849 104.798 11.4979 105.032 11.7237C105.271 11.9453 105.39 12.2138 105.39 12.5291C105.39 12.8402 105.271 13.1087 105.032 13.3345C104.798 13.5561 104.514 13.6669 104.182 13.6669ZM109.97 19.1705V25H108.059V15.1818H109.894V16.7798H110.015C110.241 16.2599 110.595 15.8423 111.076 15.527C111.562 15.2116 112.174 15.054 112.911 15.054C113.58 15.054 114.166 15.1946 114.669 15.4759C115.171 15.7528 115.561 16.1662 115.838 16.7159C116.115 17.2656 116.254 17.9453 116.254 18.755V25H114.343V18.9851C114.343 18.2734 114.157 17.7173 113.786 17.3168C113.416 16.9119 112.907 16.7095 112.259 16.7095C111.816 16.7095 111.421 16.8054 111.076 16.9972C110.735 17.1889 110.465 17.4702 110.264 17.8409C110.068 18.2074 109.97 18.6506 109.97 19.1705ZM123.294 28.8864C122.514 28.8864 121.843 28.7841 121.28 28.5795C120.722 28.375 120.266 28.1044 119.912 27.7678C119.558 27.4311 119.294 27.0625 119.119 26.6619L120.762 25.9844C120.877 26.1719 121.031 26.37 121.222 26.5788C121.419 26.7919 121.683 26.973 122.015 27.1222C122.352 27.2713 122.784 27.3459 123.313 27.3459C124.037 27.3459 124.636 27.169 125.109 26.8153C125.582 26.4659 125.818 25.9077 125.818 25.1406V23.2102H125.697C125.582 23.419 125.416 23.6513 125.198 23.907C124.985 24.1626 124.691 24.3842 124.316 24.5717C123.941 24.7592 123.453 24.853 122.852 24.853C122.077 24.853 121.378 24.6719 120.756 24.3097C120.138 23.9432 119.648 23.4041 119.286 22.6925C118.928 21.9766 118.749 21.0966 118.749 20.0526C118.749 19.0085 118.926 18.1136 119.279 17.3679C119.637 16.6222 120.127 16.0511 120.749 15.6548C121.372 15.2543 122.077 15.054 122.865 15.054C123.475 15.054 123.967 15.1562 124.342 15.3608C124.717 15.5611 125.009 15.7955 125.218 16.0639C125.431 16.3324 125.595 16.5689 125.71 16.7734H125.85V15.1818H127.723V25.2173C127.723 26.0611 127.527 26.7536 127.135 27.2947C126.743 27.8359 126.213 28.2365 125.544 28.4964C124.879 28.7564 124.129 28.8864 123.294 28.8864ZM123.274 23.2678C123.824 23.2678 124.289 23.1399 124.668 22.8842C125.051 22.6243 125.341 22.2536 125.537 21.772C125.737 21.2862 125.838 20.7045 125.838 20.027C125.838 19.3665 125.74 18.7848 125.544 18.282C125.347 17.7791 125.06 17.3871 124.681 17.1058C124.301 16.8203 123.833 16.6776 123.274 16.6776C122.699 16.6776 122.22 16.8267 121.836 17.125C121.453 17.419 121.163 17.8196 120.967 18.3267C120.775 18.8338 120.679 19.4006 120.679 20.027C120.679 20.6705 120.777 21.2351 120.973 21.7209C121.169 22.2067 121.459 22.5859 121.843 22.8587C122.23 23.1314 122.708 23.2678 123.274 23.2678ZM135.77 25V15.1818H137.617V16.7415H137.72C137.899 16.2131 138.214 15.7976 138.666 15.495C139.122 15.1882 139.637 15.0348 140.213 15.0348C140.332 15.0348 140.472 15.0391 140.634 15.0476C140.801 15.0561 140.931 15.0668 141.024 15.0795V16.9077C140.948 16.8864 140.811 16.8629 140.615 16.8374C140.419 16.8075 140.223 16.7926 140.027 16.7926C139.575 16.7926 139.173 16.8885 138.819 17.0803C138.47 17.2678 138.193 17.5298 137.988 17.8665C137.784 18.1989 137.681 18.5781 137.681 19.0043V25H135.77ZM146.918 25.1982C145.951 25.1982 145.118 24.9915 144.419 24.5781C143.724 24.1605 143.187 23.5746 142.808 22.8203C142.433 22.0618 142.246 21.1733 142.246 20.1548C142.246 19.1491 142.433 18.2628 142.808 17.4957C143.187 16.7287 143.716 16.13 144.393 15.6996C145.075 15.2692 145.872 15.054 146.784 15.054C147.338 15.054 147.875 15.1456 148.395 15.3288C148.915 15.5121 149.381 15.7997 149.795 16.1918C150.208 16.5838 150.534 17.093 150.773 17.7195C151.011 18.3416 151.131 19.098 151.131 19.9886V20.6662H143.326V19.2344H149.258C149.258 18.7315 149.155 18.2862 148.951 17.8984C148.746 17.5064 148.459 17.1974 148.088 16.9716C147.722 16.7457 147.291 16.6328 146.797 16.6328C146.26 16.6328 145.791 16.7649 145.391 17.0291C144.994 17.2891 144.687 17.63 144.47 18.0518C144.257 18.4695 144.15 18.9233 144.15 19.4134V20.532C144.15 21.1882 144.266 21.7464 144.496 22.2067C144.73 22.6669 145.056 23.0185 145.474 23.2614C145.891 23.5 146.379 23.6193 146.937 23.6193C147.3 23.6193 147.63 23.5682 147.928 23.4659C148.226 23.3594 148.484 23.2017 148.702 22.9929C148.919 22.7841 149.085 22.5263 149.2 22.2195L151.009 22.5455C150.864 23.0781 150.604 23.5447 150.229 23.9453C149.859 24.3416 149.392 24.6506 148.829 24.8722C148.271 25.0895 147.634 25.1982 146.918 25.1982ZM160.968 17.5788L159.236 17.8857C159.164 17.6641 159.049 17.4531 158.891 17.2528C158.738 17.0526 158.529 16.8885 158.265 16.7607C158 16.6328 157.67 16.5689 157.274 16.5689C156.733 16.5689 156.281 16.6903 155.919 16.9332C155.556 17.1719 155.375 17.4808 155.375 17.8601C155.375 18.1882 155.497 18.4524 155.74 18.6527C155.983 18.853 156.375 19.017 156.916 19.1449L158.476 19.5028C159.379 19.7116 160.052 20.0334 160.495 20.468C160.939 20.9027 161.16 21.4673 161.16 22.1619C161.16 22.75 160.99 23.2741 160.649 23.7344C160.312 24.1903 159.841 24.5483 159.236 24.8082C158.635 25.0682 157.939 25.1982 157.146 25.1982C156.047 25.1982 155.15 24.9638 154.455 24.495C153.76 24.022 153.334 23.3509 153.176 22.4815L155.024 22.2003C155.139 22.6818 155.375 23.0462 155.733 23.2933C156.091 23.5362 156.558 23.6577 157.133 23.6577C157.76 23.6577 158.26 23.5277 158.635 23.2678C159.01 23.0036 159.198 22.6818 159.198 22.3026C159.198 21.9957 159.083 21.7379 158.853 21.5291C158.627 21.3203 158.279 21.1626 157.811 21.0561L156.149 20.6918C155.233 20.483 154.555 20.1506 154.116 19.6946C153.681 19.2386 153.464 18.6612 153.464 17.9624C153.464 17.3828 153.626 16.8757 153.95 16.4411C154.274 16.0064 154.721 15.6676 155.292 15.4247C155.863 15.1776 156.517 15.054 157.255 15.054C158.316 15.054 159.151 15.2841 159.76 15.7443C160.37 16.2003 160.772 16.8118 160.968 17.5788ZM169.841 20.9283V15.1818H171.759V25H169.879V23.2997H169.777C169.551 23.8239 169.189 24.2607 168.69 24.6101C168.196 24.9553 167.58 25.1278 166.843 25.1278C166.212 25.1278 165.654 24.9893 165.168 24.7124C164.687 24.4311 164.308 24.0156 164.031 23.4659C163.758 22.9162 163.622 22.2365 163.622 21.4268V15.1818H165.533V21.1967C165.533 21.8658 165.718 22.3984 166.089 22.7947C166.46 23.1911 166.941 23.3892 167.533 23.3892C167.891 23.3892 168.247 23.2997 168.601 23.1207C168.959 22.9418 169.255 22.6712 169.489 22.3089C169.728 21.9467 169.845 21.4865 169.841 20.9283ZM176.598 11.9091V25H174.687V11.9091H176.598ZM184.112 15.1818V16.7159H178.749V15.1818H184.112ZM180.187 12.8295H182.099V22.1172C182.099 22.4879 182.154 22.767 182.265 22.9545C182.376 23.1378 182.518 23.2635 182.693 23.3317C182.872 23.3956 183.066 23.4276 183.275 23.4276C183.428 23.4276 183.562 23.4169 183.678 23.3956C183.793 23.3743 183.882 23.3572 183.946 23.3445L184.291 24.9233C184.18 24.9659 184.023 25.0085 183.818 25.0511C183.614 25.098 183.358 25.1236 183.051 25.1278C182.548 25.1364 182.079 25.0469 181.645 24.8594C181.21 24.6719 180.859 24.3821 180.59 23.9901C180.322 23.598 180.187 23.1058 180.187 22.5135V12.8295ZM193.785 17.5788L192.053 17.8857C191.981 17.6641 191.866 17.4531 191.708 17.2528C191.555 17.0526 191.346 16.8885 191.082 16.7607C190.817 16.6328 190.487 16.5689 190.091 16.5689C189.55 16.5689 189.098 16.6903 188.736 16.9332C188.373 17.1719 188.192 17.4808 188.192 17.8601C188.192 18.1882 188.314 18.4524 188.557 18.6527C188.8 18.853 189.192 19.017 189.733 19.1449L191.292 19.5028C192.196 19.7116 192.869 20.0334 193.312 20.468C193.756 20.9027 193.977 21.4673 193.977 22.1619C193.977 22.75 193.807 23.2741 193.466 23.7344C193.129 24.1903 192.658 24.5483 192.053 24.8082C191.452 25.0682 190.756 25.1982 189.963 25.1982C188.863 25.1982 187.966 24.9638 187.272 24.495C186.577 24.022 186.151 23.3509 185.993 22.4815L187.841 22.2003C187.956 22.6818 188.192 23.0462 188.55 23.2933C188.908 23.5362 189.375 23.6577 189.95 23.6577C190.577 23.6577 191.077 23.5277 191.452 23.2678C191.827 23.0036 192.015 22.6818 192.015 22.3026C192.015 21.9957 191.9 21.7379 191.67 21.5291C191.444 21.3203 191.096 21.1626 190.628 21.0561L188.966 20.6918C188.05 20.483 187.372 20.1506 186.933 19.6946C186.498 19.2386 186.281 18.6612 186.281 17.9624C186.281 17.3828 186.443 16.8757 186.767 16.4411C187.091 16.0064 187.538 15.6676 188.109 15.4247C188.68 15.1776 189.334 15.054 190.072 15.054C191.133 15.054 191.968 15.2841 192.577 15.7443C193.187 16.2003 193.589 16.8118 193.785 17.5788Z" fill="#1D3557"/>
</g>
<defs>
<filter id="filter0_d_2062_1013" x="0" y="0" width="211" height="41" filterUnits="userSpaceOnUse" color-interpolation-filters="sRGB">
<feFlood flood-opacity="0" result="BackgroundImageFix"/>
<feColorMatrix in="SourceAlpha" type="matrix" values="0 0 0 0 0 0 0 0 0 0 0 0 0 0 0 0 0 0 127 0" result="hardAlpha"/>
<feOffset dy="2"/>
<feGaussianBlur stdDeviation="4"/>
<feComposite in2="hardAlpha" operator="out"/>
<feColorMatrix type="matrix" values="0 0 0 0 0 0 0 0 0 0 0 0 0 0 0 0 0 0 0.15 0"/>
<feBlend mode="normal" in2="BackgroundImageFix" result="effect1_dropShadow_2062_1013"/>
<feBlend mode="normal" in="SourceGraphic" in2="effect1_dropShadow_2062_1013" result="shape"/>
</filter>
</defs>
</svg>
