<svg width="98" height="38" viewBox="0 0 98 38" fill="none" xmlns="http://www.w3.org/2000/svg">
<g filter="url(#filter0_di_2062_1006)">
<path d="M19 0.5H79C87.0081 0.5 93.5 6.99187 93.5 15C93.5 23.0081 87.0081 29.5 79 29.5H19C10.9919 29.5 4.5 23.0081 4.5 15C4.5 6.99187 10.9919 0.5 19 0.5Z" fill="#DCE6F1" fill-opacity="0.4" stroke="#BFD0DB"/>
<mask id="path-2-outside-1_2062_1006" maskUnits="userSpaceOnUse" x="11" y="7" width="76" height="16" fill="black">
<rect fill="white" x="11" y="7" width="76" height="16"/>
<path d="M12.513 21V9.36364H16.6608C17.5623 9.36364 18.3104 9.51894 18.9051 9.82955C19.5036 10.1402 19.9505 10.5701 20.246 11.1193C20.5414 11.6648 20.6892 12.2955 20.6892 13.0114C20.6892 13.7235 20.5395 14.3504 20.2403 14.892C19.9448 15.4299 19.4979 15.8485 18.8994 16.1477C18.3047 16.447 17.5566 16.5966 16.6551 16.5966H13.513V15.0852H16.496C17.0642 15.0852 17.5263 15.0038 17.8823 14.8409C18.2422 14.678 18.5055 14.4413 18.6721 14.1307C18.8388 13.8201 18.9221 13.447 18.9221 13.0114C18.9221 12.572 18.8369 12.1913 18.6664 11.8693C18.4998 11.5473 18.2365 11.3011 17.8767 11.1307C17.5206 10.9564 17.0528 10.8693 16.4733 10.8693H14.2687V21H12.513ZM18.2573 15.75L21.1323 21H19.1323L16.3142 15.75H18.2573ZM26.4212 21.1761C25.5613 21.1761 24.8208 20.9924 24.1996 20.625C23.5821 20.2538 23.1049 19.733 22.7677 19.0625C22.4344 18.3883 22.2677 17.5985 22.2677 16.6932C22.2677 15.7992 22.4344 15.0114 22.7677 14.3295C23.1049 13.6477 23.5746 13.1155 24.1768 12.733C24.7829 12.3504 25.4912 12.1591 26.3018 12.1591C26.7943 12.1591 27.2715 12.2405 27.7337 12.4034C28.1958 12.5663 28.6105 12.822 28.978 13.1705C29.3454 13.5189 29.6352 13.9716 29.8473 14.5284C30.0594 15.0814 30.1655 15.7538 30.1655 16.5455V17.1477H23.228V15.875H28.5007C28.5007 15.428 28.4098 15.0322 28.228 14.6875C28.0462 14.339 27.7905 14.0644 27.4609 13.8636C27.1352 13.6629 26.7526 13.5625 26.3132 13.5625C25.8359 13.5625 25.4193 13.6799 25.0632 13.9148C24.7109 14.1458 24.4382 14.4489 24.245 14.8239C24.0556 15.1951 23.9609 15.5985 23.9609 16.0341V17.0284C23.9609 17.6117 24.0632 18.108 24.2677 18.517C24.4761 18.9261 24.7659 19.2386 25.1371 19.4545C25.5083 19.6667 25.942 19.7727 26.4382 19.7727C26.7602 19.7727 27.0537 19.7273 27.3189 19.6364C27.584 19.5417 27.8132 19.4015 28.0064 19.2159C28.1996 19.0303 28.3473 18.8011 28.4496 18.5284L30.0575 18.8182C29.9287 19.2917 29.6977 19.7064 29.3643 20.0625C29.0348 20.4148 28.62 20.6894 28.12 20.8864C27.6238 21.0795 27.0575 21.1761 26.4212 21.1761ZM33.8293 9.36364V21H32.1304V9.36364H33.8293ZM38.7346 21.1932C38.1815 21.1932 37.6815 21.0909 37.2346 20.8864C36.7876 20.678 36.4334 20.3769 36.1721 19.983C35.9145 19.589 35.7857 19.1061 35.7857 18.5341C35.7857 18.0417 35.8804 17.6364 36.0698 17.3182C36.2592 17 36.5149 16.7481 36.8368 16.5625C37.1588 16.3769 37.5187 16.2367 37.9164 16.142C38.3141 16.0473 38.7194 15.9754 39.1323 15.9261C39.655 15.8655 40.0793 15.8163 40.405 15.7784C40.7308 15.7367 40.9675 15.6705 41.1152 15.5795C41.263 15.4886 41.3368 15.3409 41.3368 15.1364V15.0966C41.3368 14.6004 41.1967 14.2159 40.9164 13.9432C40.6399 13.6705 40.227 13.5341 39.6777 13.5341C39.1058 13.5341 38.655 13.661 38.3255 13.9148C37.9997 14.1648 37.7743 14.4432 37.6493 14.75L36.0527 14.3864C36.2421 13.8561 36.5187 13.428 36.8823 13.1023C37.2497 12.7727 37.6721 12.5341 38.1493 12.3864C38.6266 12.2348 39.1285 12.1591 39.655 12.1591C40.0035 12.1591 40.3728 12.2008 40.763 12.2841C41.1569 12.3636 41.5243 12.5114 41.8652 12.7273C42.2099 12.9432 42.4921 13.2519 42.7118 13.6534C42.9315 14.0511 43.0414 14.5682 43.0414 15.2045V21H41.3823V19.8068H41.3141C41.2043 20.0265 41.0395 20.2424 40.8198 20.4545C40.6001 20.6667 40.3179 20.8428 39.9732 20.983C39.6285 21.1231 39.2156 21.1932 38.7346 21.1932ZM39.1039 19.8295C39.5736 19.8295 39.9751 19.7367 40.3084 19.5511C40.6455 19.3655 40.9012 19.1231 41.0755 18.8239C41.2535 18.5208 41.3425 18.197 41.3425 17.8523V16.7273C41.2819 16.7879 41.1645 16.8447 40.9902 16.8977C40.8198 16.947 40.6247 16.9905 40.405 17.0284C40.1853 17.0625 39.9713 17.0947 39.763 17.125C39.5546 17.1515 39.3804 17.1742 39.2402 17.1932C38.9107 17.2348 38.6096 17.3049 38.3368 17.4034C38.0679 17.5019 37.852 17.6439 37.6891 17.8295C37.53 18.0114 37.4505 18.2538 37.4505 18.5568C37.4505 18.9773 37.6058 19.2955 37.9164 19.5114C38.227 19.7235 38.6228 19.8295 39.1039 19.8295ZM49.458 12.2727V13.6364H44.691V12.2727H49.458ZM45.9694 10.1818H47.6683V18.4375C47.6683 18.767 47.7175 19.0152 47.816 19.1818C47.9145 19.3447 48.0414 19.4564 48.1967 19.517C48.3558 19.5739 48.5281 19.6023 48.7137 19.6023C48.8501 19.6023 48.9694 19.5928 49.0717 19.5739C49.1739 19.5549 49.2535 19.5398 49.3103 19.5284L49.6171 20.9318C49.5186 20.9697 49.3785 21.0076 49.1967 21.0455C49.0148 21.0871 48.7876 21.1098 48.5148 21.1136C48.0679 21.1212 47.6512 21.0417 47.2648 20.875C46.8785 20.7083 46.566 20.4508 46.3273 20.1023C46.0887 19.7538 45.9694 19.3163 45.9694 18.7898V10.1818ZM51.4173 21V12.2727H53.1162V21H51.4173ZM52.2752 10.9261C51.9798 10.9261 51.726 10.8277 51.5139 10.6307C51.3055 10.4299 51.2014 10.1913 51.2014 9.91477C51.2014 9.63447 51.3055 9.39583 51.5139 9.19886C51.726 8.99811 51.9798 8.89773 52.2752 8.89773C52.5707 8.89773 52.8226 8.99811 53.0309 9.19886C53.243 9.39583 53.3491 9.63447 53.3491 9.91477C53.3491 10.1913 53.243 10.4299 53.0309 10.6307C52.8226 10.8277 52.5707 10.9261 52.2752 10.9261ZM59.1578 21.1761C58.3396 21.1761 57.6256 20.9886 57.0158 20.6136C56.4059 20.2386 55.9324 19.714 55.5953 19.0398C55.2582 18.3655 55.0896 17.5777 55.0896 16.6761C55.0896 15.7708 55.2582 14.9792 55.5953 14.3011C55.9324 13.6231 56.4059 13.0966 57.0158 12.7216C57.6256 12.3466 58.3396 12.1591 59.1578 12.1591C59.976 12.1591 60.69 12.3466 61.2998 12.7216C61.9097 13.0966 62.3832 13.6231 62.7203 14.3011C63.0574 14.9792 63.226 15.7708 63.226 16.6761C63.226 17.5777 63.0574 18.3655 62.7203 19.0398C62.3832 19.714 61.9097 20.2386 61.2998 20.6136C60.69 20.9886 59.976 21.1761 59.1578 21.1761ZM59.1635 19.75C59.6938 19.75 60.1332 19.6098 60.4817 19.3295C60.8301 19.0492 61.0877 18.6761 61.2544 18.2102C61.4248 17.7443 61.5101 17.2311 61.5101 16.6705C61.5101 16.1136 61.4248 15.6023 61.2544 15.1364C61.0877 14.6667 60.8301 14.2898 60.4817 14.0057C60.1332 13.7216 59.6938 13.5795 59.1635 13.5795C58.6294 13.5795 58.1862 13.7216 57.8339 14.0057C57.4855 14.2898 57.226 14.6667 57.0555 15.1364C56.8889 15.6023 56.8055 16.1136 56.8055 16.6705C56.8055 17.2311 56.8889 17.7443 57.0555 18.2102C57.226 18.6761 57.4855 19.0492 57.8339 19.3295C58.1862 19.6098 58.6294 19.75 59.1635 19.75ZM66.9012 15.8182V21H65.2023V12.2727H66.833V13.6932H66.9409C67.1417 13.2311 67.4561 12.8598 67.8841 12.5795C68.3159 12.2992 68.8595 12.1591 69.5148 12.1591C70.1095 12.1591 70.6303 12.2841 71.0773 12.5341C71.5243 12.7803 71.8709 13.1477 72.1171 13.6364C72.3633 14.125 72.4864 14.7292 72.4864 15.4489V21H70.7875V15.6534C70.7875 15.0208 70.6227 14.5265 70.2932 14.1705C69.9637 13.8106 69.511 13.6307 68.9352 13.6307C68.5413 13.6307 68.1909 13.7159 67.8841 13.8864C67.5811 14.0568 67.3405 14.3068 67.1625 14.6364C66.9883 14.9621 66.9012 15.3561 66.9012 15.8182ZM77.3846 21.1932C76.8315 21.1932 76.3315 21.0909 75.8846 20.8864C75.4376 20.678 75.0834 20.3769 74.8221 19.983C74.5645 19.589 74.4357 19.1061 74.4357 18.5341C74.4357 18.0417 74.5304 17.6364 74.7198 17.3182C74.9092 17 75.1649 16.7481 75.4868 16.5625C75.8088 16.3769 76.1687 16.2367 76.5664 16.142C76.9641 16.0473 77.3694 15.9754 77.7823 15.9261C78.305 15.8655 78.7293 15.8163 79.055 15.7784C79.3808 15.7367 79.6175 15.6705 79.7652 15.5795C79.913 15.4886 79.9868 15.3409 79.9868 15.1364V15.0966C79.9868 14.6004 79.8467 14.2159 79.5664 13.9432C79.2899 13.6705 78.877 13.5341 78.3277 13.5341C77.7558 13.5341 77.305 13.661 76.9755 13.9148C76.6497 14.1648 76.4243 14.4432 76.2993 14.75L74.7027 14.3864C74.8921 13.8561 75.1687 13.428 75.5323 13.1023C75.8997 12.7727 76.3221 12.5341 76.7993 12.3864C77.2766 12.2348 77.7785 12.1591 78.305 12.1591C78.6535 12.1591 79.0228 12.2008 79.413 12.2841C79.8069 12.3636 80.1743 12.5114 80.5152 12.7273C80.8599 12.9432 81.1421 13.2519 81.3618 13.6534C81.5815 14.0511 81.6914 14.5682 81.6914 15.2045V21H80.0323V19.8068H79.9641C79.8543 20.0265 79.6895 20.2424 79.4698 20.4545C79.2501 20.6667 78.9679 20.8428 78.6232 20.983C78.2785 21.1231 77.8656 21.1932 77.3846 21.1932ZM77.7539 19.8295C78.2236 19.8295 78.6251 19.7367 78.9584 19.5511C79.2955 19.3655 79.5512 19.1231 79.7255 18.8239C79.9035 18.5208 79.9925 18.197 79.9925 17.8523V16.7273C79.9319 16.7879 79.8145 16.8447 79.6402 16.8977C79.4698 16.947 79.2747 16.9905 79.055 17.0284C78.8353 17.0625 78.6213 17.0947 78.413 17.125C78.2046 17.1515 78.0304 17.1742 77.8902 17.1932C77.5607 17.2348 77.2596 17.3049 76.9868 17.4034C76.7179 17.5019 76.502 17.6439 76.3391 17.8295C76.18 18.0114 76.1005 18.2538 76.1005 18.5568C76.1005 18.9773 76.2558 19.2955 76.5664 19.5114C76.877 19.7235 77.2728 19.8295 77.7539 19.8295ZM85.733 9.36364V21H84.0342V9.36364H85.733Z"/>
</mask>
<path d="M12.513 21V9.36364H16.6608C17.5623 9.36364 18.3104 9.51894 18.9051 9.82955C19.5036 10.1402 19.9505 10.5701 20.246 11.1193C20.5414 11.6648 20.6892 12.2955 20.6892 13.0114C20.6892 13.7235 20.5395 14.3504 20.2403 14.892C19.9448 15.4299 19.4979 15.8485 18.8994 16.1477C18.3047 16.447 17.5566 16.5966 16.6551 16.5966H13.513V15.0852H16.496C17.0642 15.0852 17.5263 15.0038 17.8823 14.8409C18.2422 14.678 18.5055 14.4413 18.6721 14.1307C18.8388 13.8201 18.9221 13.447 18.9221 13.0114C18.9221 12.572 18.8369 12.1913 18.6664 11.8693C18.4998 11.5473 18.2365 11.3011 17.8767 11.1307C17.5206 10.9564 17.0528 10.8693 16.4733 10.8693H14.2687V21H12.513ZM18.2573 15.75L21.1323 21H19.1323L16.3142 15.75H18.2573ZM26.4212 21.1761C25.5613 21.1761 24.8208 20.9924 24.1996 20.625C23.5821 20.2538 23.1049 19.733 22.7677 19.0625C22.4344 18.3883 22.2677 17.5985 22.2677 16.6932C22.2677 15.7992 22.4344 15.0114 22.7677 14.3295C23.1049 13.6477 23.5746 13.1155 24.1768 12.733C24.7829 12.3504 25.4912 12.1591 26.3018 12.1591C26.7943 12.1591 27.2715 12.2405 27.7337 12.4034C28.1958 12.5663 28.6105 12.822 28.978 13.1705C29.3454 13.5189 29.6352 13.9716 29.8473 14.5284C30.0594 15.0814 30.1655 15.7538 30.1655 16.5455V17.1477H23.228V15.875H28.5007C28.5007 15.428 28.4098 15.0322 28.228 14.6875C28.0462 14.339 27.7905 14.0644 27.4609 13.8636C27.1352 13.6629 26.7526 13.5625 26.3132 13.5625C25.8359 13.5625 25.4193 13.6799 25.0632 13.9148C24.7109 14.1458 24.4382 14.4489 24.245 14.8239C24.0556 15.1951 23.9609 15.5985 23.9609 16.0341V17.0284C23.9609 17.6117 24.0632 18.108 24.2677 18.517C24.4761 18.9261 24.7659 19.2386 25.1371 19.4545C25.5083 19.6667 25.942 19.7727 26.4382 19.7727C26.7602 19.7727 27.0537 19.7273 27.3189 19.6364C27.584 19.5417 27.8132 19.4015 28.0064 19.2159C28.1996 19.0303 28.3473 18.8011 28.4496 18.5284L30.0575 18.8182C29.9287 19.2917 29.6977 19.7064 29.3643 20.0625C29.0348 20.4148 28.62 20.6894 28.12 20.8864C27.6238 21.0795 27.0575 21.1761 26.4212 21.1761ZM33.8293 9.36364V21H32.1304V9.36364H33.8293ZM38.7346 21.1932C38.1815 21.1932 37.6815 21.0909 37.2346 20.8864C36.7876 20.678 36.4334 20.3769 36.1721 19.983C35.9145 19.589 35.7857 19.1061 35.7857 18.5341C35.7857 18.0417 35.8804 17.6364 36.0698 17.3182C36.2592 17 36.5149 16.7481 36.8368 16.5625C37.1588 16.3769 37.5187 16.2367 37.9164 16.142C38.3141 16.0473 38.7194 15.9754 39.1323 15.9261C39.655 15.8655 40.0793 15.8163 40.405 15.7784C40.7308 15.7367 40.9675 15.6705 41.1152 15.5795C41.263 15.4886 41.3368 15.3409 41.3368 15.1364V15.0966C41.3368 14.6004 41.1967 14.2159 40.9164 13.9432C40.6399 13.6705 40.227 13.5341 39.6777 13.5341C39.1058 13.5341 38.655 13.661 38.3255 13.9148C37.9997 14.1648 37.7743 14.4432 37.6493 14.75L36.0527 14.3864C36.2421 13.8561 36.5187 13.428 36.8823 13.1023C37.2497 12.7727 37.6721 12.5341 38.1493 12.3864C38.6266 12.2348 39.1285 12.1591 39.655 12.1591C40.0035 12.1591 40.3728 12.2008 40.763 12.2841C41.1569 12.3636 41.5243 12.5114 41.8652 12.7273C42.2099 12.9432 42.4921 13.2519 42.7118 13.6534C42.9315 14.0511 43.0414 14.5682 43.0414 15.2045V21H41.3823V19.8068H41.3141C41.2043 20.0265 41.0395 20.2424 40.8198 20.4545C40.6001 20.6667 40.3179 20.8428 39.9732 20.983C39.6285 21.1231 39.2156 21.1932 38.7346 21.1932ZM39.1039 19.8295C39.5736 19.8295 39.9751 19.7367 40.3084 19.5511C40.6455 19.3655 40.9012 19.1231 41.0755 18.8239C41.2535 18.5208 41.3425 18.197 41.3425 17.8523V16.7273C41.2819 16.7879 41.1645 16.8447 40.9902 16.8977C40.8198 16.947 40.6247 16.9905 40.405 17.0284C40.1853 17.0625 39.9713 17.0947 39.763 17.125C39.5546 17.1515 39.3804 17.1742 39.2402 17.1932C38.9107 17.2348 38.6096 17.3049 38.3368 17.4034C38.0679 17.5019 37.852 17.6439 37.6891 17.8295C37.53 18.0114 37.4505 18.2538 37.4505 18.5568C37.4505 18.9773 37.6058 19.2955 37.9164 19.5114C38.227 19.7235 38.6228 19.8295 39.1039 19.8295ZM49.458 12.2727V13.6364H44.691V12.2727H49.458ZM45.9694 10.1818H47.6683V18.4375C47.6683 18.767 47.7175 19.0152 47.816 19.1818C47.9145 19.3447 48.0414 19.4564 48.1967 19.517C48.3558 19.5739 48.5281 19.6023 48.7137 19.6023C48.8501 19.6023 48.9694 19.5928 49.0717 19.5739C49.1739 19.5549 49.2535 19.5398 49.3103 19.5284L49.6171 20.9318C49.5186 20.9697 49.3785 21.0076 49.1967 21.0455C49.0148 21.0871 48.7876 21.1098 48.5148 21.1136C48.0679 21.1212 47.6512 21.0417 47.2648 20.875C46.8785 20.7083 46.566 20.4508 46.3273 20.1023C46.0887 19.7538 45.9694 19.3163 45.9694 18.7898V10.1818ZM51.4173 21V12.2727H53.1162V21H51.4173ZM52.2752 10.9261C51.9798 10.9261 51.726 10.8277 51.5139 10.6307C51.3055 10.4299 51.2014 10.1913 51.2014 9.91477C51.2014 9.63447 51.3055 9.39583 51.5139 9.19886C51.726 8.99811 51.9798 8.89773 52.2752 8.89773C52.5707 8.89773 52.8226 8.99811 53.0309 9.19886C53.243 9.39583 53.3491 9.63447 53.3491 9.91477C53.3491 10.1913 53.243 10.4299 53.0309 10.6307C52.8226 10.8277 52.5707 10.9261 52.2752 10.9261ZM59.1578 21.1761C58.3396 21.1761 57.6256 20.9886 57.0158 20.6136C56.4059 20.2386 55.9324 19.714 55.5953 19.0398C55.2582 18.3655 55.0896 17.5777 55.0896 16.6761C55.0896 15.7708 55.2582 14.9792 55.5953 14.3011C55.9324 13.6231 56.4059 13.0966 57.0158 12.7216C57.6256 12.3466 58.3396 12.1591 59.1578 12.1591C59.976 12.1591 60.69 12.3466 61.2998 12.7216C61.9097 13.0966 62.3832 13.6231 62.7203 14.3011C63.0574 14.9792 63.226 15.7708 63.226 16.6761C63.226 17.5777 63.0574 18.3655 62.7203 19.0398C62.3832 19.714 61.9097 20.2386 61.2998 20.6136C60.69 20.9886 59.976 21.1761 59.1578 21.1761ZM59.1635 19.75C59.6938 19.75 60.1332 19.6098 60.4817 19.3295C60.8301 19.0492 61.0877 18.6761 61.2544 18.2102C61.4248 17.7443 61.5101 17.2311 61.5101 16.6705C61.5101 16.1136 61.4248 15.6023 61.2544 15.1364C61.0877 14.6667 60.8301 14.2898 60.4817 14.0057C60.1332 13.7216 59.6938 13.5795 59.1635 13.5795C58.6294 13.5795 58.1862 13.7216 57.8339 14.0057C57.4855 14.2898 57.226 14.6667 57.0555 15.1364C56.8889 15.6023 56.8055 16.1136 56.8055 16.6705C56.8055 17.2311 56.8889 17.7443 57.0555 18.2102C57.226 18.6761 57.4855 19.0492 57.8339 19.3295C58.1862 19.6098 58.6294 19.75 59.1635 19.75ZM66.9012 15.8182V21H65.2023V12.2727H66.833V13.6932H66.9409C67.1417 13.2311 67.4561 12.8598 67.8841 12.5795C68.3159 12.2992 68.8595 12.1591 69.5148 12.1591C70.1095 12.1591 70.6303 12.2841 71.0773 12.5341C71.5243 12.7803 71.8709 13.1477 72.1171 13.6364C72.3633 14.125 72.4864 14.7292 72.4864 15.4489V21H70.7875V15.6534C70.7875 15.0208 70.6227 14.5265 70.2932 14.1705C69.9637 13.8106 69.511 13.6307 68.9352 13.6307C68.5413 13.6307 68.1909 13.7159 67.8841 13.8864C67.5811 14.0568 67.3405 14.3068 67.1625 14.6364C66.9883 14.9621 66.9012 15.3561 66.9012 15.8182ZM77.3846 21.1932C76.8315 21.1932 76.3315 21.0909 75.8846 20.8864C75.4376 20.678 75.0834 20.3769 74.8221 19.983C74.5645 19.589 74.4357 19.1061 74.4357 18.5341C74.4357 18.0417 74.5304 17.6364 74.7198 17.3182C74.9092 17 75.1649 16.7481 75.4868 16.5625C75.8088 16.3769 76.1687 16.2367 76.5664 16.142C76.9641 16.0473 77.3694 15.9754 77.7823 15.9261C78.305 15.8655 78.7293 15.8163 79.055 15.7784C79.3808 15.7367 79.6175 15.6705 79.7652 15.5795C79.913 15.4886 79.9868 15.3409 79.9868 15.1364V15.0966C79.9868 14.6004 79.8467 14.2159 79.5664 13.9432C79.2899 13.6705 78.877 13.5341 78.3277 13.5341C77.7558 13.5341 77.305 13.661 76.9755 13.9148C76.6497 14.1648 76.4243 14.4432 76.2993 14.75L74.7027 14.3864C74.8921 13.8561 75.1687 13.428 75.5323 13.1023C75.8997 12.7727 76.3221 12.5341 76.7993 12.3864C77.2766 12.2348 77.7785 12.1591 78.305 12.1591C78.6535 12.1591 79.0228 12.2008 79.413 12.2841C79.8069 12.3636 80.1743 12.5114 80.5152 12.7273C80.8599 12.9432 81.1421 13.2519 81.3618 13.6534C81.5815 14.0511 81.6914 14.5682 81.6914 15.2045V21H80.0323V19.8068H79.9641C79.8543 20.0265 79.6895 20.2424 79.4698 20.4545C79.2501 20.6667 78.9679 20.8428 78.6232 20.983C78.2785 21.1231 77.8656 21.1932 77.3846 21.1932ZM77.7539 19.8295C78.2236 19.8295 78.6251 19.7367 78.9584 19.5511C79.2955 19.3655 79.5512 19.1231 79.7255 18.8239C79.9035 18.5208 79.9925 18.197 79.9925 17.8523V16.7273C79.9319 16.7879 79.8145 16.8447 79.6402 16.8977C79.4698 16.947 79.2747 16.9905 79.055 17.0284C78.8353 17.0625 78.6213 17.0947 78.413 17.125C78.2046 17.1515 78.0304 17.1742 77.8902 17.1932C77.5607 17.2348 77.2596 17.3049 76.9868 17.4034C76.7179 17.5019 76.502 17.6439 76.3391 17.8295C76.18 18.0114 76.1005 18.2538 76.1005 18.5568C76.1005 18.9773 76.2558 19.2955 76.5664 19.5114C76.877 19.7235 77.2728 19.8295 77.7539 19.8295ZM85.733 9.36364V21H84.0342V9.36364H85.733Z" fill="#244F85"/>
<path d="M12.513 21H11.513V22H12.513V21ZM12.513 9.36364V8.36364H11.513V9.36364H12.513ZM18.9051 9.82955L18.4421 10.7159L18.4444 10.7171L18.9051 9.82955ZM20.246 11.1193L19.3653 11.5931L19.3667 11.5956L20.246 11.1193ZM20.2403 14.892L19.365 14.4085L19.3638 14.4106L20.2403 14.892ZM18.8994 16.1477L18.4522 15.2533L18.4499 15.2544L18.8994 16.1477ZM13.513 16.5966H12.513V17.5966H13.513V16.5966ZM13.513 15.0852V14.0852H12.513V15.0852H13.513ZM17.8823 14.8409L17.47 13.9299L17.4664 13.9315L17.8823 14.8409ZM18.6664 11.8693L17.7783 12.329L17.7826 12.3372L18.6664 11.8693ZM17.8767 11.1307L17.4371 12.029L17.4486 12.0344L17.8767 11.1307ZM14.2687 10.8693V9.86932H13.2687V10.8693H14.2687ZM14.2687 21V22H15.2687V21H14.2687ZM18.2573 15.75L19.1344 15.2697L18.8499 14.75H18.2573V15.75ZM21.1323 21V22H22.8201L22.0094 20.5197L21.1323 21ZM19.1323 21L18.2513 21.473L18.5342 22H19.1323V21ZM16.3142 15.75V14.75H14.6424L15.4331 16.223L16.3142 15.75ZM12.513 21H13.513V9.36364H12.513H11.513V21H12.513ZM12.513 9.36364V10.3636H16.6608V9.36364V8.36364H12.513V9.36364ZM16.6608 9.36364V10.3636C17.454 10.3636 18.0309 10.5011 18.4421 10.7159L18.9051 9.82955L19.368 8.94316C18.5899 8.53673 17.6705 8.36364 16.6608 8.36364V9.36364ZM18.9051 9.82955L18.4444 10.7171C18.8797 10.943 19.1729 11.2353 19.3653 11.5931L20.246 11.1193L21.1266 10.6456C20.7282 9.90481 20.1274 9.33728 19.3657 8.94196L18.9051 9.82955ZM20.246 11.1193L19.3667 11.5956C19.5715 11.9737 19.6892 12.436 19.6892 13.0114H20.6892H21.6892C21.6892 12.1549 21.5114 11.3559 21.1253 10.643L20.246 11.1193ZM20.6892 13.0114H19.6892C19.6892 13.5801 19.5708 14.0359 19.365 14.4085L20.2403 14.892L21.1156 15.3756C21.5083 14.6649 21.6892 13.8669 21.6892 13.0114H20.6892ZM20.2403 14.892L19.3638 14.4106C19.1751 14.7543 18.8862 15.0363 18.4522 15.2533L18.8994 16.1477L19.3466 17.0422C20.1096 16.6607 20.7146 16.1056 21.1168 15.3735L20.2403 14.892ZM18.8994 16.1477L18.4499 15.2544C18.0351 15.4632 17.4531 15.5966 16.6551 15.5966V16.5966V17.5966C17.6601 17.5966 18.5743 17.4308 19.3489 17.041L18.8994 16.1477ZM16.6551 16.5966V15.5966H13.513V16.5966V17.5966H16.6551V16.5966ZM13.513 16.5966H14.513V15.0852H13.513H12.513V16.5966H13.513ZM13.513 15.0852V16.0852H16.496V15.0852V14.0852H13.513V15.0852ZM16.496 15.0852V16.0852C17.148 16.0852 17.7666 15.9935 18.2983 15.7503L17.8823 14.8409L17.4664 13.9315C17.286 14.014 16.9803 14.0852 16.496 14.0852V15.0852ZM17.8823 14.8409L18.2947 15.7519C18.8293 15.5099 19.2703 15.1309 19.5533 14.6035L18.6721 14.1307L17.791 13.6579C17.7406 13.7517 17.6551 13.8461 17.47 13.9299L17.8823 14.8409ZM18.6721 14.1307L19.5533 14.6035C19.8143 14.1171 19.9221 13.5736 19.9221 13.0114H18.9221H17.9221C17.9221 13.3203 17.8633 13.5231 17.791 13.6579L18.6721 14.1307ZM18.9221 13.0114H19.9221C19.9221 12.4422 19.8112 11.8944 19.5502 11.4014L18.6664 11.8693L17.7826 12.3372C17.8626 12.4882 17.9221 12.7017 17.9221 13.0114H18.9221ZM18.6664 11.8693L19.5545 11.4096C19.2773 10.874 18.8418 10.4813 18.3047 10.2269L17.8767 11.1307L17.4486 12.0344C17.6312 12.1209 17.7223 12.2207 17.7784 12.329L18.6664 11.8693ZM17.8767 11.1307L18.3162 10.2325C17.7749 9.96759 17.1402 9.86932 16.4733 9.86932V10.8693V11.8693C16.9654 11.8693 17.2663 11.9453 17.4371 12.0289L17.8767 11.1307ZM16.4733 10.8693V9.86932H14.2687V10.8693V11.8693H16.4733V10.8693ZM14.2687 10.8693H13.2687V21H14.2687H15.2687V10.8693H14.2687ZM14.2687 21V20H12.513V21V22H14.2687V21ZM18.2573 15.75L17.3803 16.2303L20.2553 21.4803L21.1323 21L22.0094 20.5197L19.1344 15.2697L18.2573 15.75ZM21.1323 21V20H19.1323V21V22H21.1323V21ZM19.1323 21L20.0134 20.527L17.1952 15.277L16.3142 15.75L15.4331 16.223L18.2513 21.473L19.1323 21ZM16.3142 15.75V16.75H18.2573V15.75V14.75H16.3142V15.75ZM24.1996 20.625L23.6843 21.4821L23.6905 21.4857L24.1996 20.625ZM22.7677 19.0625L21.8713 19.5057L21.8743 19.5117L22.7677 19.0625ZM22.7677 14.3295L21.8713 13.8863L21.8694 13.8903L22.7677 14.3295ZM24.1768 12.733L23.643 11.8873L23.6406 11.8889L24.1768 12.733ZM27.7337 12.4034L28.0661 11.4603V11.4603L27.7337 12.4034ZM28.978 13.1705L28.2898 13.896V13.896L28.978 13.1705ZM29.8473 14.5284L28.9128 14.8844L28.9136 14.8865L29.8473 14.5284ZM30.1655 17.1477V18.1477H31.1655V17.1477H30.1655ZM23.228 17.1477H22.228V18.1477H23.228V17.1477ZM23.228 15.875V14.875H22.228V15.875H23.228ZM28.5007 15.875V16.875H29.5007V15.875H28.5007ZM28.228 14.6875L27.3414 15.1501L27.3435 15.154L28.228 14.6875ZM27.4609 13.8636L26.9363 14.715L26.9407 14.7176L27.4609 13.8636ZM25.0632 13.9148L25.6117 14.751L25.6138 14.7495L25.0632 13.9148ZM24.245 14.8239L23.356 14.3659L23.3543 14.3694L24.245 14.8239ZM24.2677 18.517L23.3733 18.9643L23.3766 18.9708L24.2677 18.517ZM25.1371 19.4545L24.6343 20.319L24.6409 20.3228L25.1371 19.4545ZM27.3189 19.6364L27.6432 20.5824L27.6552 20.5781L27.3189 19.6364ZM28.0064 19.2159L27.3136 18.4948V18.4948L28.0064 19.2159ZM28.4496 18.5284L28.6269 17.5443L27.8061 17.3963L27.5132 18.1773L28.4496 18.5284ZM30.0575 18.8182L31.0225 19.0806L31.3089 18.0276L30.2349 17.834L30.0575 18.8182ZM29.3643 20.0625L28.6343 19.3791L28.6341 19.3793L29.3643 20.0625ZM28.12 20.8864L28.4828 21.8182L28.4865 21.8168L28.12 20.8864ZM26.4212 21.1761V20.1761C25.706 20.1761 25.1485 20.0245 24.7086 19.7643L24.1996 20.625L23.6905 21.4857C24.493 21.9604 25.4167 22.1761 26.4212 22.1761V21.1761ZM24.1996 20.625L24.7148 19.768C24.2664 19.4984 23.917 19.1222 23.6612 18.6133L22.7677 19.0625L21.8743 19.5117C22.2927 20.3437 22.8978 21.0092 23.6843 21.482L24.1996 20.625ZM22.7677 19.0625L23.6642 18.6193C23.4115 18.1082 23.2677 17.4757 23.2677 16.6932H22.2677H21.2677C21.2677 17.7213 21.4574 18.6684 21.8713 19.5057L22.7677 19.0625ZM22.2677 16.6932H23.2677C23.2677 15.9246 23.4105 15.2915 23.6661 14.7688L22.7677 14.3295L21.8694 13.8903C21.4583 14.7312 21.2677 15.6739 21.2677 16.6932H22.2677ZM22.7677 14.3295L23.6642 14.7728C23.9257 14.2438 24.2755 13.855 24.713 13.5771L24.1768 12.733L23.6406 11.8889C22.8736 12.3761 22.284 13.0517 21.8713 13.8863L22.7677 14.3295ZM24.1768 12.733L24.7106 13.5786C25.1367 13.3096 25.6547 13.1591 26.3018 13.1591V12.1591V11.1591C25.3277 11.1591 24.4291 11.3911 23.643 11.8873L24.1768 12.733ZM26.3018 12.1591V13.1591C26.6816 13.1591 27.0464 13.2215 27.4012 13.3465L27.7337 12.4034L28.0661 11.4603C27.4966 11.2596 26.9069 11.1591 26.3018 11.1591V12.1591ZM27.7337 12.4034L27.4012 13.3465C27.7263 13.4611 28.0209 13.6409 28.2898 13.896L28.978 13.1705L29.6661 12.4449C29.2002 12.003 28.6652 11.6715 28.0661 11.4603L27.7337 12.4034ZM28.978 13.1705L28.2898 13.896C28.5309 14.1246 28.7447 14.4431 28.9128 14.8844L29.8473 14.5284L30.7818 14.1724C30.5256 13.5001 30.1599 12.9132 29.6661 12.4449L28.978 13.1705ZM29.8473 14.5284L28.9136 14.8865C29.0699 15.2939 29.1655 15.8375 29.1655 16.5455H30.1655H31.1655C31.1655 15.6701 31.0489 14.869 30.781 14.1703L29.8473 14.5284ZM30.1655 16.5455H29.1655V17.1477H30.1655H31.1655V16.5455H30.1655ZM30.1655 17.1477V16.1477H23.228V17.1477V18.1477H30.1655V17.1477ZM23.228 17.1477H24.228V15.875H23.228H22.228V17.1477H23.228ZM23.228 15.875V16.875H28.5007V15.875V14.875H23.228V15.875ZM28.5007 15.875H29.5007C29.5007 15.2895 29.3806 14.7293 29.1125 14.221L28.228 14.6875L27.3435 15.154C27.439 15.3351 27.5007 15.5666 27.5007 15.875H28.5007ZM28.228 14.6875L29.1146 14.2249C28.8502 13.7182 28.4692 13.3069 27.9812 13.0096L27.4609 13.8636L26.9407 14.7176C27.1117 14.8219 27.2421 14.9598 27.3414 15.1501L28.228 14.6875ZM27.4609 13.8636L27.9856 13.0123C27.4798 12.7006 26.9098 12.5625 26.3132 12.5625V13.5625V14.5625C26.5954 14.5625 26.7905 14.6251 26.9363 14.715L27.4609 13.8636ZM26.3132 13.5625V12.5625C25.6643 12.5625 25.0511 12.7248 24.5126 13.08L25.0632 13.9148L25.6138 14.7495C25.7874 14.635 26.0076 14.5625 26.3132 14.5625V13.5625ZM25.0632 13.9148L24.5147 13.0786C24.018 13.4044 23.6281 13.8378 23.356 14.3659L24.245 14.8239L25.134 15.2818C25.2483 15.0599 25.4038 14.8873 25.6117 14.7509L25.0632 13.9148ZM24.245 14.8239L23.3543 14.3694C23.0898 14.8878 22.9609 15.4479 22.9609 16.0341H23.9609H24.9609C24.9609 15.7491 25.0215 15.5024 25.1358 15.2783L24.245 14.8239ZM23.9609 16.0341H22.9609V17.0284H23.9609H24.9609V16.0341H23.9609ZM23.9609 17.0284H22.9609C22.9609 17.7255 23.0829 18.3834 23.3733 18.9643L24.2677 18.517L25.1622 18.0698C25.0435 17.8325 24.9609 17.498 24.9609 17.0284H23.9609ZM24.2677 18.517L23.3766 18.9708C23.6659 19.5389 24.0852 19.9996 24.6343 20.319L25.1371 19.4545L25.6398 18.5901C25.4465 18.4777 25.2862 18.3133 25.1588 18.0632L24.2677 18.517ZM25.1371 19.4545L24.6409 20.3228C25.186 20.6343 25.7962 20.7727 26.4382 20.7727V19.7727V18.7727C26.0878 18.7727 25.8306 18.6991 25.6332 18.5863L25.1371 19.4545ZM26.4382 19.7727V20.7727C26.8544 20.7727 27.2594 20.7139 27.6432 20.5823L27.3189 19.6364L26.9946 18.6904C26.848 18.7407 26.6659 18.7727 26.4382 18.7727V19.7727ZM27.3189 19.6364L27.6552 20.5781C28.0465 20.4384 28.3989 20.2255 28.6992 19.937L28.0064 19.2159L27.3136 18.4948C27.2275 18.5775 27.1215 18.645 26.9825 18.6946L27.3189 19.6364ZM28.0064 19.2159L28.6992 19.937C29.0094 19.639 29.2358 19.2798 29.3859 18.8795L28.4496 18.5284L27.5132 18.1773C27.4588 18.3224 27.3898 18.4216 27.3136 18.4948L28.0064 19.2159ZM28.4496 18.5284L28.2722 19.5126L29.8802 19.8023L30.0575 18.8182L30.2349 17.834L28.6269 17.5443L28.4496 18.5284ZM30.0575 18.8182L29.0926 18.5557C29.0063 18.8728 28.8555 19.1428 28.6343 19.3791L29.3643 20.0625L30.0944 20.7459C30.5399 20.2701 30.8511 19.7105 31.0225 19.0806L30.0575 18.8182ZM29.3643 20.0625L28.6341 19.3793C28.417 19.6114 28.1313 19.8071 27.7535 19.956L28.12 20.8864L28.4865 21.8168C29.1088 21.5717 29.6526 21.2181 30.0946 20.7457L29.3643 20.0625ZM28.12 20.8864L27.7572 19.9545C27.3968 20.0948 26.9571 20.1761 26.4212 20.1761V21.1761V22.1761C27.158 22.1761 27.8508 22.0643 28.4828 21.8182L28.12 20.8864ZM33.8293 9.36364H34.8293V8.36364H33.8293V9.36364ZM33.8293 21V22H34.8293V21H33.8293ZM32.1304 21H31.1304V22H32.1304V21ZM32.1304 9.36364V8.36364H31.1304V9.36364H32.1304ZM33.8293 9.36364H32.8293V21H33.8293H34.8293V9.36364H33.8293ZM33.8293 21V20H32.1304V21V22H33.8293V21ZM32.1304 21H33.1304V9.36364H32.1304H31.1304V21H32.1304ZM32.1304 9.36364V10.3636H33.8293V9.36364V8.36364H32.1304V9.36364ZM37.2346 20.8864L36.8121 21.7928L36.8184 21.7957L37.2346 20.8864ZM36.1721 19.983L35.3351 20.5302L35.3388 20.5358L36.1721 19.983ZM36.0698 17.3182L36.9291 17.8297L36.0698 17.3182ZM36.8368 16.5625L37.3363 17.4289L36.8368 16.5625ZM39.1323 15.9261L39.0171 14.9328L39.0139 14.9332L39.1323 15.9261ZM40.405 15.7784L40.5205 16.7718L40.5319 16.7703L40.405 15.7784ZM41.1152 15.5795L41.6393 16.4312V16.4312L41.1152 15.5795ZM40.9164 13.9432L40.2141 14.6552L40.219 14.6599L40.9164 13.9432ZM38.3255 13.9148L38.9343 14.7081L38.9356 14.7071L38.3255 13.9148ZM37.6493 14.75L37.4273 15.725L38.2551 15.9136L38.5754 15.1273L37.6493 14.75ZM36.0527 14.3864L35.111 14.05L34.732 15.1112L35.8307 15.3614L36.0527 14.3864ZM36.8823 13.1023L37.5495 13.8471L37.55 13.8467L36.8823 13.1023ZM38.1493 12.3864L38.445 13.3417L38.4519 13.3395L38.1493 12.3864ZM40.763 12.2841L40.5541 13.2621L40.565 13.2643L40.763 12.2841ZM41.8652 12.7273L41.3302 13.5721L41.3344 13.5747L41.8652 12.7273ZM42.7118 13.6534L41.8346 14.1334L41.8365 14.1369L42.7118 13.6534ZM43.0414 21V22H44.0414V21H43.0414ZM41.3823 21H40.3823V22H41.3823V21ZM41.3823 19.8068H42.3823V18.8068H41.3823V19.8068ZM41.3141 19.8068V18.8068H40.6961L40.4197 19.3596L41.3141 19.8068ZM40.8198 20.4545L40.1252 19.7351L40.8198 20.4545ZM39.9732 20.983L39.5965 20.0566L39.9732 20.983ZM40.3084 19.5511L39.8261 18.6751L39.8219 18.6774L40.3084 19.5511ZM41.0755 18.8239L40.2133 18.3173L40.2113 18.3207L41.0755 18.8239ZM41.3425 16.7273H42.3425V14.3131L40.6354 16.0202L41.3425 16.7273ZM40.9902 16.8977L41.2678 17.8584L41.2746 17.8565L41.2814 17.8544L40.9902 16.8977ZM40.405 17.0284L40.5584 18.0166L40.5667 18.0153L40.5749 18.0139L40.405 17.0284ZM39.763 17.125L39.8892 18.117L39.8981 18.1159L39.9069 18.1146L39.763 17.125ZM39.2402 17.1932L39.3657 18.1853L39.3742 18.1842L39.2402 17.1932ZM38.3368 17.4034L37.9972 16.4628L37.993 16.4644L38.3368 17.4034ZM37.6891 17.8295L36.9375 17.17L36.9365 17.171L37.6891 17.8295ZM37.9164 19.5114L37.3456 20.3325L37.3524 20.3372L37.9164 19.5114ZM38.7346 21.1932V20.1932C38.3071 20.1932 37.9516 20.1148 37.6507 19.9771L37.2346 20.8864L36.8184 21.7957C37.4114 22.067 38.0559 22.1932 38.7346 22.1932V21.1932ZM37.2346 20.8864L37.657 19.98C37.3694 19.8459 37.1604 19.6638 37.0053 19.4301L36.1721 19.983L35.3388 20.5358C35.7064 21.0899 36.2058 21.5101 36.8121 21.7927L37.2346 20.8864ZM36.1721 19.983L37.009 19.4357C36.8788 19.2365 36.7857 18.9539 36.7857 18.5341H35.7857H34.7857C34.7857 19.2582 34.9502 19.9415 35.3351 20.5302L36.1721 19.983ZM35.7857 18.5341H36.7857C36.7857 18.1641 36.8574 17.9502 36.9291 17.8297L36.0698 17.3182L35.2105 16.8067C34.9034 17.3226 34.7857 17.9192 34.7857 18.5341H35.7857ZM36.0698 17.3182L36.9291 17.8297C37.0306 17.6592 37.1621 17.5293 37.3363 17.4289L36.8368 16.5625L36.3374 15.6961C35.8676 15.9669 35.4878 16.3408 35.2105 16.8067L36.0698 17.3182ZM36.8368 16.5625L37.3363 17.4289C37.5667 17.296 37.8349 17.1894 38.148 17.1149L37.9164 16.142L37.6848 15.1692C37.2024 15.2841 36.7509 15.4578 36.3374 15.6961L36.8368 16.5625ZM37.9164 16.142L38.148 17.1149C38.5078 17.0292 38.8753 16.9639 39.2507 16.9191L39.1323 15.9261L39.0139 14.9332C38.5635 14.9869 38.1204 15.0655 37.6848 15.1692L37.9164 16.142ZM39.1323 15.9261L39.2475 16.9195C39.7702 16.8589 40.1946 16.8096 40.5205 16.7717L40.405 15.7784L40.2895 14.7851C39.9639 14.823 39.5398 14.8722 39.0171 14.9328L39.1323 15.9261ZM40.405 15.7784L40.5319 16.7703C40.8949 16.7239 41.3055 16.6367 41.6393 16.4312L41.1152 15.5795L40.5911 14.7279C40.6219 14.709 40.6201 14.7169 40.5573 14.7345C40.4983 14.751 40.4077 14.7699 40.2781 14.7865L40.405 15.7784ZM41.1152 15.5795L41.6393 16.4312C42.1401 16.1231 42.3368 15.6152 42.3368 15.1364H41.3368H40.3368C40.3368 15.1197 40.3399 15.0475 40.387 14.9534C40.4377 14.852 40.5146 14.775 40.5911 14.7279L41.1152 15.5795ZM41.3368 15.1364H42.3368V15.0966H41.3368H40.3368V15.1364H41.3368ZM41.3368 15.0966H42.3368C42.3368 14.407 42.1363 13.7349 41.6137 13.2265L40.9164 13.9432L40.219 14.6599C40.2571 14.6969 40.3368 14.7937 40.3368 15.0966H41.3368ZM40.9164 13.9432L41.6186 13.2312C41.0891 12.709 40.38 12.5341 39.6777 12.5341V13.5341V14.5341C40.074 14.5341 40.1906 14.6319 40.2142 14.6551L40.9164 13.9432ZM39.6777 13.5341V12.5341C38.9666 12.5341 38.2749 12.6915 37.7153 13.1225L38.3255 13.9148L38.9356 14.7071C39.0351 14.6304 39.2449 14.5341 39.6777 14.5341V13.5341ZM38.3255 13.9148L37.7167 13.1215C37.2835 13.4539 36.9295 13.8664 36.7232 14.3727L37.6493 14.75L38.5754 15.1273C38.6192 15.0199 38.7159 14.8757 38.9343 14.7081L38.3255 13.9148ZM37.6493 14.75L37.8714 13.775L36.2748 13.4113L36.0527 14.3864L35.8307 15.3614L37.4273 15.725L37.6493 14.75ZM36.0527 14.3864L36.9945 14.7227C37.1365 14.325 37.3279 14.0457 37.5495 13.8471L36.8823 13.1023L36.215 12.3574C35.7094 12.8104 35.3478 13.3871 35.111 14.05L36.0527 14.3864ZM36.8823 13.1023L37.55 13.8467C37.8087 13.6147 38.1038 13.4473 38.445 13.3416L38.1493 12.3864L37.8537 11.4311C37.2404 11.6209 36.6907 11.9308 36.2146 12.3578L36.8823 13.1023ZM38.1493 12.3864L38.4519 13.3395C38.8264 13.2206 39.2259 13.1591 39.655 13.1591V12.1591V11.1591C39.0311 11.1591 38.4268 11.2491 37.8468 11.4332L38.1493 12.3864ZM39.655 12.1591V13.1591C39.9241 13.1591 40.2229 13.1913 40.5541 13.262L40.763 12.2841L40.9719 11.3061C40.5227 11.2102 40.0829 11.1591 39.655 11.1591V12.1591ZM40.763 12.2841L40.565 13.2643C40.8388 13.3196 41.092 13.4212 41.3302 13.5721L41.8652 12.7273L42.4003 11.8825C41.9567 11.6015 41.475 11.4077 40.9609 11.3039L40.763 12.2841ZM41.8652 12.7273L41.3344 13.5747C41.5167 13.6889 41.6865 13.8629 41.8346 14.1334L42.7118 13.6534L43.5891 13.1734C43.2977 12.6409 42.9032 12.1975 42.3961 11.8798L41.8652 12.7273ZM42.7118 13.6534L41.8365 14.1369C41.9482 14.3391 42.0414 14.6732 42.0414 15.2045H43.0414H44.0414C44.0414 14.4632 43.9149 13.7631 43.5872 13.1699L42.7118 13.6534ZM43.0414 15.2045H42.0414V21H43.0414H44.0414V15.2045H43.0414ZM43.0414 21V20H41.3823V21V22H43.0414V21ZM41.3823 21H42.3823V19.8068H41.3823H40.3823V21H41.3823ZM41.3823 19.8068V18.8068H41.3141V19.8068V20.8068H41.3823V19.8068ZM41.3141 19.8068L40.4197 19.3596C40.3712 19.4566 40.2824 19.5834 40.1252 19.7351L40.8198 20.4545L41.5144 21.1739C41.7966 20.9015 42.0374 20.5964 42.2085 20.254L41.3141 19.8068ZM40.8198 20.4545L40.1252 19.7351C40.015 19.8416 39.8481 19.9543 39.5965 20.0566L39.9732 20.983L40.3498 21.9093C40.7877 21.7313 41.1852 21.4918 41.5144 21.1739L40.8198 20.4545ZM39.9732 20.983L39.5965 20.0566C39.4009 20.1362 39.1226 20.1932 38.7346 20.1932V21.1932V22.1932C39.3087 22.1932 39.8561 22.1101 40.3498 21.9093L39.9732 20.983ZM39.1039 19.8295V20.8295C39.7049 20.8295 40.2821 20.7103 40.7949 20.4248L40.3084 19.5511L39.8219 18.6774C39.6681 18.7631 39.4423 18.8295 39.1039 18.8295V19.8295ZM40.3084 19.5511L40.7907 20.4271C41.2684 20.1642 41.6643 19.7999 41.9396 19.3271L41.0755 18.8239L40.2113 18.3207C40.1381 18.4463 40.0227 18.5669 39.8261 18.6751L40.3084 19.5511ZM41.0755 18.8239L41.9377 19.3304C42.2041 18.877 42.3425 18.3787 42.3425 17.8523H41.3425H40.3425C40.3425 18.0152 40.3029 18.1647 40.2133 18.3173L41.0755 18.8239ZM41.3425 17.8523H42.3425V16.7273H41.3425H40.3425V17.8523H41.3425ZM41.3425 16.7273L40.6354 16.0202C40.6779 15.9777 40.7147 15.9511 40.7358 15.9372C40.7575 15.923 40.7715 15.9161 40.7734 15.9152C40.7758 15.914 40.7713 15.9163 40.7578 15.9214C40.7446 15.9264 40.7253 15.9331 40.6991 15.9411L40.9902 16.8977L41.2814 17.8544C41.4736 17.7959 41.8015 17.6825 42.0496 17.4344L41.3425 16.7273ZM40.9902 16.8977L40.7127 15.937C40.5853 15.9738 40.4272 16.0098 40.2351 16.0429L40.405 17.0284L40.5749 18.0139C40.8222 17.9712 41.0543 17.9201 41.2678 17.8584L40.9902 16.8977ZM40.405 17.0284L40.2517 16.0402C40.0349 16.0739 39.8241 16.1056 39.619 16.1354L39.763 17.125L39.9069 18.1146C40.1185 18.0838 40.3357 18.0511 40.5584 18.0166L40.405 17.0284ZM39.763 17.125L39.6367 16.133C39.4269 16.1597 39.2499 16.1828 39.1063 16.2022L39.2402 17.1932L39.3742 18.1842C39.5109 18.1657 39.6824 18.1433 39.8892 18.117L39.763 17.125ZM39.2402 17.1932L39.1148 16.2011C38.7225 16.2507 38.3484 16.336 37.9972 16.4629L38.3368 17.4034L38.6765 18.344C38.8708 18.2738 39.0989 18.219 39.3657 18.1853L39.2402 17.1932ZM38.3368 17.4034L37.993 16.4644C37.5922 16.6112 37.2272 16.8398 36.9375 17.17L37.6891 17.8295L38.4407 18.4891C38.4767 18.4481 38.5436 18.3926 38.6807 18.3424L38.3368 17.4034ZM37.6891 17.8295L36.9365 17.171C36.5805 17.578 36.4505 18.0753 36.4505 18.5568H37.4505H38.4505C38.4505 18.4919 38.4591 18.4632 38.4603 18.4595C38.4608 18.4578 38.4599 18.4611 38.4563 18.4675C38.4526 18.4741 38.4476 18.4813 38.4417 18.488L37.6891 17.8295ZM37.4505 18.5568H36.4505C36.4505 19.2621 36.7329 19.9066 37.3456 20.3325L37.9164 19.5114L38.4872 18.6903C38.4724 18.68 38.4669 18.6738 38.4661 18.6729C38.4656 18.6723 38.4659 18.6727 38.4656 18.6722C38.4652 18.6714 38.4618 18.6642 38.4582 18.6472C38.4545 18.6297 38.4505 18.6005 38.4505 18.5568H37.4505ZM37.9164 19.5114L37.3524 20.3372C37.8701 20.6907 38.4775 20.8295 39.1039 20.8295V19.8295V18.8295C38.7681 18.8295 38.5839 18.7563 38.4803 18.6856L37.9164 19.5114ZM49.458 12.2727H50.458V11.2727H49.458V12.2727ZM49.458 13.6364V14.6364H50.458V13.6364H49.458ZM44.691 13.6364H43.691V14.6364H44.691V13.6364ZM44.691 12.2727V11.2727H43.691V12.2727H44.691ZM45.9694 10.1818V9.18182H44.9694V10.1818H45.9694ZM47.6683 10.1818H48.6683V9.18182H47.6683V10.1818ZM47.816 19.1818L46.955 19.6906L46.9603 19.6992L47.816 19.1818ZM48.1967 19.517L47.8331 20.4486L47.8467 20.4539L47.8603 20.4588L48.1967 19.517ZM49.0717 19.5739L49.2538 20.5571V20.5571L49.0717 19.5739ZM49.3103 19.5284L50.2872 19.3148L50.0774 18.3552L49.1142 18.5478L49.3103 19.5284ZM49.6171 20.9318L49.9761 21.8652L50.7774 21.557L50.594 20.7182L49.6171 20.9318ZM49.1967 21.0455L48.9927 20.0665L48.983 20.0685L48.9733 20.0707L49.1967 21.0455ZM48.5148 21.1136L48.501 20.1137L48.4979 20.1138L48.5148 21.1136ZM47.2648 20.875L46.8688 21.7932L47.2648 20.875ZM46.3273 20.1023L45.5023 20.6673L46.3273 20.1023ZM49.458 12.2727H48.458V13.6364H49.458H50.458V12.2727H49.458ZM49.458 13.6364V12.6364H44.691V13.6364V14.6364H49.458V13.6364ZM44.691 13.6364H45.691V12.2727H44.691H43.691V13.6364H44.691ZM44.691 12.2727V13.2727H49.458V12.2727V11.2727H44.691V12.2727ZM45.9694 10.1818V11.1818H47.6683V10.1818V9.18182H45.9694V10.1818ZM47.6683 10.1818H46.6683V18.4375H47.6683H48.6683V10.1818H47.6683ZM47.6683 18.4375H46.6683C46.6683 18.8353 46.7222 19.2964 46.9551 19.6905L47.816 19.1818L48.6769 18.6731C48.6996 18.7116 48.6951 18.7215 48.6861 18.6761C48.6773 18.632 48.6683 18.5554 48.6683 18.4375H47.6683ZM47.816 19.1818L46.9603 19.6992C47.1558 20.0226 47.4441 20.2968 47.8331 20.4486L48.1967 19.517L48.5602 18.5855C48.5931 18.5983 48.6229 18.617 48.6459 18.6373C48.6678 18.6566 48.6748 18.6695 48.6717 18.6644L47.816 19.1818ZM48.1967 19.517L47.8603 20.4588C48.1375 20.5578 48.4248 20.6023 48.7137 20.6023V19.6023V18.6023C48.6314 18.6023 48.574 18.5899 48.533 18.5753L48.1967 19.517ZM48.7137 19.6023V20.6023C48.8935 20.6023 49.0762 20.59 49.2538 20.5571L49.0717 19.5739L48.8896 18.5906C48.8625 18.5956 48.8067 18.6023 48.7137 18.6023V19.6023ZM49.0717 19.5739L49.2538 20.5571C49.3577 20.5379 49.4426 20.5217 49.5064 20.509L49.3103 19.5284L49.1142 18.5478C49.0643 18.5578 48.9902 18.5719 48.8896 18.5906L49.0717 19.5739ZM49.3103 19.5284L48.3334 19.742L48.6402 21.1454L49.6171 20.9318L50.594 20.7182L50.2872 19.3148L49.3103 19.5284ZM49.6171 20.9318L49.2581 19.9985C49.234 20.0077 49.155 20.0327 48.9927 20.0665L49.1967 21.0455L49.4006 22.0244C49.602 21.9825 49.8032 21.9317 49.9761 21.8652L49.6171 20.9318ZM49.1967 21.0455L48.9733 20.0707C48.8838 20.0912 48.7324 20.1105 48.501 20.1137L48.5148 21.1136L48.5287 22.1135C48.8428 22.1092 49.1459 22.083 49.42 22.0202L49.1967 21.0455ZM48.5148 21.1136L48.4979 20.1138C48.1838 20.1191 47.9089 20.0638 47.6609 19.9568L47.2648 20.875L46.8688 21.7932C47.3935 22.0196 47.9519 22.1233 48.5318 22.1135L48.5148 21.1136ZM47.2648 20.875L47.6609 19.9568C47.4488 19.8653 47.2847 19.7305 47.1524 19.5373L46.3273 20.1023L45.5023 20.6673C45.8472 21.171 46.3082 21.5514 46.8688 21.7932L47.2648 20.875ZM46.3273 20.1023L47.1524 19.5373C47.0531 19.3921 46.9694 19.1646 46.9694 18.7898H45.9694H44.9694C44.9694 19.4679 45.1244 20.1154 45.5023 20.6673L46.3273 20.1023ZM45.9694 18.7898H46.9694V10.1818H45.9694H44.9694V18.7898H45.9694ZM51.4173 21H50.4173V22H51.4173V21ZM51.4173 12.2727V11.2727H50.4173V12.2727H51.4173ZM53.1162 12.2727H54.1162V11.2727H53.1162V12.2727ZM53.1162 21V22H54.1162V21H53.1162ZM51.5139 10.6307L50.82 11.3508L50.8267 11.3572L50.8334 11.3635L51.5139 10.6307ZM51.5139 9.19886L52.2009 9.92551L52.2013 9.92516L51.5139 9.19886ZM53.0309 9.19886L52.337 9.91894L52.3437 9.92536L52.3505 9.93166L53.0309 9.19886ZM53.0309 10.6307L53.7179 11.3573L53.7183 11.357L53.0309 10.6307ZM51.4173 21H52.4173V12.2727H51.4173H50.4173V21H51.4173ZM51.4173 12.2727V13.2727H53.1162V12.2727V11.2727H51.4173V12.2727ZM53.1162 12.2727H52.1162V21H53.1162H54.1162V12.2727H53.1162ZM53.1162 21V20H51.4173V21V22H53.1162V21ZM52.2752 10.9261V9.92614C52.2407 9.92614 52.2271 9.9208 52.2251 9.92001C52.2234 9.91935 52.2137 9.91584 52.1943 9.89789L51.5139 10.6307L50.8334 11.3635C51.2347 11.7361 51.7332 11.9261 52.2752 11.9261V10.9261ZM51.5139 10.6307L52.2078 9.9106C52.1971 9.90029 52.1927 9.89435 52.1921 9.89343C52.1916 9.8927 52.1935 9.89536 52.196 9.90108C52.1985 9.90687 52.2002 9.91255 52.2011 9.91686C52.2019 9.92101 52.2014 9.9208 52.2014 9.91477H51.2014H50.2014C50.2014 10.4767 50.4262 10.9713 50.82 11.3508L51.5139 10.6307ZM51.2014 9.91477H52.2014C52.2014 9.9069 52.2021 9.90554 52.2014 9.90916C52.2006 9.91298 52.1989 9.91894 52.196 9.92562C52.1931 9.93227 52.1904 9.93632 52.1897 9.93731C52.1891 9.93811 52.1919 9.93397 52.2009 9.92551L51.5139 9.19886L50.8269 8.47222C50.4239 8.8532 50.2014 9.35251 50.2014 9.91477H51.2014ZM51.5139 9.19886L52.2013 9.92516C52.2213 9.90619 52.2309 9.90301 52.2311 9.90292C52.2316 9.90274 52.243 9.89773 52.2752 9.89773V8.89773V7.89773C51.7274 7.89773 51.2267 8.09379 50.8265 8.47257L51.5139 9.19886ZM52.2752 8.89773V9.89773C52.2923 9.89773 52.3029 9.89916 52.3083 9.90014C52.3135 9.9011 52.3155 9.90194 52.3156 9.90197C52.3156 9.90199 52.3165 9.90231 52.319 9.9039C52.3215 9.90558 52.3277 9.9099 52.337 9.91894L53.0309 9.19886L53.7248 8.47878C53.3258 8.09424 52.8234 7.89773 52.2752 7.89773V8.89773ZM53.0309 9.19886L52.3505 9.93166C52.3601 9.94056 52.3632 9.945 52.3626 9.94424C52.3619 9.94329 52.359 9.93897 52.3558 9.93171C52.3525 9.92439 52.3505 9.91754 52.3495 9.9126C52.3485 9.90785 52.3491 9.90805 52.3491 9.91477H53.3491H54.3491C54.3491 9.34628 54.1197 8.84525 53.7114 8.46607L53.0309 9.19886ZM53.3491 9.91477H52.3491C52.3491 9.91963 52.3487 9.91867 52.3498 9.9134C52.3509 9.90797 52.3529 9.90141 52.3558 9.895C52.3586 9.88867 52.3607 9.88575 52.3602 9.8865C52.3595 9.88745 52.3549 9.89365 52.3435 9.90439L53.0309 10.6307L53.7183 11.357C54.1174 10.9792 54.3491 10.4829 54.3491 9.91477H53.3491ZM53.0309 10.6307L52.3439 9.90403C52.3349 9.91256 52.3289 9.91672 52.3263 9.91843C52.3237 9.92007 52.3224 9.92062 52.3216 9.92093C52.3208 9.92124 52.3179 9.92234 52.3116 9.92347C52.3051 9.92464 52.2934 9.92614 52.2752 9.92614V10.9261V11.9261C52.8176 11.9261 53.3177 11.7357 53.7179 11.3573L53.0309 10.6307ZM55.5953 19.0398L56.4897 18.5926L55.5953 19.0398ZM57.0158 12.7216L57.5396 13.5734L57.0158 12.7216ZM61.2998 12.7216L60.776 13.5734L61.2998 12.7216ZM62.7203 19.0398L61.8259 18.5926L62.7203 19.0398ZM61.2998 20.6136L61.8236 21.4655H61.8237L61.2998 20.6136ZM60.4817 19.3295L59.8549 18.5503L60.4817 19.3295ZM61.2544 18.2102L60.3152 17.8666L60.3128 17.8734L61.2544 18.2102ZM61.2544 15.1364L60.3119 15.4708L60.3153 15.4799L61.2544 15.1364ZM60.4817 14.0057L59.8498 14.7808L60.4817 14.0057ZM57.8339 14.0057L57.2062 13.2273L57.2021 13.2306L57.8339 14.0057ZM57.0555 15.1364L56.1155 14.7952L56.114 14.7995L57.0555 15.1364ZM57.0555 18.2102L56.1139 18.5471L56.1164 18.5538L57.0555 18.2102ZM57.8339 19.3295L57.2072 20.1088L57.2113 20.1121L57.8339 19.3295ZM59.1578 21.1761V20.1761C58.4976 20.1761 57.9704 20.0267 57.5396 19.7618L57.0158 20.6136L56.492 21.4655C57.2809 21.9506 58.1817 22.1761 59.1578 22.1761V21.1761ZM57.0158 20.6136L57.5396 19.7618C57.0971 19.4898 56.7481 19.1093 56.4897 18.5926L55.5953 19.0398L54.7009 19.487C55.1168 20.3188 55.7147 20.9875 56.492 21.4655L57.0158 20.6136ZM55.5953 19.0398L56.4897 18.5926C56.2344 18.0818 56.0896 17.4525 56.0896 16.6761H55.0896H54.0896C54.0896 17.7028 54.282 18.6492 54.7009 19.487L55.5953 19.0398ZM55.0896 16.6761H56.0896C56.0896 15.8954 56.2346 15.2615 56.4907 14.7463L55.5953 14.3011L54.6999 13.8559C54.2818 14.6968 54.0896 15.6463 54.0896 16.6761H55.0896ZM55.5953 14.3011L56.4907 14.7463C56.7495 14.2259 57.0986 13.8446 57.5396 13.5734L57.0158 12.7216L56.492 11.8698C55.7132 12.3486 55.1153 13.0203 54.6999 13.8559L55.5953 14.3011ZM57.0158 12.7216L57.5396 13.5734C57.9704 13.3085 58.4976 13.1591 59.1578 13.1591V12.1591V11.1591C58.1817 11.1591 57.2809 11.3847 56.492 11.8698L57.0158 12.7216ZM59.1578 12.1591V13.1591C59.818 13.1591 60.3452 13.3085 60.776 13.5734L61.2998 12.7216L61.8236 11.8698C61.0347 11.3847 60.1339 11.1591 59.1578 11.1591V12.1591ZM61.2998 12.7216L60.776 13.5734C61.217 13.8446 61.5661 14.2259 61.8249 14.7463L62.7203 14.3011L63.6157 13.8559C63.2003 13.0203 62.6024 12.3486 61.8236 11.8698L61.2998 12.7216ZM62.7203 14.3011L61.8249 14.7463C62.081 15.2615 62.226 15.8954 62.226 16.6761H63.226H64.226C64.226 15.6463 64.0338 14.6968 63.6157 13.8559L62.7203 14.3011ZM63.226 16.6761H62.226C62.226 17.4525 62.0812 18.0818 61.8259 18.5926L62.7203 19.0398L63.6147 19.487C64.0336 18.6492 64.226 17.7028 64.226 16.6761H63.226ZM62.7203 19.0398L61.8259 18.5926C61.5675 19.1093 61.2185 19.4898 60.776 19.7618L61.2998 20.6136L61.8237 21.4655C62.6009 20.9875 63.1988 20.3188 63.6147 19.487L62.7203 19.0398ZM61.2998 20.6136L60.776 19.7618C60.3452 20.0267 59.818 20.1761 59.1578 20.1761V21.1761V22.1761C60.1339 22.1761 61.0347 21.9506 61.8236 21.4655L61.2998 20.6136ZM59.1635 19.75V20.75C59.8777 20.75 60.5507 20.5573 61.1084 20.1088L60.4817 19.3295L59.8549 18.5503C59.7156 18.6624 59.5099 18.75 59.1635 18.75V19.75ZM60.4817 19.3295L61.1084 20.1088C61.6156 19.7008 61.974 19.1676 62.196 18.547L61.2544 18.2102L60.3128 17.8734C60.2015 18.1847 60.0447 18.3977 59.8549 18.5503L60.4817 19.3295ZM61.2544 18.2102L62.1935 18.5538C62.4091 17.9645 62.5101 17.3332 62.5101 16.6705H61.5101H60.5101C60.5101 17.1289 60.4406 17.5241 60.3153 17.8666L61.2544 18.2102ZM61.5101 16.6705H62.5101C62.5101 16.0107 62.4089 15.3814 62.1935 14.7928L61.2544 15.1364L60.3153 15.4799C60.4408 15.8232 60.5101 16.2166 60.5101 16.6705H61.5101ZM61.2544 15.1364L62.1968 14.802C61.9758 14.179 61.619 13.6427 61.1135 13.2306L60.4817 14.0057L59.8498 14.7808C60.0413 14.9369 60.1997 15.1544 60.312 15.4708L61.2544 15.1364ZM60.4817 14.0057L61.1135 13.2306C60.5558 12.7759 59.8808 12.5795 59.1635 12.5795V13.5795V14.5795C59.5067 14.5795 59.7106 14.6673 59.8498 14.7808L60.4817 14.0057ZM59.1635 13.5795V12.5795C58.4439 12.5795 57.767 12.775 57.2062 13.2273L57.8339 14.0057L58.4617 14.7841C58.6054 14.6682 58.8149 14.5795 59.1635 14.5795V13.5795ZM57.8339 14.0057L57.2021 13.2306C56.6984 13.6412 56.3405 14.1751 56.1155 14.7952L57.0555 15.1364L57.9955 15.4775C58.1114 15.1582 58.2725 14.9383 58.4658 14.7808L57.8339 14.0057ZM57.0555 15.1364L56.114 14.7995C55.9041 15.3862 55.8055 16.0131 55.8055 16.6705H56.8055H57.8055C57.8055 16.2142 57.8736 15.8184 57.9971 15.4732L57.0555 15.1364ZM56.8055 16.6705H55.8055C55.8055 17.3308 55.9039 17.9597 56.114 18.547L57.0555 18.2102L57.9971 17.8734C57.8739 17.5289 57.8055 17.1314 57.8055 16.6705H56.8055ZM57.0555 18.2102L56.1164 18.5538C56.3424 19.1714 56.7017 19.7022 57.2072 20.1088L57.8339 19.3295L58.4607 18.5503C58.2692 18.3963 58.1096 18.1808 57.9947 17.8666L57.0555 18.2102ZM57.8339 19.3295L57.2113 20.1121C57.772 20.5582 58.447 20.75 59.1635 20.75V19.75V18.75C58.8117 18.75 58.6004 18.6615 58.4566 18.547L57.8339 19.3295ZM66.9012 21V22H67.9012V21H66.9012ZM65.2023 21H64.2023V22H65.2023V21ZM65.2023 12.2727V11.2727H64.2023V12.2727H65.2023ZM66.833 12.2727H67.833V11.2727H66.833V12.2727ZM66.833 13.6932H65.833V14.6932H66.833V13.6932ZM66.9409 13.6932V14.6932H67.5968L67.8581 14.0916L66.9409 13.6932ZM67.8841 12.5795L67.3396 11.7408L67.3363 11.743L67.8841 12.5795ZM71.0773 12.5341L70.5891 13.4069L70.5948 13.41L71.0773 12.5341ZM72.1171 13.6364L71.224 14.0863V14.0863L72.1171 13.6364ZM72.4864 21V22H73.4864V21H72.4864ZM70.7875 21H69.7875V22H70.7875V21ZM70.2932 14.1705L69.5557 14.8458L69.5593 14.8497L70.2932 14.1705ZM67.8841 13.8864L67.3985 13.0122L67.3938 13.0148L67.8841 13.8864ZM67.1625 14.6364L66.2827 14.1611L66.2807 14.1647L67.1625 14.6364ZM66.9012 15.8182H65.9012V21H66.9012H67.9012V15.8182H66.9012ZM66.9012 21V20H65.2023V21V22H66.9012V21ZM65.2023 21H66.2023V12.2727H65.2023H64.2023V21H65.2023ZM65.2023 12.2727V13.2727H66.833V12.2727V11.2727H65.2023V12.2727ZM66.833 12.2727H65.833V13.6932H66.833H67.833V12.2727H66.833ZM66.833 13.6932V14.6932H66.9409V13.6932V12.6932H66.833V13.6932ZM66.9409 13.6932L67.8581 14.0916C67.9799 13.8114 68.1645 13.5913 68.432 13.4161L67.8841 12.5795L67.3363 11.743C66.7477 12.1284 66.3035 12.6507 66.0237 13.2947L66.9409 13.6932ZM67.8841 12.5795L68.4286 13.4183C68.6593 13.2685 69.0004 13.1591 69.5148 13.1591V12.1591V11.1591C68.7186 11.1591 67.9725 11.33 67.3396 11.7408L67.8841 12.5795ZM69.5148 12.1591V13.1591C69.9664 13.1591 70.3138 13.2529 70.5891 13.4068L71.0773 12.5341L71.5654 11.6613C70.9468 11.3153 70.2526 11.1591 69.5148 11.1591V12.1591ZM71.0773 12.5341L70.5948 13.41C70.8521 13.5517 71.0617 13.7641 71.224 14.0863L72.1171 13.6364L73.0101 13.1864C72.68 12.5313 72.1964 12.0089 71.5598 11.6582L71.0773 12.5341ZM72.1171 13.6364L71.224 14.0863C71.3813 14.3985 71.4864 14.8381 71.4864 15.4489H72.4864H73.4864C73.4864 14.6202 73.3452 13.8515 73.0101 13.1864L72.1171 13.6364ZM72.4864 15.4489H71.4864V21H72.4864H73.4864V15.4489H72.4864ZM72.4864 21V20H70.7875V21V22H72.4864V21ZM70.7875 21H71.7875V15.6534H70.7875H69.7875V21H70.7875ZM70.7875 15.6534H71.7875C71.7875 14.8477 71.5746 14.0827 71.0271 13.4912L70.2932 14.1705L69.5593 14.8497C69.6709 14.9703 69.7875 15.1939 69.7875 15.6534H70.7875ZM70.2932 14.1705L71.0307 13.4951C70.4775 12.891 69.7364 12.6307 68.9352 12.6307V13.6307V14.6307C69.2856 14.6307 69.4499 14.7302 69.5557 14.8458L70.2932 14.1705ZM68.9352 13.6307V12.6307C68.3925 12.6307 67.8713 12.7495 67.3985 13.0122L67.8841 13.8864L68.3698 14.7605C68.5105 14.6823 68.6901 14.6307 68.9352 14.6307V13.6307ZM67.8841 13.8864L67.3938 13.0148C66.9134 13.2851 66.5433 13.6787 66.2827 14.1611L67.1625 14.6364L68.0423 15.1117C68.1378 14.935 68.2488 14.8286 68.3744 14.7579L67.8841 13.8864ZM67.1625 14.6364L66.2807 14.1647C66.0118 14.6675 65.9012 15.232 65.9012 15.8182H66.9012H67.9012C67.9012 15.4801 67.9648 15.2567 68.0443 15.108L67.1625 14.6364ZM75.8846 20.8864L75.4621 21.7928L75.4684 21.7957L75.8846 20.8864ZM74.8221 19.983L73.9851 20.5302L73.9888 20.5358L74.8221 19.983ZM74.7198 17.3182L75.5791 17.8297L74.7198 17.3182ZM75.4868 16.5625L75.9863 17.4289L75.4868 16.5625ZM77.7823 15.9261L77.6671 14.9328L77.6639 14.9332L77.7823 15.9261ZM79.055 15.7784L79.1705 16.7718L79.1819 16.7703L79.055 15.7784ZM79.7652 15.5795L80.2893 16.4312V16.4312L79.7652 15.5795ZM79.5664 13.9432L78.8642 14.6552L78.869 14.6599L79.5664 13.9432ZM76.9755 13.9148L77.5843 14.7081L77.5856 14.7071L76.9755 13.9148ZM76.2993 14.75L76.0773 15.725L76.9051 15.9136L77.2254 15.1273L76.2993 14.75ZM74.7027 14.3864L73.761 14.05L73.382 15.1112L74.4807 15.3614L74.7027 14.3864ZM75.5323 13.1023L76.1995 13.8471L76.2 13.8467L75.5323 13.1023ZM76.7993 12.3864L77.095 13.3417L77.1019 13.3395L76.7993 12.3864ZM79.413 12.2841L79.2041 13.2621L79.215 13.2643L79.413 12.2841ZM80.5152 12.7273L79.9802 13.5721L79.9844 13.5747L80.5152 12.7273ZM81.3618 13.6534L80.4846 14.1334L80.4865 14.1369L81.3618 13.6534ZM81.6914 21V22H82.6914V21H81.6914ZM80.0323 21H79.0323V22H80.0323V21ZM80.0323 19.8068H81.0323V18.8068H80.0323V19.8068ZM79.9641 19.8068V18.8068H79.3461L79.0697 19.3596L79.9641 19.8068ZM79.4698 20.4545L78.7752 19.7351L79.4698 20.4545ZM78.6232 20.983L78.2466 20.0566L78.6232 20.983ZM78.9584 19.5511L78.4761 18.6751L78.4719 18.6774L78.9584 19.5511ZM79.7255 18.8239L78.8633 18.3173L78.8613 18.3207L79.7255 18.8239ZM79.9925 16.7273H80.9925V14.3131L79.2854 16.0202L79.9925 16.7273ZM79.6402 16.8977L79.9178 17.8584L79.9246 17.8565L79.9314 17.8544L79.6402 16.8977ZM79.055 17.0284L79.2084 18.0166L79.2167 18.0153L79.2249 18.0139L79.055 17.0284ZM78.413 17.125L78.5392 18.117L78.5481 18.1159L78.5569 18.1146L78.413 17.125ZM77.8902 17.1932L78.0157 18.1853L78.0242 18.1842L77.8902 17.1932ZM76.9868 17.4034L76.6472 16.4628L76.643 16.4644L76.9868 17.4034ZM76.3391 17.8295L75.5875 17.17L75.5865 17.171L76.3391 17.8295ZM76.5664 19.5114L75.9956 20.3325L76.0024 20.3372L76.5664 19.5114ZM77.3846 21.1932V20.1932C76.9571 20.1932 76.6016 20.1148 76.3007 19.9771L75.8846 20.8864L75.4684 21.7957C76.0614 22.067 76.7059 22.1932 77.3846 22.1932V21.1932ZM75.8846 20.8864L76.307 19.98C76.0194 19.8459 75.8104 19.6638 75.6553 19.4301L74.8221 19.983L73.9888 20.5358C74.3564 21.0899 74.8558 21.5101 75.4621 21.7927L75.8846 20.8864ZM74.8221 19.983L75.659 19.4357C75.5288 19.2365 75.4357 18.9539 75.4357 18.5341H74.4357H73.4357C73.4357 19.2582 73.6002 19.9415 73.9851 20.5302L74.8221 19.983ZM74.4357 18.5341H75.4357C75.4357 18.1641 75.5074 17.9502 75.5791 17.8297L74.7198 17.3182L73.8605 16.8067C73.5534 17.3226 73.4357 17.9192 73.4357 18.5341H74.4357ZM74.7198 17.3182L75.5791 17.8297C75.6805 17.6592 75.8121 17.5293 75.9863 17.4289L75.4868 16.5625L74.9874 15.6961C74.5176 15.9669 74.1378 16.3408 73.8605 16.8067L74.7198 17.3182ZM75.4868 16.5625L75.9863 17.4289C76.2167 17.296 76.4849 17.1894 76.798 17.1149L76.5664 16.142L76.3348 15.1692C75.8524 15.2841 75.4009 15.4578 74.9874 15.6961L75.4868 16.5625ZM76.5664 16.142L76.798 17.1149C77.1578 17.0292 77.5253 16.9639 77.9007 16.9191L77.7823 15.9261L77.6639 14.9332C77.2135 14.9869 76.7704 15.0655 76.3348 15.1692L76.5664 16.142ZM77.7823 15.9261L77.8975 16.9195C78.4202 16.8589 78.8446 16.8096 79.1705 16.7717L79.055 15.7784L78.9395 14.7851C78.6139 14.823 78.1898 14.8722 77.6671 14.9328L77.7823 15.9261ZM79.055 15.7784L79.1819 16.7703C79.5449 16.7239 79.9555 16.6367 80.2893 16.4312L79.7652 15.5795L79.2411 14.7279C79.2719 14.709 79.2701 14.7169 79.2073 14.7345C79.1483 14.751 79.0577 14.7699 78.9281 14.7865L79.055 15.7784ZM79.7652 15.5795L80.2893 16.4312C80.7901 16.1231 80.9868 15.6152 80.9868 15.1364H79.9868H78.9868C78.9868 15.1197 78.9899 15.0475 79.037 14.9534C79.0877 14.852 79.1646 14.775 79.2411 14.7279L79.7652 15.5795ZM79.9868 15.1364H80.9868V15.0966H79.9868H78.9868V15.1364H79.9868ZM79.9868 15.0966H80.9868C80.9868 14.407 80.7863 13.7349 80.2637 13.2265L79.5664 13.9432L78.869 14.6599C78.9071 14.6969 78.9868 14.7937 78.9868 15.0966H79.9868ZM79.5664 13.9432L80.2686 13.2312C79.7391 12.709 79.03 12.5341 78.3277 12.5341V13.5341V14.5341C78.724 14.5341 78.8406 14.6319 78.8642 14.6551L79.5664 13.9432ZM78.3277 13.5341V12.5341C77.6166 12.5341 76.9249 12.6915 76.3653 13.1225L76.9755 13.9148L77.5856 14.7071C77.6851 14.6304 77.8949 14.5341 78.3277 14.5341V13.5341ZM76.9755 13.9148L76.3667 13.1215C75.9335 13.4539 75.5795 13.8664 75.3732 14.3727L76.2993 14.75L77.2254 15.1273C77.2692 15.0199 77.3659 14.8757 77.5843 14.7081L76.9755 13.9148ZM76.2993 14.75L76.5214 13.775L74.9248 13.4113L74.7027 14.3864L74.4807 15.3614L76.0773 15.725L76.2993 14.75ZM74.7027 14.3864L75.6445 14.7227C75.7865 14.325 75.9779 14.0457 76.1995 13.8471L75.5323 13.1023L74.865 12.3574C74.3594 12.8104 73.9978 13.3871 73.761 14.05L74.7027 14.3864ZM75.5323 13.1023L76.2 13.8467C76.4587 13.6147 76.7538 13.4473 77.095 13.3416L76.7993 12.3864L76.5036 11.4311C75.8904 11.6209 75.3407 11.9308 74.8646 12.3578L75.5323 13.1023ZM76.7993 12.3864L77.1019 13.3395C77.4764 13.2206 77.8759 13.1591 78.305 13.1591V12.1591V11.1591C77.6811 11.1591 77.0768 11.2491 76.4968 11.4332L76.7993 12.3864ZM78.305 12.1591V13.1591C78.5741 13.1591 78.8729 13.1913 79.2041 13.262L79.413 12.2841L79.6218 11.3061C79.1727 11.2102 78.7329 11.1591 78.305 11.1591V12.1591ZM79.413 12.2841L79.215 13.2643C79.4888 13.3196 79.742 13.4212 79.9802 13.5721L80.5152 12.7273L81.0503 11.8825C80.6067 11.6015 80.125 11.4077 79.6109 11.3039L79.413 12.2841ZM80.5152 12.7273L79.9844 13.5747C80.1667 13.6889 80.3365 13.8629 80.4846 14.1334L81.3618 13.6534L82.2391 13.1734C81.9477 12.6409 81.5532 12.1975 81.0461 11.8798L80.5152 12.7273ZM81.3618 13.6534L80.4865 14.1369C80.5982 14.3391 80.6914 14.6732 80.6914 15.2045H81.6914H82.6914C82.6914 14.4632 82.5649 13.7631 82.2372 13.1699L81.3618 13.6534ZM81.6914 15.2045H80.6914V21H81.6914H82.6914V15.2045H81.6914ZM81.6914 21V20H80.0323V21V22H81.6914V21ZM80.0323 21H81.0323V19.8068H80.0323H79.0323V21H80.0323ZM80.0323 19.8068V18.8068H79.9641V19.8068V20.8068H80.0323V19.8068ZM79.9641 19.8068L79.0697 19.3596C79.0212 19.4566 78.9324 19.5834 78.7752 19.7351L79.4698 20.4545L80.1644 21.1739C80.4466 20.9015 80.6874 20.5964 80.8585 20.254L79.9641 19.8068ZM79.4698 20.4545L78.7752 19.7351C78.665 19.8416 78.4981 19.9543 78.2466 20.0566L78.6232 20.983L78.9998 21.9093C79.4377 21.7313 79.8352 21.4918 80.1644 21.1739L79.4698 20.4545ZM78.6232 20.983L78.2466 20.0566C78.0509 20.1362 77.7726 20.1932 77.3846 20.1932V21.1932V22.1932C77.9587 22.1932 78.5061 22.1101 78.9998 21.9093L78.6232 20.983ZM77.7539 19.8295V20.8295C78.3549 20.8295 78.9321 20.7103 79.4449 20.4248L78.9584 19.5511L78.4719 18.6774C78.3181 18.7631 78.0923 18.8295 77.7539 18.8295V19.8295ZM78.9584 19.5511L79.4407 20.4271C79.9184 20.1642 80.3143 19.7999 80.5896 19.3271L79.7255 18.8239L78.8613 18.3207C78.7881 18.4463 78.6727 18.5669 78.4761 18.6751L78.9584 19.5511ZM79.7255 18.8239L80.5877 19.3304C80.8541 18.877 80.9925 18.3787 80.9925 17.8523H79.9925H78.9925C78.9925 18.0152 78.9529 18.1647 78.8633 18.3173L79.7255 18.8239ZM79.9925 17.8523H80.9925V16.7273H79.9925H78.9925V17.8523H79.9925ZM79.9925 16.7273L79.2854 16.0202C79.3279 15.9777 79.3647 15.9511 79.3858 15.9372C79.4075 15.923 79.4215 15.9161 79.4234 15.9152C79.4258 15.914 79.4213 15.9163 79.4078 15.9214C79.3946 15.9264 79.3753 15.9331 79.3491 15.9411L79.6402 16.8977L79.9314 17.8544C80.1236 17.7959 80.4515 17.6825 80.6996 17.4344L79.9925 16.7273ZM79.6402 16.8977L79.3627 15.937C79.2353 15.9738 79.0772 16.0098 78.8851 16.0429L79.055 17.0284L79.2249 18.0139C79.4722 17.9712 79.7043 17.9201 79.9178 17.8584L79.6402 16.8977ZM79.055 17.0284L78.9017 16.0402C78.6849 16.0739 78.4741 16.1056 78.269 16.1354L78.413 17.125L78.5569 18.1146C78.7685 18.0838 78.9857 18.0511 79.2084 18.0166L79.055 17.0284ZM78.413 17.125L78.2867 16.133C78.0769 16.1597 77.8999 16.1828 77.7563 16.2022L77.8902 17.1932L78.0242 18.1842C78.1609 18.1657 78.3324 18.1433 78.5392 18.117L78.413 17.125ZM77.8902 17.1932L77.7648 16.2011C77.3725 16.2507 76.9984 16.336 76.6472 16.4629L76.9868 17.4034L77.3265 18.344C77.5208 18.2738 77.7489 18.219 78.0157 18.1853L77.8902 17.1932ZM76.9868 17.4034L76.643 16.4644C76.2421 16.6112 75.8773 16.8398 75.5875 17.17L76.3391 17.8295L77.0907 18.4891C77.1267 18.4481 77.1936 18.3926 77.3307 18.3424L76.9868 17.4034ZM76.3391 17.8295L75.5865 17.171C75.2305 17.578 75.1005 18.0753 75.1005 18.5568H76.1005H77.1005C77.1005 18.4919 77.1091 18.4632 77.1103 18.4595C77.1108 18.4578 77.1099 18.4611 77.1063 18.4675C77.1026 18.4741 77.0976 18.4813 77.0917 18.488L76.3391 17.8295ZM76.1005 18.5568H75.1005C75.1005 19.2621 75.3829 19.9066 75.9956 20.3325L76.5664 19.5114L77.1372 18.6903C77.1224 18.68 77.1169 18.6738 77.1161 18.6729C77.1156 18.6723 77.1159 18.6727 77.1156 18.6722C77.1152 18.6714 77.1118 18.6642 77.1082 18.6472C77.1045 18.6297 77.1005 18.6005 77.1005 18.5568H76.1005ZM76.5664 19.5114L76.0024 20.3372C76.5201 20.6907 77.1275 20.8295 77.7539 20.8295V19.8295V18.8295C77.4181 18.8295 77.2339 18.7563 77.1303 18.6856L76.5664 19.5114ZM85.733 9.36364H86.733V8.36364H85.733V9.36364ZM85.733 21V22H86.733V21H85.733ZM84.0342 21H83.0342V22H84.0342V21ZM84.0342 9.36364V8.36364H83.0342V9.36364H84.0342ZM85.733 9.36364H84.733V21H85.733H86.733V9.36364H85.733ZM85.733 21V20H84.0342V21V22H85.733V21ZM84.0342 21H85.0342V9.36364H84.0342H83.0342V21H84.0342ZM84.0342 9.36364V10.3636H85.733V9.36364V8.36364H84.0342V9.36364Z" fill="#BFD0DB" mask="url(#path-2-outside-1_2062_1006)"/>
</g>
<defs>
<filter id="filter0_di_2062_1006" x="0" y="0" width="98" height="38" filterUnits="userSpaceOnUse" color-interpolation-filters="sRGB">
<feFlood flood-opacity="0" result="BackgroundImageFix"/>
<feColorMatrix in="SourceAlpha" type="matrix" values="0 0 0 0 0 0 0 0 0 0 0 0 0 0 0 0 0 0 127 0" result="hardAlpha"/>
<feOffset dy="4"/>
<feGaussianBlur stdDeviation="2"/>
<feComposite in2="hardAlpha" operator="out"/>
<feColorMatrix type="matrix" values="0 0 0 0 0 0 0 0 0 0 0 0 0 0 0 0 0 0 0.25 0"/>
<feBlend mode="normal" in2="BackgroundImageFix" result="effect1_dropShadow_2062_1006"/>
<feBlend mode="normal" in="SourceGraphic" in2="effect1_dropShadow_2062_1006" result="shape"/>
<feColorMatrix in="SourceAlpha" type="matrix" values="0 0 0 0 0 0 0 0 0 0 0 0 0 0 0 0 0 0 127 0" result="hardAlpha"/>
<feOffset dy="1"/>
<feGaussianBlur stdDeviation="2"/>
<feComposite in2="hardAlpha" operator="arithmetic" k2="-1" k3="1"/>
<feColorMatrix type="matrix" values="0 0 0 0 0 0 0 0 0 0 0 0 0 0 0 0 0 0 0.25 0"/>
<feBlend mode="normal" in2="shape" result="effect2_innerShadow_2062_1006"/>
</filter>
</defs>
</svg>
