<svg width="386" height="416" viewBox="0 0 386 416" fill="none" xmlns="http://www.w3.org/2000/svg">
<g filter="url(#filter0_d_2076_884)">
<rect x="8" y="4" width="370" height="400" rx="16" fill="#F5F7FA" fill-opacity="0.5" shape-rendering="crispEdges"/>
<rect x="8.5" y="4.5" width="369" height="399" rx="15.5" stroke="#DDE6F2" shape-rendering="crispEdges"/>
<path d="M144.25 38V24.9091H148.916C149.93 24.9091 150.772 25.0838 151.441 25.4332C152.114 25.7827 152.617 26.2663 152.949 26.8842C153.282 27.4979 153.448 28.2074 153.448 29.0128C153.448 29.8139 153.28 30.5192 152.943 31.1286C152.611 31.7337 152.108 32.2045 151.435 32.5412C150.765 32.8778 149.924 33.0462 148.91 33.0462H145.375V31.3459H148.731C149.37 31.3459 149.89 31.2543 150.29 31.071C150.695 30.8878 150.991 30.6214 151.179 30.272C151.366 29.9226 151.46 29.5028 151.46 29.0128C151.46 28.5185 151.364 28.0902 151.172 27.728C150.985 27.3658 150.689 27.0888 150.284 26.897C149.883 26.701 149.357 26.603 148.705 26.603H146.225V38H144.25ZM150.712 32.0938L153.947 38H151.697L148.526 32.0938H150.712ZM160.166 38.1982C159.199 38.1982 158.366 37.9915 157.667 37.5781C156.973 37.1605 156.436 36.5746 156.056 35.8203C155.681 35.0618 155.494 34.1733 155.494 33.1548C155.494 32.1491 155.681 31.2628 156.056 30.4957C156.436 29.7287 156.964 29.13 157.642 28.6996C158.323 28.2692 159.12 28.054 160.032 28.054C160.586 28.054 161.123 28.1456 161.643 28.3288C162.163 28.5121 162.63 28.7997 163.043 29.1918C163.456 29.5838 163.782 30.093 164.021 30.7195C164.26 31.3416 164.379 32.098 164.379 32.9886V33.6662H156.574V32.2344H162.506C162.506 31.7315 162.404 31.2862 162.199 30.8984C161.995 30.5064 161.707 30.1974 161.336 29.9716C160.97 29.7457 160.539 29.6328 160.045 29.6328C159.508 29.6328 159.039 29.7649 158.639 30.0291C158.242 30.2891 157.936 30.63 157.718 31.0518C157.505 31.4695 157.399 31.9233 157.399 32.4134V33.532C157.399 34.1882 157.514 34.7464 157.744 35.2067C157.978 35.6669 158.304 36.0185 158.722 36.2614C159.14 36.5 159.627 36.6193 160.186 36.6193C160.548 36.6193 160.878 36.5682 161.176 36.4659C161.475 36.3594 161.733 36.2017 161.95 35.9929C162.167 35.7841 162.333 35.5263 162.448 35.2195L164.257 35.5455C164.113 36.0781 163.853 36.5447 163.478 36.9453C163.107 37.3416 162.64 37.6506 162.078 37.8722C161.519 38.0895 160.882 38.1982 160.166 38.1982ZM174.217 30.5788L172.484 30.8857C172.412 30.6641 172.297 30.4531 172.139 30.2528C171.986 30.0526 171.777 29.8885 171.513 29.7607C171.249 29.6328 170.918 29.5689 170.522 29.5689C169.981 29.5689 169.529 29.6903 169.167 29.9332C168.805 30.1719 168.624 30.4808 168.624 30.8601C168.624 31.1882 168.745 31.4524 168.988 31.6527C169.231 31.853 169.623 32.017 170.164 32.1449L171.724 32.5028C172.627 32.7116 173.3 33.0334 173.744 33.468C174.187 33.9027 174.408 34.4673 174.408 35.1619C174.408 35.75 174.238 36.2741 173.897 36.7344C173.56 37.1903 173.09 37.5483 172.484 37.8082C171.884 38.0682 171.187 38.1982 170.394 38.1982C169.295 38.1982 168.398 37.9638 167.703 37.495C167.009 37.022 166.582 36.3509 166.425 35.4815L168.272 35.2003C168.387 35.6818 168.624 36.0462 168.982 36.2933C169.34 36.5362 169.806 36.6577 170.381 36.6577C171.008 36.6577 171.509 36.5277 171.884 36.2678C172.259 36.0036 172.446 35.6818 172.446 35.3026C172.446 34.9957 172.331 34.7379 172.101 34.5291C171.875 34.3203 171.528 34.1626 171.059 34.0561L169.397 33.6918C168.481 33.483 167.803 33.1506 167.364 32.6946C166.93 32.2386 166.712 31.6612 166.712 30.9624C166.712 30.3828 166.874 29.8757 167.198 29.4411C167.522 29.0064 167.969 28.6676 168.541 28.4247C169.112 28.1776 169.766 28.054 170.503 28.054C171.564 28.054 172.399 28.2841 173.009 28.7443C173.618 29.2003 174.021 29.8118 174.217 30.5788ZM183.089 33.9283V28.1818H185.007V38H183.128V36.2997H183.025C182.799 36.8239 182.437 37.2607 181.939 37.6101C181.444 37.9553 180.829 38.1278 180.091 38.1278C179.461 38.1278 178.902 37.9893 178.417 37.7124C177.935 37.4311 177.556 37.0156 177.279 36.4659C177.006 35.9162 176.87 35.2365 176.87 34.4268V28.1818H178.781V34.1967C178.781 34.8658 178.966 35.3984 179.337 35.7947C179.708 36.1911 180.189 36.3892 180.782 36.3892C181.14 36.3892 181.496 36.2997 181.849 36.1207C182.207 35.9418 182.503 35.6712 182.738 35.3089C182.976 34.9467 183.094 34.4865 183.089 33.9283ZM189.846 24.9091V38H187.935V24.9091H189.846ZM197.36 28.1818V29.7159H191.997V28.1818H197.36ZM193.436 25.8295H195.347V35.1172C195.347 35.4879 195.402 35.767 195.513 35.9545C195.624 36.1378 195.767 36.2635 195.941 36.3317C196.12 36.3956 196.314 36.4276 196.523 36.4276C196.676 36.4276 196.811 36.4169 196.926 36.3956C197.041 36.3743 197.13 36.3572 197.194 36.3445L197.539 37.9233C197.429 37.9659 197.271 38.0085 197.066 38.0511C196.862 38.098 196.606 38.1236 196.299 38.1278C195.796 38.1364 195.328 38.0469 194.893 37.8594C194.458 37.6719 194.107 37.3821 193.838 36.9901C193.57 36.598 193.436 36.1058 193.436 35.5135V25.8295ZM200.199 38V24.9091H204.865C205.884 24.9091 206.727 25.0945 207.396 25.4652C208.065 25.8359 208.566 26.343 208.898 26.9865C209.231 27.6257 209.397 28.3459 209.397 29.147C209.397 29.9524 209.229 30.6768 208.892 31.3203C208.56 31.9595 208.057 32.4666 207.384 32.8416C206.715 33.2124 205.873 33.3977 204.859 33.3977H201.65V31.723H204.68C205.323 31.723 205.845 31.6122 206.246 31.3906C206.646 31.1648 206.94 30.858 207.128 30.4702C207.315 30.0824 207.409 29.6413 207.409 29.147C207.409 28.6527 207.315 28.2138 207.128 27.8303C206.94 27.4467 206.644 27.1463 206.239 26.929C205.839 26.7116 205.31 26.603 204.654 26.603H202.174V38H200.199ZM214.689 38.2173C214.066 38.2173 213.504 38.1023 213.001 37.8722C212.498 37.6378 212.1 37.299 211.806 36.8558C211.516 36.4126 211.371 35.8693 211.371 35.2259C211.371 34.6719 211.478 34.2159 211.691 33.858C211.904 33.5 212.191 33.2166 212.554 33.0078C212.916 32.799 213.321 32.6413 213.768 32.5348C214.216 32.4283 214.671 32.3473 215.136 32.2919C215.724 32.2237 216.201 32.1683 216.568 32.1257C216.934 32.0788 217.201 32.0043 217.367 31.902C217.533 31.7997 217.616 31.6335 217.616 31.4034V31.3587C217.616 30.8004 217.458 30.3679 217.143 30.0611C216.832 29.7543 216.368 29.6009 215.75 29.6009C215.106 29.6009 214.599 29.7436 214.228 30.0291C213.862 30.3104 213.608 30.6236 213.468 30.9688L211.671 30.5597C211.885 29.9631 212.196 29.4815 212.605 29.1151C213.018 28.7443 213.493 28.4759 214.03 28.3097C214.567 28.1392 215.132 28.054 215.724 28.054C216.116 28.054 216.532 28.1009 216.97 28.1946C217.414 28.2841 217.827 28.4503 218.211 28.6932C218.598 28.9361 218.916 29.2834 219.163 29.7351C219.41 30.1825 219.534 30.7642 219.534 31.4801V38H217.667V36.6577H217.591C217.467 36.9048 217.282 37.1477 217.034 37.3864C216.787 37.625 216.47 37.8232 216.082 37.9808C215.694 38.1385 215.23 38.2173 214.689 38.2173ZM215.104 36.6832C215.632 36.6832 216.084 36.5788 216.459 36.37C216.838 36.1612 217.126 35.8885 217.322 35.5518C217.522 35.2109 217.622 34.8466 217.622 34.4588V33.1932C217.554 33.2614 217.422 33.3253 217.226 33.3849C217.034 33.4403 216.815 33.4893 216.568 33.532C216.321 33.5703 216.08 33.6065 215.845 33.6406C215.611 33.6705 215.415 33.696 215.257 33.7173C214.887 33.7642 214.548 33.843 214.241 33.9538C213.939 34.0646 213.696 34.2244 213.512 34.4332C213.333 34.6378 213.244 34.9105 213.244 35.2514C213.244 35.7244 213.419 36.0824 213.768 36.3253C214.118 36.5639 214.563 36.6832 215.104 36.6832ZM226.556 41.8864C225.776 41.8864 225.105 41.7841 224.542 41.5795C223.984 41.375 223.528 41.1044 223.174 40.7678C222.821 40.4311 222.557 40.0625 222.382 39.6619L224.025 38.9844C224.14 39.1719 224.293 39.37 224.485 39.5788C224.681 39.7919 224.945 39.973 225.277 40.1222C225.614 40.2713 226.047 40.3459 226.575 40.3459C227.299 40.3459 227.898 40.169 228.371 39.8153C228.844 39.4659 229.081 38.9077 229.081 38.1406V36.2102H228.959C228.844 36.419 228.678 36.6513 228.461 36.907C228.248 37.1626 227.954 37.3842 227.579 37.5717C227.204 37.7592 226.716 37.853 226.115 37.853C225.339 37.853 224.64 37.6719 224.018 37.3097C223.4 36.9432 222.91 36.4041 222.548 35.6925C222.19 34.9766 222.011 34.0966 222.011 33.0526C222.011 32.0085 222.188 31.1136 222.542 30.3679C222.9 29.6222 223.39 29.0511 224.012 28.6548C224.634 28.2543 225.339 28.054 226.128 28.054C226.737 28.054 227.229 28.1562 227.604 28.3608C227.979 28.5611 228.271 28.7955 228.48 29.0639C228.693 29.3324 228.857 29.5689 228.972 29.7734H229.113V28.1818H230.985V38.2173C230.985 39.0611 230.789 39.7536 230.397 40.2947C230.005 40.8359 229.475 41.2365 228.806 41.4964C228.141 41.7564 227.391 41.8864 226.556 41.8864ZM226.537 36.2678C227.086 36.2678 227.551 36.1399 227.93 35.8842C228.314 35.6243 228.603 35.2536 228.799 34.772C229 34.2862 229.1 33.7045 229.1 33.027C229.1 32.3665 229.002 31.7848 228.806 31.282C228.61 30.7791 228.322 30.3871 227.943 30.1058C227.564 29.8203 227.095 29.6776 226.537 29.6776C225.961 29.6776 225.482 29.8267 225.098 30.125C224.715 30.419 224.425 30.8196 224.229 31.3267C224.037 31.8338 223.941 32.4006 223.941 33.027C223.941 33.6705 224.039 34.2351 224.235 34.7209C224.432 35.2067 224.721 35.5859 225.105 35.8587C225.493 36.1314 225.97 36.2678 226.537 36.2678ZM238.14 38.1982C237.173 38.1982 236.34 37.9915 235.641 37.5781C234.946 37.1605 234.409 36.5746 234.03 35.8203C233.655 35.0618 233.468 34.1733 233.468 33.1548C233.468 32.1491 233.655 31.2628 234.03 30.4957C234.409 29.7287 234.938 29.13 235.615 28.6996C236.297 28.2692 237.094 28.054 238.006 28.054C238.56 28.054 239.097 28.1456 239.617 28.3288C240.137 28.5121 240.603 28.7997 241.017 29.1918C241.43 29.5838 241.756 30.093 241.995 30.7195C242.233 31.3416 242.353 32.098 242.353 32.9886V33.6662H234.548V32.2344H240.48C240.48 31.7315 240.377 31.2862 240.173 30.8984C239.968 30.5064 239.681 30.1974 239.31 29.9716C238.944 29.7457 238.513 29.6328 238.019 29.6328C237.482 29.6328 237.013 29.7649 236.613 30.0291C236.216 30.2891 235.909 30.63 235.692 31.0518C235.479 31.4695 235.372 31.9233 235.372 32.4134V33.532C235.372 34.1882 235.488 34.7464 235.718 35.2067C235.952 35.6669 236.278 36.0185 236.696 36.2614C237.113 36.5 237.601 36.6193 238.159 36.6193C238.522 36.6193 238.852 36.5682 239.15 36.4659C239.448 36.3594 239.706 36.2017 239.924 35.9929C240.141 35.7841 240.307 35.5263 240.422 35.2195L242.231 35.5455C242.086 36.0781 241.826 36.5447 241.451 36.9453C241.081 37.3416 240.614 37.6506 240.051 37.8722C239.493 38.0895 238.856 38.1982 238.14 38.1982Z" fill="black"/>
<path d="M132.566 190.909V195.569H130.981V190.909H132.566ZM135.852 190.909V195.569H134.267V190.909H135.852ZM146.022 196.579L144.29 196.886C144.217 196.664 144.102 196.453 143.945 196.253C143.791 196.053 143.582 195.888 143.318 195.761C143.054 195.633 142.724 195.569 142.327 195.569C141.786 195.569 141.335 195.69 140.972 195.933C140.61 196.172 140.429 196.481 140.429 196.86C140.429 197.188 140.55 197.452 140.793 197.653C141.036 197.853 141.428 198.017 141.969 198.145L143.529 198.503C144.433 198.712 145.106 199.033 145.549 199.468C145.992 199.903 146.214 200.467 146.214 201.162C146.214 201.75 146.043 202.274 145.702 202.734C145.366 203.19 144.895 203.548 144.29 203.808C143.689 204.068 142.992 204.198 142.2 204.198C141.1 204.198 140.203 203.964 139.509 203.495C138.814 203.022 138.388 202.351 138.23 201.482L140.077 201.2C140.193 201.682 140.429 202.046 140.787 202.293C141.145 202.536 141.612 202.658 142.187 202.658C142.813 202.658 143.314 202.528 143.689 202.268C144.064 202.004 144.251 201.682 144.251 201.303C144.251 200.996 144.136 200.738 143.906 200.529C143.68 200.32 143.333 200.163 142.864 200.056L141.202 199.692C140.286 199.483 139.609 199.151 139.17 198.695C138.735 198.239 138.518 197.661 138.518 196.962C138.518 196.383 138.68 195.876 139.004 195.441C139.327 195.006 139.775 194.668 140.346 194.425C140.917 194.178 141.571 194.054 142.308 194.054C143.369 194.054 144.205 194.284 144.814 194.744C145.423 195.2 145.826 195.812 146.022 196.579ZM154.895 199.928V194.182H156.812V204H154.933V202.3H154.831C154.605 202.824 154.243 203.261 153.744 203.61C153.25 203.955 152.634 204.128 151.897 204.128C151.266 204.128 150.708 203.989 150.222 203.712C149.741 203.431 149.361 203.016 149.084 202.466C148.812 201.916 148.675 201.237 148.675 200.427V194.182H150.586V200.197C150.586 200.866 150.772 201.398 151.143 201.795C151.513 202.191 151.995 202.389 152.587 202.389C152.945 202.389 153.301 202.3 153.655 202.121C154.013 201.942 154.309 201.671 154.543 201.309C154.782 200.947 154.899 200.487 154.895 199.928ZM159.74 204V194.182H161.575V195.78H161.696C161.901 195.239 162.235 194.817 162.7 194.514C163.164 194.207 163.72 194.054 164.368 194.054C165.024 194.054 165.574 194.207 166.017 194.514C166.465 194.821 166.795 195.243 167.008 195.78H167.11C167.345 195.256 167.718 194.838 168.229 194.527C168.74 194.212 169.35 194.054 170.057 194.054C170.948 194.054 171.674 194.333 172.237 194.891C172.803 195.45 173.087 196.291 173.087 197.416V204H171.176V197.595C171.176 196.93 170.995 196.449 170.632 196.151C170.27 195.852 169.838 195.703 169.335 195.703C168.713 195.703 168.229 195.895 167.884 196.278C167.539 196.658 167.366 197.146 167.366 197.742V204H165.461V197.474C165.461 196.941 165.295 196.513 164.963 196.189C164.63 195.865 164.198 195.703 163.665 195.703C163.303 195.703 162.968 195.799 162.661 195.991C162.359 196.178 162.114 196.44 161.926 196.777C161.743 197.114 161.651 197.504 161.651 197.947V204H159.74ZM176.008 204V194.182H177.843V195.78H177.964C178.169 195.239 178.504 194.817 178.968 194.514C179.432 194.207 179.989 194.054 180.636 194.054C181.293 194.054 181.842 194.207 182.285 194.514C182.733 194.821 183.063 195.243 183.276 195.78H183.379C183.613 195.256 183.986 194.838 184.497 194.527C185.008 194.212 185.618 194.054 186.325 194.054C187.216 194.054 187.942 194.333 188.505 194.891C189.072 195.45 189.355 196.291 189.355 197.416V204H187.444V197.595C187.444 196.93 187.263 196.449 186.901 196.151C186.538 195.852 186.106 195.703 185.603 195.703C184.981 195.703 184.497 195.895 184.152 196.278C183.807 196.658 183.634 197.146 183.634 197.742V204H181.729V197.474C181.729 196.941 181.563 196.513 181.231 196.189C180.898 195.865 180.466 195.703 179.933 195.703C179.571 195.703 179.236 195.799 178.93 195.991C178.627 196.178 178.382 196.44 178.195 196.777C178.011 197.114 177.92 197.504 177.92 197.947V204H176.008ZM195.134 204.217C194.512 204.217 193.949 204.102 193.446 203.872C192.944 203.638 192.545 203.299 192.251 202.856C191.961 202.413 191.816 201.869 191.816 201.226C191.816 200.672 191.923 200.216 192.136 199.858C192.349 199.5 192.637 199.217 192.999 199.008C193.361 198.799 193.766 198.641 194.213 198.535C194.661 198.428 195.117 198.347 195.581 198.292C196.169 198.224 196.647 198.168 197.013 198.126C197.38 198.079 197.646 198.004 197.812 197.902C197.978 197.8 198.061 197.634 198.061 197.403V197.359C198.061 196.8 197.904 196.368 197.588 196.061C197.277 195.754 196.813 195.601 196.195 195.601C195.552 195.601 195.044 195.744 194.674 196.029C194.307 196.31 194.054 196.624 193.913 196.969L192.117 196.56C192.33 195.963 192.641 195.482 193.05 195.115C193.463 194.744 193.939 194.476 194.476 194.31C195.012 194.139 195.577 194.054 196.169 194.054C196.561 194.054 196.977 194.101 197.416 194.195C197.859 194.284 198.272 194.45 198.656 194.693C199.044 194.936 199.361 195.283 199.608 195.735C199.856 196.183 199.979 196.764 199.979 197.48V204H198.113V202.658H198.036C197.912 202.905 197.727 203.148 197.48 203.386C197.233 203.625 196.915 203.823 196.527 203.981C196.14 204.138 195.675 204.217 195.134 204.217ZM195.549 202.683C196.078 202.683 196.53 202.579 196.905 202.37C197.284 202.161 197.571 201.888 197.767 201.552C197.968 201.211 198.068 200.847 198.068 200.459V199.193C198 199.261 197.868 199.325 197.672 199.385C197.48 199.44 197.26 199.489 197.013 199.532C196.766 199.57 196.525 199.607 196.291 199.641C196.057 199.67 195.86 199.696 195.703 199.717C195.332 199.764 194.993 199.843 194.686 199.954C194.384 200.065 194.141 200.224 193.958 200.433C193.779 200.638 193.689 200.911 193.689 201.251C193.689 201.724 193.864 202.082 194.213 202.325C194.563 202.564 195.008 202.683 195.549 202.683ZM202.885 204V194.182H204.732V195.741H204.834C205.013 195.213 205.329 194.798 205.78 194.495C206.236 194.188 206.752 194.035 207.327 194.035C207.447 194.035 207.587 194.039 207.749 194.048C207.915 194.056 208.045 194.067 208.139 194.08V195.908C208.062 195.886 207.926 195.863 207.73 195.837C207.534 195.808 207.338 195.793 207.142 195.793C206.69 195.793 206.287 195.888 205.934 196.08C205.584 196.268 205.307 196.53 205.103 196.866C204.898 197.199 204.796 197.578 204.796 198.004V204H202.885ZM211.66 207.682C211.374 207.682 211.114 207.658 210.88 207.612C210.646 207.569 210.471 207.522 210.356 207.471L210.816 205.905C211.166 205.999 211.477 206.039 211.749 206.026C212.022 206.013 212.263 205.911 212.472 205.719C212.685 205.528 212.872 205.214 213.034 204.78L213.271 204.128L209.678 194.182H211.724L214.21 201.801H214.313L216.799 194.182H218.851L214.805 205.31C214.617 205.822 214.379 206.254 214.089 206.608C213.799 206.966 213.454 207.234 213.053 207.413C212.653 207.592 212.188 207.682 211.66 207.682ZM226.595 204V205.624H218.279V204H226.595ZM232.454 204.198C231.487 204.198 230.654 203.991 229.955 203.578C229.26 203.161 228.723 202.575 228.344 201.82C227.969 201.062 227.781 200.173 227.781 199.155C227.781 198.149 227.969 197.263 228.344 196.496C228.723 195.729 229.252 195.13 229.929 194.7C230.611 194.269 231.408 194.054 232.32 194.054C232.874 194.054 233.411 194.146 233.931 194.329C234.451 194.512 234.917 194.8 235.331 195.192C235.744 195.584 236.07 196.093 236.308 196.719C236.547 197.342 236.666 198.098 236.666 198.989V199.666H228.862V198.234H234.794C234.794 197.732 234.691 197.286 234.487 196.898C234.282 196.506 233.995 196.197 233.624 195.972C233.257 195.746 232.827 195.633 232.333 195.633C231.796 195.633 231.327 195.765 230.926 196.029C230.53 196.289 230.223 196.63 230.006 197.052C229.793 197.469 229.686 197.923 229.686 198.413V199.532C229.686 200.188 229.801 200.746 230.031 201.207C230.266 201.667 230.592 202.018 231.009 202.261C231.427 202.5 231.915 202.619 232.473 202.619C232.835 202.619 233.166 202.568 233.464 202.466C233.762 202.359 234.02 202.202 234.237 201.993C234.455 201.784 234.621 201.526 234.736 201.219L236.545 201.545C236.4 202.078 236.14 202.545 235.765 202.945C235.394 203.342 234.928 203.651 234.365 203.872C233.807 204.089 233.17 204.198 232.454 204.198ZM241.058 198.17V204H239.147V194.182H240.982V195.78H241.103C241.329 195.26 241.682 194.842 242.164 194.527C242.65 194.212 243.261 194.054 243.999 194.054C244.668 194.054 245.254 194.195 245.756 194.476C246.259 194.753 246.649 195.166 246.926 195.716C247.203 196.266 247.342 196.945 247.342 197.755V204H245.43V197.985C245.43 197.273 245.245 196.717 244.874 196.317C244.504 195.912 243.994 195.71 243.347 195.71C242.903 195.71 242.509 195.805 242.164 195.997C241.823 196.189 241.553 196.47 241.352 196.841C241.156 197.207 241.058 197.651 241.058 198.17ZM251.716 190.909V195.569H250.131V190.909H251.716ZM255.001 190.909V195.569H253.416V190.909H255.001Z" fill="black"/>
</g>
<defs>
<filter id="filter0_d_2076_884" x="0" y="0" width="386" height="416" filterUnits="userSpaceOnUse" color-interpolation-filters="sRGB">
<feFlood flood-opacity="0" result="BackgroundImageFix"/>
<feColorMatrix in="SourceAlpha" type="matrix" values="0 0 0 0 0 0 0 0 0 0 0 0 0 0 0 0 0 0 127 0" result="hardAlpha"/>
<feOffset dy="4"/>
<feGaussianBlur stdDeviation="4"/>
<feComposite in2="hardAlpha" operator="out"/>
<feColorMatrix type="matrix" values="0 0 0 0 0 0 0 0 0 0 0 0 0 0 0 0 0 0 0.15 0"/>
<feBlend mode="normal" in2="BackgroundImageFix" result="effect1_dropShadow_2076_884"/>
<feBlend mode="normal" in="SourceGraphic" in2="effect1_dropShadow_2076_884" result="shape"/>
</filter>
</defs>
</svg>
