<svg width="98" height="38" viewBox="0 0 98 38" fill="none" xmlns="http://www.w3.org/2000/svg">
<g filter="url(#filter0_di_2062_1009)">
<path d="M19 0.5H79C87.0081 0.5 93.5 6.99187 93.5 15C93.5 23.0081 87.0081 29.5 79 29.5H19C10.9919 29.5 4.5 23.0081 4.5 15C4.5 6.99187 10.9919 0.5 19 0.5Z" fill="#DCE6F1" fill-opacity="0.4" stroke="#BFD0DB"/>
<mask id="path-2-outside-1_2062_1009" maskUnits="userSpaceOnUse" x="17" y="7" width="63" height="16" fill="black">
<rect fill="white" x="17" y="7" width="63" height="16"/>
<path d="M25.7191 12.4205C25.6585 11.8826 25.4085 11.4659 24.9691 11.1705C24.5297 10.8712 23.9766 10.7216 23.31 10.7216C22.8327 10.7216 22.4198 10.7973 22.0713 10.9489C21.7229 11.0966 21.452 11.3011 21.2588 11.5625C21.0694 11.8201 20.9747 12.1136 20.9747 12.4432C20.9747 12.7197 21.0391 12.9583 21.1679 13.1591C21.3005 13.3598 21.4729 13.5284 21.685 13.6648C21.9009 13.7973 22.1319 13.9091 22.3782 14C22.6244 14.0871 22.8611 14.1591 23.0884 14.2159L24.2247 14.5114C24.596 14.6023 24.9766 14.7254 25.3668 14.8807C25.7569 15.036 26.1187 15.2405 26.452 15.4943C26.7854 15.7481 27.0543 16.0625 27.2588 16.4375C27.4672 16.8125 27.5713 17.2614 27.5713 17.7841C27.5713 18.4432 27.4009 19.0284 27.06 19.5398C26.7229 20.0511 26.2323 20.4545 25.5884 20.75C24.9482 21.0455 24.1736 21.1932 23.2645 21.1932C22.3933 21.1932 21.6395 21.0549 21.0032 20.7784C20.3668 20.5019 19.8687 20.1098 19.5088 19.6023C19.149 19.0909 18.9501 18.4848 18.9122 17.7841H20.6736C20.7077 18.2045 20.8441 18.5549 21.0827 18.8352C21.3251 19.1117 21.6338 19.3182 22.0088 19.4545C22.3876 19.5871 22.8024 19.6534 23.2532 19.6534C23.7494 19.6534 24.1907 19.5758 24.577 19.4205C24.9672 19.2614 25.274 19.0417 25.4975 18.7614C25.721 18.4773 25.8327 18.1458 25.8327 17.767C25.8327 17.4223 25.7342 17.1402 25.5372 16.9205C25.3441 16.7008 25.0808 16.5189 24.7475 16.375C24.4179 16.2311 24.0448 16.1042 23.6282 15.9943L22.2532 15.6193C21.3213 15.3655 20.5827 14.9924 20.0372 14.5C19.4956 14.0076 19.2247 13.3561 19.2247 12.5455C19.2247 11.875 19.4066 11.2898 19.7702 10.7898C20.1338 10.2898 20.6263 9.90151 21.2475 9.625C21.8687 9.3447 22.5694 9.20455 23.3497 9.20455C24.1376 9.20455 24.8327 9.3428 25.435 9.61932C26.041 9.89583 26.5183 10.2765 26.8668 10.7614C27.2153 11.2424 27.3971 11.7955 27.4122 12.4205H25.7191ZM35.1414 17.3807V12.2727H36.8459V21H35.1755V19.4886H35.0846C34.8838 19.9545 34.5618 20.3428 34.1187 20.6534C33.6793 20.9602 33.1319 21.1136 32.4766 21.1136C31.916 21.1136 31.4198 20.9905 30.988 20.7443C30.56 20.4943 30.2228 20.125 29.9766 19.6364C29.7342 19.1477 29.613 18.5436 29.613 17.8239V12.2727H31.3118V17.6193C31.3118 18.214 31.4766 18.6875 31.8062 19.0398C32.1357 19.392 32.5637 19.5682 33.0903 19.5682C33.4084 19.5682 33.7247 19.4886 34.0391 19.3295C34.3573 19.1705 34.6206 18.9299 34.8289 18.608C35.041 18.286 35.1452 17.8769 35.1414 17.3807ZM39.2086 21V12.2727H40.8507V13.6591H40.9416C41.1007 13.1894 41.381 12.8201 41.7825 12.5511C42.1878 12.2784 42.6461 12.142 43.1575 12.142C43.2635 12.142 43.3885 12.1458 43.5325 12.1534C43.6802 12.161 43.7957 12.1705 43.8791 12.1818V13.8068C43.8109 13.7879 43.6897 13.767 43.5154 13.7443C43.3412 13.7178 43.1669 13.7045 42.9927 13.7045C42.5912 13.7045 42.2332 13.7898 41.9188 13.9602C41.6082 14.1269 41.362 14.3598 41.1802 14.6591C40.9984 14.9545 40.9075 15.2917 40.9075 15.6705V21H39.2086ZM53.1608 12.2727L49.996 21H48.1778L45.0074 12.2727H46.8312L49.0414 18.9886H49.1324L51.3369 12.2727H53.1608ZM54.8374 21V12.2727H56.5362V21H54.8374ZM55.6953 10.9261C55.3999 10.9261 55.1461 10.8277 54.9339 10.6307C54.7256 10.4299 54.6214 10.1913 54.6214 9.91477C54.6214 9.63447 54.7256 9.39583 54.9339 9.19886C55.1461 8.99811 55.3999 8.89773 55.6953 8.89773C55.9908 8.89773 56.2427 8.99811 56.451 9.19886C56.6631 9.39583 56.7692 9.63447 56.7692 9.91477C56.7692 10.1913 56.6631 10.4299 56.451 10.6307C56.2427 10.8277 55.9908 10.9261 55.6953 10.9261ZM66.3676 12.2727L63.2029 21H61.3847L58.2142 12.2727H60.0381L62.2483 18.9886H62.3392L64.5438 12.2727H66.3676ZM70.334 21.1932C69.781 21.1932 69.281 21.0909 68.834 20.8864C68.387 20.678 68.0329 20.3769 67.7715 19.983C67.5139 19.589 67.3851 19.1061 67.3851 18.5341C67.3851 18.0417 67.4798 17.6364 67.6692 17.3182C67.8586 17 68.1143 16.7481 68.4363 16.5625C68.7582 16.3769 69.1181 16.2367 69.5158 16.142C69.9136 16.0473 70.3189 15.9754 70.7317 15.9261C71.2545 15.8655 71.6787 15.8163 72.0045 15.7784C72.3302 15.7367 72.567 15.6705 72.7147 15.5795C72.8624 15.4886 72.9363 15.3409 72.9363 15.1364V15.0966C72.9363 14.6004 72.7961 14.2159 72.5158 13.9432C72.2393 13.6705 71.8264 13.5341 71.2772 13.5341C70.7052 13.5341 70.2545 13.661 69.9249 13.9148C69.5992 14.1648 69.3738 14.4432 69.2488 14.75L67.6522 14.3864C67.8416 13.8561 68.1181 13.428 68.4817 13.1023C68.8492 12.7727 69.2715 12.5341 69.7488 12.3864C70.2261 12.2348 70.7279 12.1591 71.2545 12.1591C71.6029 12.1591 71.9723 12.2008 72.3624 12.2841C72.7564 12.3636 73.1238 12.5114 73.4647 12.7273C73.8094 12.9432 74.0916 13.2519 74.3113 13.6534C74.531 14.0511 74.6408 14.5682 74.6408 15.2045V21H72.9817V19.8068H72.9136C72.8037 20.0265 72.6389 20.2424 72.4192 20.4545C72.1995 20.6667 71.9173 20.8428 71.5726 20.983C71.2279 21.1231 70.8151 21.1932 70.334 21.1932ZM70.7033 19.8295C71.173 19.8295 71.5745 19.7367 71.9079 19.5511C72.245 19.3655 72.5007 19.1231 72.6749 18.8239C72.8529 18.5208 72.942 18.197 72.942 17.8523V16.7273C72.8814 16.7879 72.7639 16.8447 72.5897 16.8977C72.4192 16.947 72.2242 16.9905 72.0045 17.0284C71.7848 17.0625 71.5707 17.0947 71.3624 17.125C71.1541 17.1515 70.9798 17.1742 70.8397 17.1932C70.5101 17.2348 70.209 17.3049 69.9363 17.4034C69.6673 17.5019 69.4514 17.6439 69.2886 17.8295C69.1295 18.0114 69.0499 18.2538 69.0499 18.5568C69.0499 18.9773 69.2052 19.2955 69.5158 19.5114C69.8264 19.7235 70.2223 19.8295 70.7033 19.8295ZM78.6825 9.36364V21H76.9836V9.36364H78.6825Z"/>
</mask>
<path d="M25.7191 12.4205C25.6585 11.8826 25.4085 11.4659 24.9691 11.1705C24.5297 10.8712 23.9766 10.7216 23.31 10.7216C22.8327 10.7216 22.4198 10.7973 22.0713 10.9489C21.7229 11.0966 21.452 11.3011 21.2588 11.5625C21.0694 11.8201 20.9747 12.1136 20.9747 12.4432C20.9747 12.7197 21.0391 12.9583 21.1679 13.1591C21.3005 13.3598 21.4729 13.5284 21.685 13.6648C21.9009 13.7973 22.1319 13.9091 22.3782 14C22.6244 14.0871 22.8611 14.1591 23.0884 14.2159L24.2247 14.5114C24.596 14.6023 24.9766 14.7254 25.3668 14.8807C25.7569 15.036 26.1187 15.2405 26.452 15.4943C26.7854 15.7481 27.0543 16.0625 27.2588 16.4375C27.4672 16.8125 27.5713 17.2614 27.5713 17.7841C27.5713 18.4432 27.4009 19.0284 27.06 19.5398C26.7229 20.0511 26.2323 20.4545 25.5884 20.75C24.9482 21.0455 24.1736 21.1932 23.2645 21.1932C22.3933 21.1932 21.6395 21.0549 21.0032 20.7784C20.3668 20.5019 19.8687 20.1098 19.5088 19.6023C19.149 19.0909 18.9501 18.4848 18.9122 17.7841H20.6736C20.7077 18.2045 20.8441 18.5549 21.0827 18.8352C21.3251 19.1117 21.6338 19.3182 22.0088 19.4545C22.3876 19.5871 22.8024 19.6534 23.2532 19.6534C23.7494 19.6534 24.1907 19.5758 24.577 19.4205C24.9672 19.2614 25.274 19.0417 25.4975 18.7614C25.721 18.4773 25.8327 18.1458 25.8327 17.767C25.8327 17.4223 25.7342 17.1402 25.5372 16.9205C25.3441 16.7008 25.0808 16.5189 24.7475 16.375C24.4179 16.2311 24.0448 16.1042 23.6282 15.9943L22.2532 15.6193C21.3213 15.3655 20.5827 14.9924 20.0372 14.5C19.4956 14.0076 19.2247 13.3561 19.2247 12.5455C19.2247 11.875 19.4066 11.2898 19.7702 10.7898C20.1338 10.2898 20.6263 9.90151 21.2475 9.625C21.8687 9.3447 22.5694 9.20455 23.3497 9.20455C24.1376 9.20455 24.8327 9.3428 25.435 9.61932C26.041 9.89583 26.5183 10.2765 26.8668 10.7614C27.2153 11.2424 27.3971 11.7955 27.4122 12.4205H25.7191ZM35.1414 17.3807V12.2727H36.8459V21H35.1755V19.4886H35.0846C34.8838 19.9545 34.5618 20.3428 34.1187 20.6534C33.6793 20.9602 33.1319 21.1136 32.4766 21.1136C31.916 21.1136 31.4198 20.9905 30.988 20.7443C30.56 20.4943 30.2228 20.125 29.9766 19.6364C29.7342 19.1477 29.613 18.5436 29.613 17.8239V12.2727H31.3118V17.6193C31.3118 18.214 31.4766 18.6875 31.8062 19.0398C32.1357 19.392 32.5637 19.5682 33.0903 19.5682C33.4084 19.5682 33.7247 19.4886 34.0391 19.3295C34.3573 19.1705 34.6206 18.9299 34.8289 18.608C35.041 18.286 35.1452 17.8769 35.1414 17.3807ZM39.2086 21V12.2727H40.8507V13.6591H40.9416C41.1007 13.1894 41.381 12.8201 41.7825 12.5511C42.1878 12.2784 42.6461 12.142 43.1575 12.142C43.2635 12.142 43.3885 12.1458 43.5325 12.1534C43.6802 12.161 43.7957 12.1705 43.8791 12.1818V13.8068C43.8109 13.7879 43.6897 13.767 43.5154 13.7443C43.3412 13.7178 43.1669 13.7045 42.9927 13.7045C42.5912 13.7045 42.2332 13.7898 41.9188 13.9602C41.6082 14.1269 41.362 14.3598 41.1802 14.6591C40.9984 14.9545 40.9075 15.2917 40.9075 15.6705V21H39.2086ZM53.1608 12.2727L49.996 21H48.1778L45.0074 12.2727H46.8312L49.0414 18.9886H49.1324L51.3369 12.2727H53.1608ZM54.8374 21V12.2727H56.5362V21H54.8374ZM55.6953 10.9261C55.3999 10.9261 55.1461 10.8277 54.9339 10.6307C54.7256 10.4299 54.6214 10.1913 54.6214 9.91477C54.6214 9.63447 54.7256 9.39583 54.9339 9.19886C55.1461 8.99811 55.3999 8.89773 55.6953 8.89773C55.9908 8.89773 56.2427 8.99811 56.451 9.19886C56.6631 9.39583 56.7692 9.63447 56.7692 9.91477C56.7692 10.1913 56.6631 10.4299 56.451 10.6307C56.2427 10.8277 55.9908 10.9261 55.6953 10.9261ZM66.3676 12.2727L63.2029 21H61.3847L58.2142 12.2727H60.0381L62.2483 18.9886H62.3392L64.5438 12.2727H66.3676ZM70.334 21.1932C69.781 21.1932 69.281 21.0909 68.834 20.8864C68.387 20.678 68.0329 20.3769 67.7715 19.983C67.5139 19.589 67.3851 19.1061 67.3851 18.5341C67.3851 18.0417 67.4798 17.6364 67.6692 17.3182C67.8586 17 68.1143 16.7481 68.4363 16.5625C68.7582 16.3769 69.1181 16.2367 69.5158 16.142C69.9136 16.0473 70.3189 15.9754 70.7317 15.9261C71.2545 15.8655 71.6787 15.8163 72.0045 15.7784C72.3302 15.7367 72.567 15.6705 72.7147 15.5795C72.8624 15.4886 72.9363 15.3409 72.9363 15.1364V15.0966C72.9363 14.6004 72.7961 14.2159 72.5158 13.9432C72.2393 13.6705 71.8264 13.5341 71.2772 13.5341C70.7052 13.5341 70.2545 13.661 69.9249 13.9148C69.5992 14.1648 69.3738 14.4432 69.2488 14.75L67.6522 14.3864C67.8416 13.8561 68.1181 13.428 68.4817 13.1023C68.8492 12.7727 69.2715 12.5341 69.7488 12.3864C70.2261 12.2348 70.7279 12.1591 71.2545 12.1591C71.6029 12.1591 71.9723 12.2008 72.3624 12.2841C72.7564 12.3636 73.1238 12.5114 73.4647 12.7273C73.8094 12.9432 74.0916 13.2519 74.3113 13.6534C74.531 14.0511 74.6408 14.5682 74.6408 15.2045V21H72.9817V19.8068H72.9136C72.8037 20.0265 72.6389 20.2424 72.4192 20.4545C72.1995 20.6667 71.9173 20.8428 71.5726 20.983C71.2279 21.1231 70.8151 21.1932 70.334 21.1932ZM70.7033 19.8295C71.173 19.8295 71.5745 19.7367 71.9079 19.5511C72.245 19.3655 72.5007 19.1231 72.6749 18.8239C72.8529 18.5208 72.942 18.197 72.942 17.8523V16.7273C72.8814 16.7879 72.7639 16.8447 72.5897 16.8977C72.4192 16.947 72.2242 16.9905 72.0045 17.0284C71.7848 17.0625 71.5707 17.0947 71.3624 17.125C71.1541 17.1515 70.9798 17.1742 70.8397 17.1932C70.5101 17.2348 70.209 17.3049 69.9363 17.4034C69.6673 17.5019 69.4514 17.6439 69.2886 17.8295C69.1295 18.0114 69.0499 18.2538 69.0499 18.5568C69.0499 18.9773 69.2052 19.2955 69.5158 19.5114C69.8264 19.7235 70.2223 19.8295 70.7033 19.8295ZM78.6825 9.36364V21H76.9836V9.36364H78.6825Z" fill="#244F85"/>
<path d="M25.7191 12.4205L24.7254 12.5324L24.8254 13.4205H25.7191V12.4205ZM24.9691 11.1705L24.4062 11.997L24.4111 12.0003L24.9691 11.1705ZM22.0713 10.9489L22.4616 11.8696L22.4701 11.8659L22.0713 10.9489ZM21.2588 11.5625L20.4547 10.9681L20.4532 10.9701L21.2588 11.5625ZM21.1679 13.1591L20.3262 13.6991L20.3335 13.7102L21.1679 13.1591ZM21.685 13.6648L21.1442 14.506L21.1529 14.5115L21.1617 14.5169L21.685 13.6648ZM22.3782 14L22.0317 14.9382L22.0446 14.9427L22.3782 14ZM23.0884 14.2159L23.34 13.248L23.3309 13.2458L23.0884 14.2159ZM24.2247 14.5114L23.9731 15.4792L23.98 15.481L23.9869 15.4827L24.2247 14.5114ZM27.2588 16.4375L26.3809 16.9164L26.3847 16.9231L27.2588 16.4375ZM27.06 19.5398L26.2279 18.9851L26.2251 18.9894L27.06 19.5398ZM25.5884 20.75L25.1714 19.8411L25.1693 19.842L25.5884 20.75ZM21.0032 20.7784L21.4017 19.8613L21.0032 20.7784ZM19.5088 19.6023L18.691 20.1778L18.6931 20.1806L19.5088 19.6023ZM18.9122 17.7841V16.7841H17.8567L17.9137 17.8381L18.9122 17.7841ZM20.6736 17.7841L21.6703 17.7033L21.5958 16.7841H20.6736V17.7841ZM21.0827 18.8352L20.3213 19.4835L20.326 19.489L20.3308 19.4945L21.0827 18.8352ZM22.0088 19.4545L21.6671 20.3944L21.6785 20.3984L22.0088 19.4545ZM24.577 19.4205L24.95 20.3483L24.9546 20.3464L24.577 19.4205ZM25.4975 18.7614L26.2794 19.3848L26.2834 19.3796L25.4975 18.7614ZM25.5372 16.9205L24.7862 17.5808L24.7927 17.588L25.5372 16.9205ZM24.7475 16.375L24.3472 17.2914L24.351 17.2931L24.7475 16.375ZM23.6282 15.9943L23.365 16.9591L23.3732 16.9613L23.6282 15.9943ZM22.2532 15.6193L22.5163 14.6546L22.5159 14.6545L22.2532 15.6193ZM20.0372 14.5L19.3646 15.2399L19.3671 15.2423L20.0372 14.5ZM19.7702 10.7898L18.9615 10.2016H18.9615L19.7702 10.7898ZM21.2475 9.625L21.6541 10.5386L21.6588 10.5365L21.2475 9.625ZM25.435 9.61932L25.0177 10.5281L25.0199 10.5291L25.435 9.61932ZM26.8668 10.7614L26.0548 11.345L26.057 11.348L26.8668 10.7614ZM27.4122 12.4205V13.4205H28.4368L28.412 12.3962L27.4122 12.4205ZM25.7191 12.4205L26.7128 12.3085C26.6202 11.4865 26.2162 10.804 25.5271 10.3406L24.9691 11.1705L24.4111 12.0003C24.6007 12.1278 24.6968 12.2787 24.7254 12.5324L25.7191 12.4205ZM24.9691 11.1705L25.532 10.3439C24.8888 9.90593 24.1263 9.72159 23.31 9.72159V10.7216V11.7216C23.827 11.7216 24.1705 11.8365 24.4062 11.997L24.9691 11.1705ZM23.31 10.7216V9.72159C22.7295 9.72159 22.1747 9.81349 21.6726 10.0318L22.0713 10.9489L22.4701 11.8659C22.6649 11.7812 22.9359 11.7216 23.31 11.7216V10.7216ZM22.0713 10.9489L21.681 10.0282C21.1953 10.2341 20.7706 10.5407 20.4547 10.9681L21.2588 11.5625L22.063 12.1569C22.1335 12.0616 22.2504 11.9591 22.4616 11.8696L22.0713 10.9489ZM21.2588 11.5625L20.4532 10.9701C20.1334 11.405 19.9747 11.9075 19.9747 12.4432H20.9747H21.9747C21.9747 12.3197 22.0054 12.2352 22.0645 12.1549L21.2588 11.5625ZM20.9747 12.4432H19.9747C19.9747 12.88 20.0785 13.3128 20.3262 13.699L21.1679 13.1591L22.0096 12.6191C21.9998 12.6039 21.9747 12.5594 21.9747 12.4432H20.9747ZM21.1679 13.1591L20.3335 13.7102C20.5464 14.0326 20.8208 14.2981 21.1442 14.506L21.685 13.6648L22.2257 12.8236C22.1249 12.7588 22.0546 12.6871 22.0024 12.608L21.1679 13.1591ZM21.685 13.6648L21.1617 14.5169C21.4356 14.6851 21.7261 14.8252 22.0318 14.9381L22.3782 14L22.7245 13.0619C22.5377 12.9929 22.3662 12.9096 22.2082 12.8126L21.685 13.6648ZM22.3782 14L22.0446 14.9427C22.3173 15.0392 22.5846 15.1207 22.8458 15.1861L23.0884 14.2159L23.3309 13.2458C23.1377 13.1975 22.9314 13.135 22.7117 13.0573L22.3782 14ZM23.0884 14.2159L22.8367 15.1837L23.9731 15.4792L24.2247 14.5114L24.4764 13.5435L23.34 13.2481L23.0884 14.2159ZM24.2247 14.5114L23.9869 15.4827C24.309 15.5616 24.6456 15.6699 24.997 15.8098L25.3668 14.8807L25.7366 13.9516C25.3077 13.7808 24.8829 13.643 24.4626 13.5401L24.2247 14.5114ZM25.3668 14.8807L24.997 15.8098C25.303 15.9316 25.5853 16.0913 25.8462 16.29L26.452 15.4943L27.0578 14.6987C26.6521 14.3898 26.2109 14.1404 25.7366 13.9516L25.3668 14.8807ZM26.452 15.4943L25.8462 16.29C26.0654 16.4568 26.2424 16.6624 26.3809 16.9164L27.2588 16.4375L28.1367 15.9586C27.8661 15.4626 27.5054 15.0394 27.0578 14.6987L26.452 15.4943ZM27.2588 16.4375L26.3847 16.9231C26.4943 17.1204 26.5713 17.3944 26.5713 17.7841H27.5713H28.5713C28.5713 17.1283 28.4401 16.5046 28.133 15.9519L27.2588 16.4375ZM27.5713 17.7841H26.5713C26.5713 18.2608 26.4513 18.65 26.2279 18.9851L27.06 19.5398L27.892 20.0945C28.3505 19.4068 28.5713 18.6256 28.5713 17.7841H27.5713ZM27.06 19.5398L26.2251 18.9894C26.0063 19.3213 25.6724 19.6112 25.1714 19.8411L25.5884 20.75L26.0054 21.6589C26.7923 21.2979 27.4394 20.781 27.8949 20.0902L27.06 19.5398ZM25.5884 20.75L25.1693 19.842C24.6928 20.062 24.0692 20.1932 23.2645 20.1932V21.1932V22.1932C24.278 22.1932 25.2037 22.0289 26.0074 21.658L25.5884 20.75ZM23.2645 21.1932V20.1932C22.4965 20.1932 21.8845 20.0711 21.4017 19.8613L21.0032 20.7784L20.6046 21.6956C21.3945 22.0388 22.2901 22.1932 23.2645 22.1932V21.1932ZM21.0032 20.7784L21.4017 19.8613C20.9129 19.6489 20.5671 19.3659 20.3246 19.0239L19.5088 19.6023L18.6931 20.1806C19.1703 20.8538 19.8207 21.3549 20.6046 21.6956L21.0032 20.7784ZM19.5088 19.6023L20.3266 19.0268C20.0876 18.6871 19.9398 18.2671 19.9108 17.7301L18.9122 17.7841L17.9137 17.8381C17.9604 18.7026 18.2104 19.4947 18.691 20.1778L19.5088 19.6023ZM18.9122 17.7841V18.7841H20.6736V17.7841V16.7841H18.9122V17.7841ZM20.6736 17.7841L19.6769 17.8649C19.7254 18.4628 19.9274 19.0208 20.3213 19.4835L21.0827 18.8352L21.8441 18.187C21.7608 18.0891 21.69 17.9463 21.6703 17.7033L20.6736 17.7841ZM21.0827 18.8352L20.3308 19.4945C20.6934 19.9081 21.1477 20.2055 21.6671 20.3943L22.0088 19.4545L22.3506 18.5148C22.1199 18.4309 21.9568 18.3153 21.8346 18.176L21.0827 18.8352ZM22.0088 19.4545L21.6785 20.3984C22.1757 20.5724 22.7036 20.6534 23.2532 20.6534V19.6534V18.6534C22.9012 18.6534 22.5996 18.6018 22.3392 18.5107L22.0088 19.4545ZM23.2532 19.6534V20.6534C23.8532 20.6534 24.4247 20.5595 24.95 20.3483L24.577 19.4205L24.2041 18.4926C23.9566 18.5921 23.6456 18.6534 23.2532 18.6534V19.6534ZM24.577 19.4205L24.9546 20.3464C25.4753 20.1341 25.9319 19.8206 26.2794 19.3848L25.4975 18.7614L24.7156 18.138C24.6161 18.2627 24.4591 18.3886 24.1994 18.4945L24.577 19.4205ZM25.4975 18.7614L26.2834 19.3796C26.6526 18.9104 26.8327 18.3585 26.8327 17.767H25.8327H24.8327C24.8327 17.9331 24.7894 18.0441 24.7115 18.1431L25.4975 18.7614ZM25.8327 17.767H26.8327C26.8327 17.22 26.6704 16.6864 26.2818 16.2529L25.5372 16.9205L24.7927 17.588C24.798 17.5939 24.8327 17.6247 24.8327 17.767H25.8327ZM25.5372 16.9205L26.2882 16.2601C25.9767 15.9059 25.5811 15.6457 25.1439 15.4569L24.7475 16.375L24.351 17.2931C24.5805 17.3922 24.7114 17.4956 24.7863 17.5808L25.5372 16.9205ZM24.7475 16.375L25.1477 15.4586C24.763 15.2905 24.34 15.1478 23.8831 15.0274L23.6282 15.9943L23.3732 16.9613C23.7496 17.0605 24.0729 17.1716 24.3472 17.2914L24.7475 16.375ZM23.6282 15.9943L23.8913 15.0296L22.5163 14.6546L22.2532 15.6193L21.99 16.5841L23.365 16.9591L23.6282 15.9943ZM22.2532 15.6193L22.5159 14.6545C21.6897 14.4294 21.1057 14.1173 20.7073 13.7577L20.0372 14.5L19.3671 15.2423C20.0597 15.8675 20.9529 16.3016 21.9904 16.5842L22.2532 15.6193ZM20.0372 14.5L20.7099 13.7601C20.4004 13.4787 20.2247 13.108 20.2247 12.5455H19.2247H18.2247C18.2247 13.6041 18.5908 14.5365 19.3646 15.2399L20.0372 14.5ZM19.2247 12.5455H20.2247C20.2247 12.0675 20.3502 11.6924 20.5789 11.3779L19.7702 10.7898L18.9615 10.2016C18.4629 10.8872 18.2247 11.6825 18.2247 12.5455H19.2247ZM19.7702 10.7898L20.5789 11.3779C20.8293 11.0337 21.1767 10.7511 21.6541 10.5386L21.2475 9.625L20.8408 8.71142C20.0758 9.05195 19.4384 9.54587 18.9615 10.2016L19.7702 10.7898ZM21.2475 9.625L21.6588 10.5365C22.1332 10.3224 22.6908 10.2045 23.3497 10.2045V9.20455V8.20455C22.4481 8.20455 21.6041 8.36698 20.8362 8.7135L21.2475 9.625ZM23.3497 9.20455V10.2045C24.0204 10.2045 24.5687 10.322 25.0177 10.5281L25.435 9.61932L25.8522 8.71052C25.0967 8.36364 24.2548 8.20455 23.3497 8.20455V9.20455ZM25.435 9.61932L25.0199 10.5291C25.4862 10.7419 25.8193 11.0174 26.0548 11.345L26.8668 10.7614L27.6788 10.1777C27.2173 9.53562 26.5958 9.0498 25.8501 8.70954L25.435 9.61932ZM26.8668 10.7614L26.057 11.348C26.2803 11.6563 26.402 12.0108 26.4125 12.4447L27.4122 12.4205L28.412 12.3962C28.3922 11.5801 28.1503 10.8286 27.6766 10.1747L26.8668 10.7614ZM27.4122 12.4205V11.4205H25.7191V12.4205V13.4205H27.4122V12.4205ZM35.1414 17.3807H34.1414L34.1414 17.3883L35.1414 17.3807ZM35.1414 12.2727V11.2727H34.1414V12.2727H35.1414ZM36.8459 12.2727H37.8459V11.2727H36.8459V12.2727ZM36.8459 21V22H37.8459V21H36.8459ZM35.1755 21H34.1755V22H35.1755V21ZM35.1755 19.4886H36.1755V18.4886H35.1755V19.4886ZM35.0846 19.4886V18.4886H34.4266L34.1662 19.0929L35.0846 19.4886ZM34.1187 20.6534L34.6912 21.4733L34.6926 21.4723L34.1187 20.6534ZM30.988 20.7443L30.4836 21.6079L30.4927 21.613L30.988 20.7443ZM29.9766 19.6364L29.0808 20.0808L29.0836 20.0863L29.9766 19.6364ZM29.613 12.2727V11.2727H28.613V12.2727H29.613ZM31.3118 12.2727H32.3118V11.2727H31.3118V12.2727ZM31.8062 19.0398L32.5364 18.3566V18.3566L31.8062 19.0398ZM34.0391 19.3295L33.5919 18.4351L33.5876 18.4373L34.0391 19.3295ZM34.8289 18.608L33.9938 18.0578L33.9893 18.0647L34.8289 18.608ZM35.1414 17.3807H36.1414V12.2727H35.1414H34.1414V17.3807H35.1414ZM35.1414 12.2727V13.2727H36.8459V12.2727V11.2727H35.1414V12.2727ZM36.8459 12.2727H35.8459V21H36.8459H37.8459V12.2727H36.8459ZM36.8459 21V20H35.1755V21V22H36.8459V21ZM35.1755 21H36.1755V19.4886H35.1755H34.1755V21H35.1755ZM35.1755 19.4886V18.4886H35.0846V19.4886V20.4886H35.1755V19.4886ZM35.0846 19.4886L34.1662 19.0929C34.0438 19.3771 33.8467 19.6229 33.5447 19.8345L34.1187 20.6534L34.6926 21.4723C35.277 21.0627 35.7239 20.532 36.0029 19.8844L35.0846 19.4886ZM34.1187 20.6534L33.5462 19.8335C33.309 19.9991 32.9734 20.1136 32.4766 20.1136V21.1136V22.1136C33.2904 22.1136 34.0496 21.9213 34.6912 21.4733L34.1187 20.6534ZM32.4766 21.1136V20.1136C32.0671 20.1136 31.7457 20.0252 31.4833 19.8756L30.988 20.7443L30.4927 21.613C31.0939 21.9558 31.7649 22.1136 32.4766 22.1136V21.1136ZM30.988 20.7443L31.4923 19.8808C31.2482 19.7382 31.0383 19.5211 30.8697 19.1864L29.9766 19.6364L29.0836 20.0863C29.4073 20.7289 29.8717 21.2504 30.4836 21.6078L30.988 20.7443ZM29.9766 19.6364L30.8724 19.1919C30.7168 18.8783 30.613 18.4366 30.613 17.8239H29.613H28.613C28.613 18.6505 28.7516 19.4172 29.0808 20.0808L29.9766 19.6364ZM29.613 17.8239H30.613V12.2727H29.613H28.613V17.8239H29.613ZM29.613 12.2727V13.2727H31.3118V12.2727V11.2727H29.613V12.2727ZM31.3118 12.2727H30.3118V17.6193H31.3118H32.3118V12.2727H31.3118ZM31.3118 17.6193H30.3118C30.3118 18.4057 30.5349 19.1446 31.0759 19.7229L31.8062 19.0398L32.5364 18.3566C32.4184 18.2304 32.3118 18.0224 32.3118 17.6193H31.3118ZM31.8062 19.0398L31.0759 19.7229C31.613 20.297 32.3151 20.5682 33.0903 20.5682V19.5682V18.5682C32.8123 18.5682 32.6585 18.4871 32.5364 18.3566L31.8062 19.0398ZM33.0903 19.5682V20.5682C33.5816 20.5682 34.0515 20.444 34.4906 20.2218L34.0391 19.3295L33.5876 18.4373C33.3979 18.5333 33.2353 18.5682 33.0903 18.5682V19.5682ZM34.0391 19.3295L34.4863 20.224C34.9768 19.9788 35.3709 19.6111 35.6685 19.1512L34.8289 18.608L33.9893 18.0647C33.8702 18.2488 33.7378 18.3621 33.5919 18.4351L34.0391 19.3295ZM34.8289 18.608L35.664 19.1581C36.0125 18.6291 36.1462 18.011 36.1414 17.373L35.1414 17.3807L34.1414 17.3883C34.1441 17.7428 34.0695 17.9429 33.9938 18.0578L34.8289 18.608ZM39.2086 21H38.2086V22H39.2086V21ZM39.2086 12.2727V11.2727H38.2086V12.2727H39.2086ZM40.8507 12.2727H41.8507V11.2727H40.8507V12.2727ZM40.8507 13.6591H39.8507V14.6591H40.8507V13.6591ZM40.9416 13.6591V14.6591H41.6587L41.8887 13.9799L40.9416 13.6591ZM41.7825 12.5511L42.339 13.382L42.3407 13.3808L41.7825 12.5511ZM43.5325 12.1534L43.4799 13.152L43.4813 13.1521L43.5325 12.1534ZM43.8791 12.1818H44.8791V11.3089L44.0142 11.191L43.8791 12.1818ZM43.8791 13.8068L43.6114 14.7703L44.8791 15.1225V13.8068H43.8791ZM43.5154 13.7443L43.365 14.7329L43.3755 14.7345L43.3861 14.7359L43.5154 13.7443ZM41.9188 13.9602L42.3917 14.8414L42.3955 14.8393L41.9188 13.9602ZM41.1802 14.6591L42.0319 15.1832L42.0348 15.1784L41.1802 14.6591ZM40.9075 21V22H41.9075V21H40.9075ZM39.2086 21H40.2086V12.2727H39.2086H38.2086V21H39.2086ZM39.2086 12.2727V13.2727H40.8507V12.2727V11.2727H39.2086V12.2727ZM40.8507 12.2727H39.8507V13.6591H40.8507H41.8507V12.2727H40.8507ZM40.8507 13.6591V14.6591H40.9416V13.6591V12.6591H40.8507V13.6591ZM40.9416 13.6591L41.8887 13.9799C41.9792 13.7127 42.1253 13.5251 42.339 13.382L41.7825 12.5511L41.226 11.7203C40.6366 12.1151 40.2221 12.6661 39.9944 13.3383L40.9416 13.6591ZM41.7825 12.5511L42.3407 13.3808C42.5731 13.2245 42.8352 13.142 43.1575 13.142V12.142V11.142C42.457 11.142 41.8025 11.3324 41.2242 11.7215L41.7825 12.5511ZM43.1575 12.142V13.142C43.2411 13.142 43.3477 13.1451 43.4799 13.152L43.5325 12.1534L43.585 11.1548C43.4293 11.1466 43.286 11.142 43.1575 11.142V12.142ZM43.5325 12.1534L43.4813 13.1521C43.6185 13.1591 43.7017 13.1669 43.7439 13.1726L43.8791 12.1818L44.0142 11.191C43.8898 11.174 43.7419 11.1628 43.5837 11.1547L43.5325 12.1534ZM43.8791 12.1818H42.8791V13.8068H43.8791H44.8791V12.1818H43.8791ZM43.8791 13.8068L44.1467 12.8433C44.0026 12.8033 43.8173 12.7752 43.6448 12.7527L43.5154 13.7443L43.3861 14.7359C43.465 14.7462 43.5246 14.7551 43.5676 14.7625C43.6154 14.7708 43.6248 14.7741 43.6114 14.7703L43.8791 13.8068ZM43.5154 13.7443L43.6659 12.7557C43.4424 12.7217 43.2179 12.7045 42.9927 12.7045V13.7045V14.7045C43.116 14.7045 43.24 14.7139 43.365 14.7329L43.5154 13.7443ZM42.9927 13.7045V12.7045C42.4455 12.7045 41.9202 12.822 41.4422 13.0811L41.9188 13.9602L42.3955 14.8393C42.5463 14.7576 42.7369 14.7045 42.9927 14.7045V13.7045ZM41.9188 13.9602L41.446 13.0791C40.9792 13.3295 40.6007 13.687 40.3256 14.1398L41.1802 14.6591L42.0348 15.1784C42.1233 15.0327 42.2372 14.9243 42.3917 14.8414L41.9188 13.9602ZM41.1802 14.6591L40.3285 14.135C40.0409 14.6024 39.9075 15.1242 39.9075 15.6705H40.9075H41.9075C41.9075 15.4591 41.9559 15.3067 42.0319 15.1832L41.1802 14.6591ZM40.9075 15.6705H39.9075V21H40.9075H41.9075V15.6705H40.9075ZM40.9075 21V20H39.2086V21V22H40.9075V21ZM53.1608 12.2727L54.1009 12.6136L54.5871 11.2727H53.1608V12.2727ZM49.996 21V22H50.6971L50.9361 21.3409L49.996 21ZM48.1778 21L47.2379 21.3414L47.4772 22H48.1778V21ZM45.0074 12.2727V11.2727H43.5801L44.0675 12.6142L45.0074 12.2727ZM46.8312 12.2727L47.7811 11.9601L47.5549 11.2727H46.8312V12.2727ZM49.0414 18.9886L48.0916 19.3012L48.3178 19.9886H49.0414V18.9886ZM49.1324 18.9886V19.9886H49.8566L50.0825 19.3005L49.1324 18.9886ZM51.3369 12.2727V11.2727H50.6127L50.3868 11.9608L51.3369 12.2727ZM53.1608 12.2727L52.2207 11.9318L49.0559 20.6591L49.996 21L50.9361 21.3409L54.1009 12.6136L53.1608 12.2727ZM49.996 21V20H48.1778V21V22H49.996V21ZM48.1778 21L49.1177 20.6586L45.9473 11.9313L45.0074 12.2727L44.0675 12.6142L47.2379 21.3414L48.1778 21ZM45.0074 12.2727V13.2727H46.8312V12.2727V11.2727H45.0074V12.2727ZM46.8312 12.2727L45.8813 12.5853L48.0916 19.3012L49.0414 18.9886L49.9913 18.676L47.7811 11.9601L46.8312 12.2727ZM49.0414 18.9886V19.9886H49.1324V18.9886V17.9886H49.0414V18.9886ZM49.1324 18.9886L50.0825 19.3005L52.287 12.5846L51.3369 12.2727L50.3868 11.9608L48.1822 18.6768L49.1324 18.9886ZM51.3369 12.2727V13.2727H53.1608V12.2727V11.2727H51.3369V12.2727ZM54.8374 21H53.8374V22H54.8374V21ZM54.8374 12.2727V11.2727H53.8374V12.2727H54.8374ZM56.5362 12.2727H57.5362V11.2727H56.5362V12.2727ZM56.5362 21V22H57.5362V21H56.5362ZM54.9339 10.6307L54.2401 11.3508L54.2467 11.3572L54.2535 11.3635L54.9339 10.6307ZM54.9339 9.19886L55.621 9.92551L55.6213 9.92516L54.9339 9.19886ZM56.451 9.19886L55.7571 9.91894L55.7638 9.92536L55.7705 9.93166L56.451 9.19886ZM56.451 10.6307L57.138 11.3573L57.1384 11.357L56.451 10.6307ZM54.8374 21H55.8374V12.2727H54.8374H53.8374V21H54.8374ZM54.8374 12.2727V13.2727H56.5362V12.2727V11.2727H54.8374V12.2727ZM56.5362 12.2727H55.5362V21H56.5362H57.5362V12.2727H56.5362ZM56.5362 21V20H54.8374V21V22H56.5362V21ZM55.6953 10.9261V9.92614C55.6607 9.92614 55.6472 9.9208 55.6452 9.92001C55.6435 9.91935 55.6337 9.91584 55.6144 9.89789L54.9339 10.6307L54.2535 11.3635C54.6548 11.7361 55.1532 11.9261 55.6953 11.9261V10.9261ZM54.9339 10.6307L55.6278 9.9106C55.6171 9.90029 55.6128 9.89435 55.6121 9.89343C55.6116 9.8927 55.6136 9.89536 55.6161 9.90108C55.6186 9.90687 55.6203 9.91255 55.6211 9.91686C55.622 9.92101 55.6214 9.9208 55.6214 9.91477H54.6214H53.6214C53.6214 10.4767 53.8463 10.9713 54.2401 11.3508L54.9339 10.6307ZM54.6214 9.91477H55.6214C55.6214 9.9069 55.6222 9.90554 55.6214 9.90916C55.6207 9.91298 55.619 9.91894 55.6161 9.92562C55.6132 9.93227 55.6105 9.93632 55.6098 9.93731C55.6092 9.93811 55.612 9.93397 55.621 9.92551L54.9339 9.19886L54.2469 8.47222C53.844 8.8532 53.6214 9.35251 53.6214 9.91477H54.6214ZM54.9339 9.19886L55.6213 9.92516C55.6414 9.90619 55.6509 9.90301 55.6512 9.90292C55.6516 9.90274 55.663 9.89773 55.6953 9.89773V8.89773V7.89773C55.1475 7.89773 54.6468 8.09379 54.2466 8.47257L54.9339 9.19886ZM55.6953 8.89773V9.89773C55.7124 9.89773 55.723 9.89916 55.7284 9.90014C55.7336 9.9011 55.7356 9.90194 55.7356 9.90197C55.7357 9.90199 55.7366 9.90231 55.739 9.9039C55.7416 9.90558 55.7477 9.9099 55.7571 9.91894L56.451 9.19886L57.1449 8.47878C56.7458 8.09424 56.2435 7.89773 55.6953 7.89773V8.89773ZM56.451 9.19886L55.7705 9.93166C55.7801 9.94056 55.7832 9.945 55.7827 9.94424C55.782 9.94329 55.779 9.93897 55.7758 9.93171C55.7726 9.92439 55.7706 9.91754 55.7695 9.9126C55.7686 9.90785 55.7692 9.90805 55.7692 9.91477H56.7692H57.7692C57.7692 9.34628 57.5398 8.84525 57.1314 8.46607L56.451 9.19886ZM56.7692 9.91477H55.7692C55.7692 9.91963 55.7687 9.91867 55.7698 9.9134C55.771 9.90797 55.773 9.90141 55.7758 9.895C55.7786 9.88867 55.7808 9.88575 55.7803 9.8865C55.7796 9.88745 55.775 9.89365 55.7636 9.90439L56.451 10.6307L57.1384 11.357C57.5375 10.9792 57.7692 10.4829 57.7692 9.91477H56.7692ZM56.451 10.6307L55.764 9.90403C55.755 9.91256 55.749 9.91672 55.7463 9.91843C55.7438 9.92007 55.7425 9.92062 55.7417 9.92093C55.7409 9.92124 55.7379 9.92234 55.7316 9.92347C55.7252 9.92464 55.7135 9.92614 55.6953 9.92614V10.9261V11.9261C56.2376 11.9261 56.7378 11.7357 57.138 11.3573L56.451 10.6307ZM66.3676 12.2727L67.3077 12.6136L67.794 11.2727H66.3676V12.2727ZM63.2029 21V22H63.904L64.143 21.3409L63.2029 21ZM61.3847 21L60.4448 21.3414L60.684 22H61.3847V21ZM58.2142 12.2727V11.2727H56.787L57.2743 12.6142L58.2142 12.2727ZM60.0381 12.2727L60.988 11.9601L60.7618 11.2727H60.0381V12.2727ZM62.2483 18.9886L61.2984 19.3012L61.5247 19.9886H62.2483V18.9886ZM62.3392 18.9886V19.9886H63.0635L63.2894 19.3005L62.3392 18.9886ZM64.5438 12.2727V11.2727H63.8195L63.5937 11.9608L64.5438 12.2727ZM66.3676 12.2727L65.4275 11.9318L62.2628 20.6591L63.2029 21L64.143 21.3409L67.3077 12.6136L66.3676 12.2727ZM63.2029 21V20H61.3847V21V22H63.2029V21ZM61.3847 21L62.3246 20.6586L59.1541 11.9313L58.2142 12.2727L57.2743 12.6142L60.4448 21.3414L61.3847 21ZM58.2142 12.2727V13.2727H60.0381V12.2727V11.2727H58.2142V12.2727ZM60.0381 12.2727L59.0882 12.5853L61.2984 19.3012L62.2483 18.9886L63.1982 18.676L60.988 11.9601L60.0381 12.2727ZM62.2483 18.9886V19.9886H62.3392V18.9886V17.9886H62.2483V18.9886ZM62.3392 18.9886L63.2894 19.3005L65.4939 12.5846L64.5438 12.2727L63.5937 11.9608L61.3891 18.6768L62.3392 18.9886ZM64.5438 12.2727V13.2727H66.3676V12.2727V11.2727H64.5438V12.2727ZM68.834 20.8864L68.4115 21.7928L68.4179 21.7957L68.834 20.8864ZM67.7715 19.983L66.9345 20.5302L66.9382 20.5358L67.7715 19.983ZM67.6692 17.3182L68.5285 17.8297L67.6692 17.3182ZM68.4363 16.5625L68.9357 17.4289L68.4363 16.5625ZM70.7317 15.9261L70.6166 14.9328L70.6133 14.9332L70.7317 15.9261ZM72.0045 15.7784L72.12 16.7718L72.1313 16.7703L72.0045 15.7784ZM72.7147 15.5795L73.2388 16.4312V16.4312L72.7147 15.5795ZM72.5158 13.9432L71.8136 14.6552L71.8185 14.6599L72.5158 13.9432ZM69.9249 13.9148L70.5337 14.7081L70.5351 14.7071L69.9249 13.9148ZM69.2488 14.75L69.0267 15.725L69.8545 15.9136L70.1749 15.1273L69.2488 14.75ZM67.6522 14.3864L66.7104 14.05L66.3315 15.1112L67.4301 15.3614L67.6522 14.3864ZM68.4817 13.1023L69.149 13.8471L69.1494 13.8467L68.4817 13.1023ZM69.7488 12.3864L70.0445 13.3417L70.0514 13.3395L69.7488 12.3864ZM72.3624 12.2841L72.1535 13.2621L72.1645 13.2643L72.3624 12.2841ZM73.4647 12.7273L72.9296 13.5721L72.9338 13.5747L73.4647 12.7273ZM74.3113 13.6534L73.434 14.1334L73.4359 14.1369L74.3113 13.6534ZM74.6408 21V22H75.6408V21H74.6408ZM72.9817 21H71.9817V22H72.9817V21ZM72.9817 19.8068H73.9817V18.8068H72.9817V19.8068ZM72.9136 19.8068V18.8068H72.2955L72.0191 19.3596L72.9136 19.8068ZM72.4192 20.4545L71.7246 19.7351L72.4192 20.4545ZM71.5726 20.983L71.196 20.0566L71.5726 20.983ZM71.9079 19.5511L71.4256 18.6751L71.4214 18.6774L71.9079 19.5511ZM72.6749 18.8239L71.8127 18.3173L71.8107 18.3207L72.6749 18.8239ZM72.942 16.7273H73.942V14.3131L72.2349 16.0202L72.942 16.7273ZM72.5897 16.8977L72.8672 17.8584L72.8741 17.8565L72.8808 17.8544L72.5897 16.8977ZM72.0045 17.0284L72.1578 18.0166L72.1661 18.0153L72.1744 18.0139L72.0045 17.0284ZM71.3624 17.125L71.4887 18.117L71.4975 18.1159L71.5064 18.1146L71.3624 17.125ZM70.8397 17.1932L70.9651 18.1853L70.9736 18.1842L70.8397 17.1932ZM69.9363 17.4034L69.5966 16.4628L69.5924 16.4644L69.9363 17.4034ZM69.2886 17.8295L68.5369 17.17L68.536 17.171L69.2886 17.8295ZM69.5158 19.5114L68.945 20.3325L68.9519 20.3372L69.5158 19.5114ZM70.334 21.1932V20.1932C69.9066 20.1932 69.5511 20.1148 69.2501 19.9771L68.834 20.8864L68.4179 21.7957C69.0109 22.067 69.6554 22.1932 70.334 22.1932V21.1932ZM68.834 20.8864L69.2565 19.98C68.9688 19.8459 68.7599 19.6638 68.6048 19.4301L67.7715 19.983L66.9382 20.5358C67.3059 21.0899 67.8052 21.5101 68.4115 21.7927L68.834 20.8864ZM67.7715 19.983L68.6085 19.4357C68.4782 19.2365 68.3851 18.9539 68.3851 18.5341H67.3851H66.3851C66.3851 19.2582 66.5496 19.9415 66.9345 20.5302L67.7715 19.983ZM67.3851 18.5341H68.3851C68.3851 18.1641 68.4568 17.9502 68.5285 17.8297L67.6692 17.3182L66.8099 16.8067C66.5029 17.3226 66.3851 17.9192 66.3851 18.5341H67.3851ZM67.6692 17.3182L68.5285 17.8297C68.63 17.6592 68.7615 17.5293 68.9357 17.4289L68.4363 16.5625L67.9369 15.6961C67.4671 15.9669 67.0873 16.3408 66.8099 16.8067L67.6692 17.3182ZM68.4363 16.5625L68.9357 17.4289C69.1661 17.296 69.4343 17.1894 69.7474 17.1149L69.5158 16.142L69.2842 15.1692C68.8018 15.2841 68.3504 15.4578 67.9369 15.6961L68.4363 16.5625ZM69.5158 16.142L69.7474 17.1149C70.1072 17.0292 70.4747 16.9639 70.8502 16.9191L70.7317 15.9261L70.6133 14.9332C70.163 14.9869 69.7199 15.0655 69.2842 15.1692L69.5158 16.142ZM70.7317 15.9261L70.8469 16.9195C71.3697 16.8589 71.794 16.8096 72.12 16.7717L72.0045 15.7784L71.889 14.7851C71.5634 14.823 71.1392 14.8722 70.6166 14.9328L70.7317 15.9261ZM72.0045 15.7784L72.1313 16.7703C72.4943 16.7239 72.9049 16.6367 73.2388 16.4312L72.7147 15.5795L72.1906 14.7279C72.2213 14.709 72.2196 14.7169 72.1567 14.7345C72.0977 14.751 72.0072 14.7699 71.8776 14.7865L72.0045 15.7784ZM72.7147 15.5795L73.2388 16.4312C73.7395 16.1231 73.9363 15.6152 73.9363 15.1364H72.9363H71.9363C71.9363 15.1197 71.9394 15.0475 71.9865 14.9534C72.0371 14.852 72.1141 14.775 72.1906 14.7279L72.7147 15.5795ZM72.9363 15.1364H73.9363V15.0966H72.9363H71.9363V15.1364H72.9363ZM72.9363 15.0966H73.9363C73.9363 14.407 73.7357 13.7349 73.2132 13.2265L72.5158 13.9432L71.8185 14.6599C71.8565 14.6969 71.9363 14.7937 71.9363 15.0966H72.9363ZM72.5158 13.9432L73.218 13.2312C72.6885 12.709 71.9794 12.5341 71.2772 12.5341V13.5341V14.5341C71.6734 14.5341 71.7901 14.6319 71.8136 14.6551L72.5158 13.9432ZM71.2772 13.5341V12.5341C70.5661 12.5341 69.8744 12.6915 69.3148 13.1225L69.9249 13.9148L70.5351 14.7071C70.6345 14.6304 70.8444 14.5341 71.2772 14.5341V13.5341ZM69.9249 13.9148L69.3161 13.1215C68.883 13.4539 68.5289 13.8664 68.3227 14.3727L69.2488 14.75L70.1749 15.1273C70.2186 15.0199 70.3153 14.8757 70.5337 14.7081L69.9249 13.9148ZM69.2488 14.75L69.4708 13.775L67.8743 13.4113L67.6522 14.3864L67.4301 15.3614L69.0267 15.725L69.2488 14.75ZM67.6522 14.3864L68.5939 14.7227C68.736 14.325 68.9273 14.0457 69.149 13.8471L68.4817 13.1023L67.8145 12.3574C67.3089 12.8104 66.9472 13.3871 66.7104 14.05L67.6522 14.3864ZM68.4817 13.1023L69.1494 13.8467C69.4081 13.6147 69.7032 13.4473 70.0445 13.3416L69.7488 12.3864L69.4531 11.4311C68.8398 11.6209 68.2902 11.9308 67.814 12.3578L68.4817 13.1023ZM69.7488 12.3864L70.0514 13.3395C70.4258 13.2206 70.8253 13.1591 71.2545 13.1591V12.1591V11.1591C70.6306 11.1591 70.0263 11.2491 69.4462 11.4332L69.7488 12.3864ZM71.2545 12.1591V13.1591C71.5235 13.1591 71.8224 13.1913 72.1535 13.262L72.3624 12.2841L72.5713 11.3061C72.1222 11.2102 71.6824 11.1591 71.2545 11.1591V12.1591ZM72.3624 12.2841L72.1645 13.2643C72.4382 13.3196 72.6915 13.4212 72.9296 13.5721L73.4647 12.7273L73.9997 11.8825C73.5561 11.6015 73.0745 11.4077 72.5603 11.3039L72.3624 12.2841ZM73.4647 12.7273L72.9338 13.5747C73.1161 13.6889 73.286 13.8629 73.434 14.1334L74.3113 13.6534L75.1885 13.1734C74.8972 12.6409 74.5027 12.1975 73.9955 11.8798L73.4647 12.7273ZM74.3113 13.6534L73.4359 14.1369C73.5476 14.3391 73.6408 14.6732 73.6408 15.2045H74.6408H75.6408C75.6408 14.4632 75.5143 13.7631 75.1866 13.1699L74.3113 13.6534ZM74.6408 15.2045H73.6408V21H74.6408H75.6408V15.2045H74.6408ZM74.6408 21V20H72.9817V21V22H74.6408V21ZM72.9817 21H73.9817V19.8068H72.9817H71.9817V21H72.9817ZM72.9817 19.8068V18.8068H72.9136V19.8068V20.8068H72.9817V19.8068ZM72.9136 19.8068L72.0191 19.3596C71.9706 19.4566 71.8818 19.5834 71.7246 19.7351L72.4192 20.4545L73.1138 21.1739C73.396 20.9015 73.6368 20.5964 73.808 20.254L72.9136 19.8068ZM72.4192 20.4545L71.7246 19.7351C71.6144 19.8416 71.4476 19.9543 71.196 20.0566L71.5726 20.983L71.9493 21.9093C72.3871 21.7313 72.7847 21.4918 73.1138 21.1739L72.4192 20.4545ZM71.5726 20.983L71.196 20.0566C71.0003 20.1362 70.722 20.1932 70.334 20.1932V21.1932V22.1932C70.9081 22.1932 71.4556 22.1101 71.9493 21.9093L71.5726 20.983ZM70.7033 19.8295V20.8295C71.3043 20.8295 71.8816 20.7103 72.3944 20.4248L71.9079 19.5511L71.4214 18.6774C71.2675 18.7631 71.0417 18.8295 70.7033 18.8295V19.8295ZM71.9079 19.5511L72.3902 20.4271C72.8678 20.1642 73.2638 19.7999 73.5391 19.3271L72.6749 18.8239L71.8107 18.3207C71.7376 18.4463 71.6221 18.5669 71.4256 18.6751L71.9079 19.5511ZM72.6749 18.8239L73.5371 19.3304C73.8035 18.877 73.942 18.3787 73.942 17.8523H72.942H71.942C71.942 18.0152 71.9024 18.1647 71.8127 18.3173L72.6749 18.8239ZM72.942 17.8523H73.942V16.7273H72.942H71.942V17.8523H72.942ZM72.942 16.7273L72.2349 16.0202C72.2773 15.9777 72.3142 15.9511 72.3353 15.9372C72.3569 15.923 72.3709 15.9161 72.3729 15.9152C72.3753 15.914 72.3707 15.9163 72.3573 15.9214C72.344 15.9264 72.3248 15.9331 72.2985 15.9411L72.5897 16.8977L72.8808 17.8544C73.0731 17.7959 73.4009 17.6825 73.6491 17.4344L72.942 16.7273ZM72.5897 16.8977L72.3121 15.937C72.1847 15.9738 72.0267 16.0098 71.8346 16.0429L72.0045 17.0284L72.1744 18.0139C72.4216 17.9712 72.6538 17.9201 72.8672 17.8584L72.5897 16.8977ZM72.0045 17.0284L71.8511 16.0402C71.6344 16.0739 71.4235 16.1056 71.2185 16.1354L71.3624 17.125L71.5064 18.1146C71.718 18.0838 71.9351 18.0511 72.1578 18.0166L72.0045 17.0284ZM71.3624 17.125L71.2362 16.133C71.0264 16.1597 70.8494 16.1828 70.7058 16.2022L70.8397 17.1932L70.9736 18.1842C71.1103 18.1657 71.2818 18.1433 71.4887 18.117L71.3624 17.125ZM70.8397 17.1932L70.7142 16.2011C70.322 16.2507 69.9478 16.336 69.5966 16.4629L69.9363 17.4034L70.2759 18.344C70.4702 18.2738 70.6983 18.219 70.9651 18.1853L70.8397 17.1932ZM69.9363 17.4034L69.5924 16.4644C69.1916 16.6112 68.8267 16.8398 68.5369 17.17L69.2886 17.8295L70.0402 18.4891C70.0762 18.4481 70.1431 18.3926 70.2801 18.3424L69.9363 17.4034ZM69.2886 17.8295L68.536 17.171C68.1799 17.578 68.0499 18.0753 68.0499 18.5568H69.0499H70.0499C70.0499 18.4919 70.0585 18.4632 70.0597 18.4595C70.0603 18.4578 70.0593 18.4611 70.0557 18.4675C70.052 18.4741 70.047 18.4813 70.0411 18.488L69.2886 17.8295ZM69.0499 18.5568H68.0499C68.0499 19.2621 68.3324 19.9066 68.9451 20.3325L69.5158 19.5114L70.0866 18.6903C70.0718 18.68 70.0663 18.6738 70.0656 18.6729C70.065 18.6723 70.0653 18.6727 70.0651 18.6722C70.0647 18.6714 70.0612 18.6642 70.0576 18.6472C70.054 18.6297 70.0499 18.6005 70.0499 18.5568H69.0499ZM69.5158 19.5114L68.9519 20.3372C69.4695 20.6907 70.077 20.8295 70.7033 20.8295V19.8295V18.8295C70.3675 18.8295 70.1833 18.7563 70.0798 18.6856L69.5158 19.5114ZM78.6825 9.36364H79.6825V8.36364H78.6825V9.36364ZM78.6825 21V22H79.6825V21H78.6825ZM76.9836 21H75.9836V22H76.9836V21ZM76.9836 9.36364V8.36364H75.9836V9.36364H76.9836ZM78.6825 9.36364H77.6825V21H78.6825H79.6825V9.36364H78.6825ZM78.6825 21V20H76.9836V21V22H78.6825V21ZM76.9836 21H77.9836V9.36364H76.9836H75.9836V21H76.9836ZM76.9836 9.36364V10.3636H78.6825V9.36364V8.36364H76.9836V9.36364Z" fill="#BFD0DB" mask="url(#path-2-outside-1_2062_1009)"/>
</g>
<defs>
<filter id="filter0_di_2062_1009" x="0" y="0" width="98" height="38" filterUnits="userSpaceOnUse" color-interpolation-filters="sRGB">
<feFlood flood-opacity="0" result="BackgroundImageFix"/>
<feColorMatrix in="SourceAlpha" type="matrix" values="0 0 0 0 0 0 0 0 0 0 0 0 0 0 0 0 0 0 127 0" result="hardAlpha"/>
<feOffset dy="4"/>
<feGaussianBlur stdDeviation="2"/>
<feComposite in2="hardAlpha" operator="out"/>
<feColorMatrix type="matrix" values="0 0 0 0 0 0 0 0 0 0 0 0 0 0 0 0 0 0 0.25 0"/>
<feBlend mode="normal" in2="BackgroundImageFix" result="effect1_dropShadow_2062_1009"/>
<feBlend mode="normal" in="SourceGraphic" in2="effect1_dropShadow_2062_1009" result="shape"/>
<feColorMatrix in="SourceAlpha" type="matrix" values="0 0 0 0 0 0 0 0 0 0 0 0 0 0 0 0 0 0 127 0" result="hardAlpha"/>
<feOffset dy="1"/>
<feGaussianBlur stdDeviation="2"/>
<feComposite in2="hardAlpha" operator="arithmetic" k2="-1" k3="1"/>
<feColorMatrix type="matrix" values="0 0 0 0 0 0 0 0 0 0 0 0 0 0 0 0 0 0 0.25 0"/>
<feBlend mode="normal" in2="shape" result="effect2_innerShadow_2062_1009"/>
</filter>
</defs>
</svg>
